<?xml version="1.0" standalone="no"?>
<!DOCTYPE svg PUBLIC "-//W3C//DTD SVG 1.1//EN" "http://www.w3.org/Graphics/SVG/1.1/DTD/svg11.dtd" >
<svg xmlns="http://www.w3.org/2000/svg" xmlns:xlink="http://www.w3.org/1999/xlink" version="1.1">
<metadata>
Created by FontForge 20201107 at Thu Aug 13 14:30:47 2020
 By Jimmy Wärting
Copyright \(c\) 2020 by Morgane Vantorre. All rights reserved.
</metadata>
<defs>
<font id="ArthemysDisplay-Light" horiz-adv-x="0" >
  <font-face 
    font-family="Arthemys Display Light"
    font-weight="400"
    font-stretch="normal"
    units-per-em="1000"
    panose-1="0 0 5 0 0 0 0 0 0 0"
    ascent="800"
    descent="-200"
    x-height="490"
    cap-height="700"
    bbox="-495 -303 1828 1019"
    underline-thickness="50"
    underline-position="-100"
    unicode-range="U+0020-1F982"
  />
<missing-glyph horiz-adv-x="436" 
d="M50 -222v908h336v-908h-336zM349 -177v810l-12 -8v-237c0 -45 -1 -62 -31 -62h-29c10 12 18 26 18 49c0 49 -39 97 -104 97c-63 0 -99 -48 -99 -97c0 -17 7 -35 20 -49h-33v-3l33 -83l11 2c-5 14 -21 50 10 50h186c17 0 18 -12 18 -25v-436zM226 492l49 4
c2 0 24 28 24 63c0 40 -24 71 -60 71c-51 0 -64 -103 -109 -105c-20 -1 -37 14 -37 31c0 28 18 43 64 32l3 12l-44 18c-1 0 -35 -20 -35 -62c0 -28 22 -61 58 -59c61 3 61 98 118 101c18 1 31 -16 30 -39c-1 -27 -17 -46 -61 -57v-10zM128 326c-12 9 -22 21 -22 40
c0 33 33 70 97 70c51 0 79 -23 79 -49c0 -32 -16 -50 -40 -61h-114zM99 12c0 48 -3 51 41 51h83c31 0 74 8 73 56c-1 61 -53 71 -63 72h55v73l-13 -9v-7c0 -14 1 -25 -24 -25h-166l2 -94l12 -11c0 65 -3 73 41 73h65c28 0 75 -22 75 -61c0 -31 -30 -37 -59 -37l-81 -1h-55
l2 -70zM191 -179c61 0 104 50 104 104c0 55 -43 105 -104 105c-60 0 -103 -50 -103 -105c0 -44 43 -104 103 -104zM176 -146c-28 0 -72 18 -72 62c0 36 41 81 99 81c49 0 79 -28 79 -59c0 -51 -53 -84 -106 -84z" />
    <glyph glyph-name="f_f" unicode="ff" horiz-adv-x="671" 
d="M665 750c66 0 106 -33 106 -33l-53 -156l-12 2c18 111 -9 166 -76 166c-113 0 -126 -130 -126 -240v-82h118l20 -12h-138v-316c0 -53 18 -67 64 -67h69l22 -12h-355l20 12h47c45 0 63 14 63 67v316h-254v-316c0 -53 18 -67 64 -67h40l20 -12h-314l20 12h37
c45 0 63 14 63 67v316h-104l11 12c88 0 92 34 92 85c0 151 103 258 235 258c91 0 148 -43 169 -65c44 42 92 65 152 65zM433 488c0 62 13 79 13 131c0 62 -56 109 -127 109c-137 0 -140 -103 -140 -198v-123c228 0 254 1 254 81z" />
    <glyph glyph-name="f_f_i" unicode="ffi" horiz-adv-x="891" 
d="M901 12l20 -12h-617l20 12h47c45 0 63 14 63 67v316h-254v-316c0 -53 18 -67 64 -67h40l20 -12h-314l20 12h37c45 0 63 14 63 67v316h-104l11 12c88 0 92 34 92 85c0 151 103 258 235 258c91 0 148 -43 169 -65c44 42 92 65 152 65c66 0 106 -33 106 -33l-53 -156l-12 2
c18 111 -9 166 -76 166c-113 0 -126 -130 -126 -240v-82c173 3 264 50 283 63h9v-391c0 -53 19 -67 64 -67h41zM433 488c0 62 13 79 13 131c0 62 -56 109 -127 109c-137 0 -140 -103 -140 -198v-123c228 0 254 1 254 81zM726 79v244c0 53 -15 69 -97 72h-92
c-11 0 -21 0 -33 -1v-315c0 -53 18 -67 64 -67h95c45 0 63 14 63 67z" />
    <glyph glyph-name="f_f_l" unicode="ffl" horiz-adv-x="899" 
d="M-10 0l20 12h37c45 0 63 14 63 67v316h-104l11 12c88 0 92 34 92 85c0 151 103 258 235 258c91 0 148 -43 169 -65c44 42 92 65 152 65c35 0 62 -9 80 -18l52 18h7v-671c0 -53 19 -67 65 -67h40l20 -12h-311l20 12h33c45 0 63 14 63 67v515c0 80 -26 135 -104 135
c-113 0 -126 -130 -126 -240v-83h139l20 -12h-159v-315c0 -53 18 -67 64 -67h30l20 -12h-314l20 12h47c45 0 63 14 63 67v316h-254v-316c0 -53 18 -67 64 -67h40l20 -12h-314zM179 407c228 0 254 1 254 81c0 62 13 79 13 131c0 62 -56 109 -127 109
c-137 0 -140 -103 -140 -198v-123z" />
    <glyph glyph-name="f_i" unicode="fi" horiz-adv-x="598" 
d="M370 12c45 0 63 14 63 67v247c0 74 -30 74 -253 69v-316c0 -53 18 -67 64 -67h16l19 -12h-289l20 12h37c45 0 63 14 63 67v316h-104l11 13c88 0 92 33 92 85c0 150 103 257 255 257c23 0 74 -3 103 -9l-11 -170h-11c-8 106 -65 158 -125 158c-120 0 -140 -110 -140 -221
v-101c200 1 295 53 314 66h9v-394c0 -53 19 -67 64 -67h41l20 -12h-318l21 12h39z" />
    <glyph glyph-name="f_l" unicode="fl" horiz-adv-x="629" 
d="M-10 0l20 12h37c45 0 63 14 63 67v316h-104l11 12c88 0 92 34 92 85c0 151 103 258 235 258c59 0 107 -19 111 -22l42 22h7v-671c0 -53 18 -67 64 -67h69l22 -12h-355l20 12h47c45 0 63 14 63 66v478c0 138 -54 173 -125 173c-107 0 -130 -104 -130 -199v-123h118l22 -12
h-139v-316c0 -53 18 -67 63 -67h41l20 -12h-314z" />
    <glyph glyph-name=".notdef" horiz-adv-x="436" 
d="M50 -222v908h336v-908h-336zM349 -177v810l-12 -8v-237c0 -45 -1 -62 -31 -62h-29c10 12 18 26 18 49c0 49 -39 97 -104 97c-63 0 -99 -48 -99 -97c0 -17 7 -35 20 -49h-33v-3l33 -83l11 2c-5 14 -21 50 10 50h186c17 0 18 -12 18 -25v-436zM226 492l49 4
c2 0 24 28 24 63c0 40 -24 71 -60 71c-51 0 -64 -103 -109 -105c-20 -1 -37 14 -37 31c0 28 18 43 64 32l3 12l-44 18c-1 0 -35 -20 -35 -62c0 -28 22 -61 58 -59c61 3 61 98 118 101c18 1 31 -16 30 -39c-1 -27 -17 -46 -61 -57v-10zM128 326c-12 9 -22 21 -22 40
c0 33 33 70 97 70c51 0 79 -23 79 -49c0 -32 -16 -50 -40 -61h-114zM99 12c0 48 -3 51 41 51h83c31 0 74 8 73 56c-1 61 -53 71 -63 72h55v73l-13 -9v-7c0 -14 1 -25 -24 -25h-166l2 -94l12 -11c0 65 -3 73 41 73h65c28 0 75 -22 75 -61c0 -31 -30 -37 -59 -37l-81 -1h-55
l2 -70zM191 -179c61 0 104 50 104 104c0 55 -43 105 -104 105c-60 0 -103 -50 -103 -105c0 -44 43 -104 103 -104zM176 -146c-28 0 -72 18 -72 62c0 36 41 81 99 81c49 0 79 -28 79 -59c0 -51 -53 -84 -106 -84z" />
    <glyph glyph-name="space" unicode=" " horiz-adv-x="250" 
 />
    <glyph glyph-name="A" unicode="A" horiz-adv-x="667" 
d="M-120 0l20 12h50c42 0 89 3 116 63c42 95 244 559 244 559s-8 54 -159 54h-135l20 12h317l264 -629c18 -43 53 -59 96 -59h54l20 -12h-439l19 12h83c88 0 90 18 38 154c-20 52 -50 52 -95 52h-176c-63 0 -76 -4 -103 -65c-55 -123 -51 -141 44 -141h81l20 -12h-379z
M217 230h176c50 0 61 23 41 78l-118 310l-139 -320c-24 -57 -19 -68 40 -68z" />
    <glyph glyph-name="Aacute" unicode="&#xc1;" horiz-adv-x="667" 
d="M145 774v12l356 53l13 -19zM-120 0l20 12h50c42 0 89 3 116 63c42 95 244 559 244 559s-8 54 -159 54h-135l20 12h317l264 -629c18 -43 53 -59 96 -59h54l20 -12h-439l19 12h83c88 0 90 18 38 154c-20 52 -50 52 -95 52h-176c-63 0 -76 -4 -103 -65
c-55 -123 -51 -141 44 -141h81l20 -12h-379zM217 230h176c50 0 61 23 41 78l-118 310l-139 -320c-24 -57 -19 -68 40 -68z" />
    <glyph glyph-name="Abreve" unicode="&#x102;" horiz-adv-x="667" 
d="M326 742c-96 0 -154 71 -154 154h12c0 -68 55 -134 142 -134c89 0 142 66 142 134h12c0 -83 -57 -154 -154 -154zM-120 0l20 12h50c42 0 89 3 116 63c42 95 244 559 244 559s-8 54 -159 54h-135l20 12h317l264 -629c18 -43 53 -59 96 -59h54l20 -12h-439l19 12h83
c88 0 90 18 38 154c-20 52 -50 52 -95 52h-176c-63 0 -76 -4 -103 -65c-55 -123 -51 -141 44 -141h81l20 -12h-379zM217 230h176c50 0 61 23 41 78l-118 310l-139 -320c-24 -57 -19 -68 40 -68z" />
    <glyph glyph-name="Acircumflex" unicode="&#xc2;" horiz-adv-x="667" 
d="M110 768l213 125l211 -125h-40l-171 111l-173 -111h-40zM-120 0l20 12h50c42 0 89 3 116 63c42 95 244 559 244 559s-8 54 -159 54h-135l20 12h317l264 -629c18 -43 53 -59 96 -59h54l20 -12h-439l19 12h83c88 0 90 18 38 154c-20 52 -50 52 -95 52h-176
c-63 0 -76 -4 -103 -65c-55 -123 -51 -141 44 -141h81l20 -12h-379zM217 230h176c50 0 61 23 41 78l-118 310l-139 -320c-24 -57 -19 -68 40 -68z" />
    <glyph glyph-name="Adieresis" unicode="&#xc4;" horiz-adv-x="667" 
d="M224 770c-16 0 -41 25 -41 39c0 17 25 42 41 42c15 0 40 -25 40 -42c0 -14 -25 -39 -40 -39zM425 770c-16 0 -41 25 -41 39c0 17 25 42 41 42c15 0 40 -25 40 -42c0 -14 -25 -39 -40 -39zM-120 0l20 12h50c42 0 89 3 116 63c42 95 244 559 244 559s-8 54 -159 54h-135
l20 12h317l264 -629c18 -43 53 -59 96 -59h54l20 -12h-439l19 12h83c88 0 90 18 38 154c-20 52 -50 52 -95 52h-176c-63 0 -76 -4 -103 -65c-55 -123 -51 -141 44 -141h81l20 -12h-379zM217 230h176c50 0 61 23 41 78l-118 310l-139 -320c-24 -57 -19 -68 40 -68z" />
    <glyph glyph-name="Agrave" unicode="&#xc0;" horiz-adv-x="667" 
d="M505 774l-369 46l13 19l356 -53v-12zM-120 0l20 12h50c42 0 89 3 116 63c42 95 244 559 244 559s-8 54 -159 54h-135l20 12h317l264 -629c18 -43 53 -59 96 -59h54l20 -12h-439l19 12h83c88 0 90 18 38 154c-20 52 -50 52 -95 52h-176c-63 0 -76 -4 -103 -65
c-55 -123 -51 -141 44 -141h81l20 -12h-379zM217 230h176c50 0 61 23 41 78l-118 310l-139 -320c-24 -57 -19 -68 40 -68z" />
    <glyph glyph-name="Amacron" unicode="&#x100;" horiz-adv-x="667" 
d="M77 798l10 12h465l10 -12h-485zM-120 0l20 12h50c42 0 89 3 116 63c42 95 244 559 244 559s-8 54 -159 54h-135l20 12h317l264 -629c18 -43 53 -59 96 -59h54l20 -12h-439l19 12h83c88 0 90 18 38 154c-20 52 -50 52 -95 52h-176c-63 0 -76 -4 -103 -65
c-55 -123 -51 -141 44 -141h81l20 -12h-379zM217 230h176c50 0 61 23 41 78l-118 310l-139 -320c-24 -57 -19 -68 40 -68z" />
    <glyph glyph-name="Aogonek" unicode="&#x104;" horiz-adv-x="667" 
d="M641 -187c37 -1 62 30 62 64h12c0 -46 -35 -85 -92 -85c-56 0 -97 42 -97 93c0 70 70 101 120 115h-298l19 12h83c88 0 90 18 38 154c-20 52 -50 52 -95 52h-176c-63 0 -76 -4 -103 -65c-55 -123 -51 -141 44 -141h81l20 -12h-379l20 12h50c42 0 89 3 116 63
c42 95 244 559 244 559s-8 54 -159 54h-135l20 12h317l264 -629c18 -43 53 -59 96 -59h54l20 -12h-124c-55 -22 -86 -61 -86 -112c0 -44 23 -74 64 -75zM393 230c50 0 61 23 41 78l-118 310l-139 -320c-24 -57 -19 -68 40 -68h176z" />
    <glyph glyph-name="Aring" unicode="&#xc5;" horiz-adv-x="667" 
d="M322 740c-55 0 -99 43 -99 98s44 98 99 98s99 -43 99 -98s-44 -98 -99 -98zM321 752c49 0 80 38 80 85s-31 87 -80 87s-78 -40 -78 -87s29 -85 78 -85zM-120 0l20 12h50c42 0 89 3 116 63c42 95 244 559 244 559s-8 54 -159 54h-135l20 12h317l264 -629
c18 -43 53 -59 96 -59h54l20 -12h-439l19 12h83c88 0 90 18 38 154c-20 52 -50 52 -95 52h-176c-63 0 -76 -4 -103 -65c-55 -123 -51 -141 44 -141h81l20 -12h-379zM217 230h176c50 0 61 23 41 78l-118 310l-139 -320c-24 -57 -19 -68 40 -68z" />
    <glyph glyph-name="Aringacute" unicode="&#x1fa;" horiz-adv-x="667" 
d="M144 954v12l356 53l13 -19zM322 740c-55 0 -99 43 -99 98s44 98 99 98s99 -43 99 -98s-44 -98 -99 -98zM321 752c49 0 80 38 80 85s-31 87 -80 87s-78 -40 -78 -87s29 -85 78 -85zM-120 0l20 12h50c42 0 89 3 116 63c42 95 244 559 244 559s-8 54 -159 54h-135l20 12h317
l264 -629c18 -43 53 -59 96 -59h54l20 -12h-439l19 12h83c88 0 90 18 38 154c-20 52 -50 52 -95 52h-176c-63 0 -76 -4 -103 -65c-55 -123 -51 -141 44 -141h81l20 -12h-379zM217 230h176c50 0 61 23 41 78l-118 310l-139 -320c-24 -57 -19 -68 40 -68z" />
    <glyph glyph-name="Atilde" unicode="&#xc3;" horiz-adv-x="667" 
d="M172 778l-11 5s27 85 93 85c70 0 95 -80 160 -80c46 0 60 51 60 51l10 -4s-14 -60 -77 -60s-94 73 -158 73c-54 0 -77 -70 -77 -70zM-120 0l20 12h50c42 0 89 3 116 63c42 95 244 559 244 559s-8 54 -159 54h-135l20 12h317l264 -629c18 -43 53 -59 96 -59h54l20 -12
h-439l19 12h83c88 0 90 18 38 154c-20 52 -50 52 -95 52h-176c-63 0 -76 -4 -103 -65c-55 -123 -51 -141 44 -141h81l20 -12h-379zM217 230h176c50 0 61 23 41 78l-118 310l-139 -320c-24 -57 -19 -68 40 -68z" />
    <glyph glyph-name="AE" unicode="&#xc6;" horiz-adv-x="903" 
d="M900 167l13 -5l-136 -162h-530l18 12h81c68 0 70 32 70 114v50c0 45 -18 42 -71 42h-99c-76 0 -89 -3 -114 -43c-76 -124 -110 -163 -4 -163h101l18 -12h-367l10 12h70c42 0 67 13 97 63l298 502c46 78 40 111 -57 111h-145l11 12h532c62 0 117 6 138 17l2 -5
c-37 -38 -44 -110 -44 -227l-12 11c0 91 -5 192 -84 192h-135c-70 0 -70 -26 -70 -91v-121c0 -84 5 -102 60 -102h65c75 0 74 18 74 105l12 10v-267l-12 10c0 60 1 130 -74 130h-65c-55 0 -60 -20 -60 -80v-157c0 -81 2 -113 75 -113c152 0 251 39 334 155zM345 230
c78 0 71 11 71 81v342s-112 -185 -159 -264c-84 -141 -92 -159 -36 -159h124z" />
    <glyph glyph-name="AEacute" unicode="&#x1fc;" horiz-adv-x="903" 
d="M695 839l13 -19l-369 -46v12zM900 167l13 -5l-136 -162h-530l18 12h81c68 0 70 32 70 114v50c0 45 -18 42 -71 42h-99c-76 0 -89 -3 -114 -43c-76 -124 -110 -163 -4 -163h101l18 -12h-367l10 12h70c42 0 67 13 97 63l298 502c46 78 40 111 -57 111h-145l11 12h532
c62 0 117 6 138 17l2 -5c-37 -38 -44 -110 -44 -227l-12 11c0 91 -5 192 -84 192h-135c-70 0 -70 -26 -70 -91v-121c0 -84 5 -102 60 -102h65c75 0 74 18 74 105l12 10v-267l-12 10c0 60 1 130 -74 130h-65c-55 0 -60 -20 -60 -80v-157c0 -81 2 -113 75 -113
c152 0 251 39 334 155zM345 230c78 0 71 11 71 81v342s-112 -185 -159 -264c-84 -141 -92 -159 -36 -159h124z" />
    <glyph glyph-name="B" unicode="B" horiz-adv-x="661" 
d="M-9 0l20 12h49c78 0 80 32 80 114v471c0 65 0 91 -85 91h-65l20 12h298c125 0 259 -18 259 -158s-169 -158 -169 -158l-10 -4s238 -1 238 -191c0 -179 -188 -189 -330 -189h-305zM334 13c136 0 207 45 207 176c0 182 -188 184 -284 184l16 12c170 0 209 65 209 158
c0 72 -45 145 -162 145c-105 0 -105 -26 -105 -91v-472c0 -81 29 -112 119 -112z" />
    <glyph glyph-name="C" unicode="C" horiz-adv-x="759" 
d="M447 -20c-240 0 -407 141 -407 371c0 193 157 368 366 368c158 0 231 -54 282 -41l3 -9c-50 -28 -75 -140 -96 -241l-10 12c15 76 25 267 -179 267c-234 0 -278 -201 -278 -299c0 -191 120 -416 325 -416c153 0 233 91 269 274l12 -2l-50 -224s-112 -60 -237 -60z" />
    <glyph glyph-name="Cacute" unicode="&#x106;" horiz-adv-x="759" 
d="M236 793v12l356 53l13 -19zM447 -20c-240 0 -407 141 -407 371c0 193 157 368 366 368c158 0 231 -54 282 -41l3 -9c-50 -28 -75 -140 -96 -241l-10 12c15 76 25 267 -179 267c-234 0 -278 -201 -278 -299c0 -191 120 -416 325 -416c153 0 233 91 269 274l12 -2l-50 -224
s-112 -60 -237 -60z" />
    <glyph glyph-name="Ccaron" unicode="&#x10c;" horiz-adv-x="759" 
d="M203 904h40l173 -111l171 111h40l-211 -125zM447 -20c-240 0 -407 141 -407 371c0 193 157 368 366 368c158 0 231 -54 282 -41l3 -9c-50 -28 -75 -140 -96 -241l-10 12c15 76 25 267 -179 267c-234 0 -278 -201 -278 -299c0 -191 120 -416 325 -416
c153 0 233 91 269 274l12 -2l-50 -224s-112 -60 -237 -60z" />
    <glyph glyph-name="Ccedilla" unicode="&#xc7;" horiz-adv-x="759" 
d="M447 -20c-15 0 -29 1 -43 2l-47 -88c18 20 46 45 88 45c37 0 79 -26 79 -76c0 -58 -58 -91 -104 -91c-61 0 -80 39 -91 64l11 5c11 -28 30 -54 66 -54c40 0 68 42 68 80c0 33 -13 58 -43 58c-36 0 -74 -47 -74 -47l-15 10l49 95c-209 20 -351 156 -351 368
c0 193 157 368 366 368c158 0 231 -54 282 -41l3 -9c-50 -28 -75 -140 -96 -241l-10 12c15 76 25 267 -179 267c-234 0 -278 -201 -278 -299c0 -191 120 -416 325 -416c153 0 233 91 269 274l12 -2l-50 -224s-112 -60 -237 -60z" />
    <glyph glyph-name="Ccircumflex" unicode="&#x108;" horiz-adv-x="759" 
d="M201 787l213 125l211 -125h-40l-171 111l-173 -111h-40zM447 -20c-240 0 -407 141 -407 371c0 193 157 368 366 368c158 0 231 -54 282 -41l3 -9c-50 -28 -75 -140 -96 -241l-10 12c15 76 25 267 -179 267c-234 0 -278 -201 -278 -299c0 -191 120 -416 325 -416
c153 0 233 91 269 274l12 -2l-50 -224s-112 -60 -237 -60z" />
    <glyph glyph-name="Cdotaccent" unicode="&#x10a;" horiz-adv-x="759" 
d="M415 767c-34 0 -62 28 -62 62s28 62 62 62s62 -28 62 -62s-28 -62 -62 -62zM447 -20c-240 0 -407 141 -407 371c0 193 157 368 366 368c158 0 231 -54 282 -41l3 -9c-50 -28 -75 -140 -96 -241l-10 12c15 76 25 267 -179 267c-234 0 -278 -201 -278 -299
c0 -191 120 -416 325 -416c153 0 233 91 269 274l12 -2l-50 -224s-112 -60 -237 -60z" />
    <glyph glyph-name="D" unicode="D" horiz-adv-x="784" 
d="M-10 0l20 12h50c78 0 80 32 80 114v471c0 65 0 91 -85 91h-65l20 12h359c236 0 375 -168 375 -329c0 -228 -155 -371 -325 -371h-429zM290 12h128c81 0 246 76 246 285c0 222 -131 391 -349 391c-97 0 -100 -2 -100 -91v-472c0 -81 2 -113 75 -113z" />
    <glyph glyph-name="Eth" unicode="&#xd0;" horiz-adv-x="785" 
d="M-10 0l20 12h61c68 0 70 32 70 114v282h-151l20 12h131v177c0 65 0 91 -75 91h-76l20 12h360c236 0 375 -168 375 -329c0 -228 -155 -371 -325 -371h-430zM291 12h128c81 0 246 76 246 285c0 222 -131 391 -349 391c-97 0 -100 -2 -100 -91v-177h140l10 -12h-150v-283
c0 -81 2 -113 75 -113z" />
    <glyph glyph-name="Dcaron" unicode="&#x10e;" horiz-adv-x="784" 
d="M174 885h40l173 -111l171 111h40l-211 -125zM-10 0l20 12h50c78 0 80 32 80 114v471c0 65 0 91 -85 91h-65l20 12h359c236 0 375 -168 375 -329c0 -228 -155 -371 -325 -371h-429zM290 12h128c81 0 246 76 246 285c0 222 -131 391 -349 391c-97 0 -100 -2 -100 -91v-472
c0 -81 2 -113 75 -113z" />
    <glyph glyph-name="Dcroat" unicode="&#x110;" horiz-adv-x="785" 
d="M-10 0l20 12h61c68 0 70 32 70 114v282h-151l20 12h131v177c0 65 0 91 -75 91h-76l20 12h360c236 0 375 -168 375 -329c0 -228 -155 -371 -325 -371h-430zM291 12h128c81 0 246 76 246 285c0 222 -131 391 -349 391c-97 0 -100 -2 -100 -91v-177h140l10 -12h-150v-283
c0 -81 2 -113 75 -113z" />
    <glyph glyph-name="E" unicode="E" horiz-adv-x="597" 
d="M-10 0l20 12h50c78 0 80 32 80 114v471c0 65 0 91 -85 91h-65l20 12h410c62 0 117 6 138 17l5 -8c-37 -38 -47 -107 -47 -224l-12 11c0 91 -5 192 -84 192h-135c-70 0 -70 -26 -70 -91v-121c0 -84 5 -102 60 -102h65c74 0 74 28 74 115h12v-267l-12 10
c0 60 0 130 -74 130h-65c-55 0 -60 -20 -60 -80v-157c0 -81 2 -113 75 -113c152 0 244 47 307 163l10 -3l-86 -172h-531z" />
    <glyph glyph-name="Eacute" unicode="&#xc9;" horiz-adv-x="597" 
d="M136 773v12l356 53l13 -19zM-10 0l20 12h50c78 0 80 32 80 114v471c0 65 0 91 -85 91h-65l20 12h410c62 0 117 6 138 17l5 -8c-37 -38 -47 -107 -47 -224l-12 11c0 91 -5 192 -84 192h-135c-70 0 -70 -26 -70 -91v-121c0 -84 5 -102 60 -102h65c74 0 74 28 74 115h12
v-267l-12 10c0 60 0 130 -74 130h-65c-55 0 -60 -20 -60 -80v-157c0 -81 2 -113 75 -113c152 0 244 47 307 163l10 -3l-86 -172h-531z" />
    <glyph glyph-name="Ecaron" unicode="&#x11a;" horiz-adv-x="597" 
d="M103 884h40l173 -111l171 111h40l-211 -125zM-10 0l20 12h50c78 0 80 32 80 114v471c0 65 0 91 -85 91h-65l20 12h410c62 0 117 6 138 17l5 -8c-37 -38 -47 -107 -47 -224l-12 11c0 91 -5 192 -84 192h-135c-70 0 -70 -26 -70 -91v-121c0 -84 5 -102 60 -102h65
c74 0 74 28 74 115h12v-267l-12 10c0 60 0 130 -74 130h-65c-55 0 -60 -20 -60 -80v-157c0 -81 2 -113 75 -113c152 0 244 47 307 163l10 -3l-86 -172h-531z" />
    <glyph glyph-name="Ecircumflex" unicode="&#xca;" horiz-adv-x="597" 
d="M101 767l213 125l211 -125h-40l-171 111l-173 -111h-40zM-10 0l20 12h50c78 0 80 32 80 114v471c0 65 0 91 -85 91h-65l20 12h410c62 0 117 6 138 17l5 -8c-37 -38 -47 -107 -47 -224l-12 11c0 91 -5 192 -84 192h-135c-70 0 -70 -26 -70 -91v-121c0 -84 5 -102 60 -102
h65c74 0 74 28 74 115h12v-267l-12 10c0 60 0 130 -74 130h-65c-55 0 -60 -20 -60 -80v-157c0 -81 2 -113 75 -113c152 0 244 47 307 163l10 -3l-86 -172h-531z" />
    <glyph glyph-name="Edieresis" unicode="&#xcb;" horiz-adv-x="597" 
d="M215 769c-16 0 -41 25 -41 39c0 17 25 42 41 42c15 0 40 -25 40 -42c0 -14 -25 -39 -40 -39zM416 769c-16 0 -41 25 -41 39c0 17 25 42 41 42c15 0 40 -25 40 -42c0 -14 -25 -39 -40 -39zM-10 0l20 12h50c78 0 80 32 80 114v471c0 65 0 91 -85 91h-65l20 12h410
c62 0 117 6 138 17l5 -8c-37 -38 -47 -107 -47 -224l-12 11c0 91 -5 192 -84 192h-135c-70 0 -70 -26 -70 -91v-121c0 -84 5 -102 60 -102h65c74 0 74 28 74 115h12v-267l-12 10c0 60 0 130 -74 130h-65c-55 0 -60 -20 -60 -80v-157c0 -81 2 -113 75 -113
c152 0 244 47 307 163l10 -3l-86 -172h-531z" />
    <glyph glyph-name="Edotaccent" unicode="&#x116;" horiz-adv-x="597" 
d="M315 747c-34 0 -62 28 -62 62s28 62 62 62s62 -28 62 -62s-28 -62 -62 -62zM-10 0l20 12h50c78 0 80 32 80 114v471c0 65 0 91 -85 91h-65l20 12h410c62 0 117 6 138 17l5 -8c-37 -38 -47 -107 -47 -224l-12 11c0 91 -5 192 -84 192h-135c-70 0 -70 -26 -70 -91v-121
c0 -84 5 -102 60 -102h65c74 0 74 28 74 115h12v-267l-12 10c0 60 0 130 -74 130h-65c-55 0 -60 -20 -60 -80v-157c0 -81 2 -113 75 -113c152 0 244 47 307 163l10 -3l-86 -172h-531z" />
    <glyph glyph-name="Egrave" unicode="&#xc8;" horiz-adv-x="597" 
d="M496 773l-369 46l13 19l356 -53v-12zM-10 0l20 12h50c78 0 80 32 80 114v471c0 65 0 91 -85 91h-65l20 12h410c62 0 117 6 138 17l5 -8c-37 -38 -47 -107 -47 -224l-12 11c0 91 -5 192 -84 192h-135c-70 0 -70 -26 -70 -91v-121c0 -84 5 -102 60 -102h65
c74 0 74 28 74 115h12v-267l-12 10c0 60 0 130 -74 130h-65c-55 0 -60 -20 -60 -80v-157c0 -81 2 -113 75 -113c152 0 244 47 307 163l10 -3l-86 -172h-531z" />
    <glyph glyph-name="Emacron" unicode="&#x112;" horiz-adv-x="597" 
d="M68 797l10 12h465l10 -12h-485zM-10 0l20 12h50c78 0 80 32 80 114v471c0 65 0 91 -85 91h-65l20 12h410c62 0 117 6 138 17l5 -8c-37 -38 -47 -107 -47 -224l-12 11c0 91 -5 192 -84 192h-135c-70 0 -70 -26 -70 -91v-121c0 -84 5 -102 60 -102h65c74 0 74 28 74 115h12
v-267l-12 10c0 60 0 130 -74 130h-65c-55 0 -60 -20 -60 -80v-157c0 -81 2 -113 75 -113c152 0 244 47 307 163l10 -3l-86 -172h-531z" />
    <glyph glyph-name="Eogonek" unicode="&#x118;" horiz-adv-x="597" 
d="M499 -187c37 -1 62 30 62 64h12c0 -46 -35 -85 -92 -85c-56 0 -97 42 -97 93c0 70 70 101 120 115h-514l20 12h50c78 0 80 32 80 114v471c0 65 0 91 -85 91h-65l20 12h410c62 0 117 6 138 17l5 -8c-37 -38 -47 -107 -47 -224l-12 11c0 91 -5 192 -84 192h-135
c-70 0 -70 -26 -70 -91v-121c0 -84 5 -102 60 -102h65c74 0 74 28 74 115h12v-267l-12 10c0 60 0 130 -74 130h-65c-55 0 -60 -20 -60 -80v-157c0 -81 2 -113 75 -113c152 0 244 47 307 163l10 -3l-86 -172c-55 -22 -86 -61 -86 -112c0 -44 23 -74 64 -75z" />
    <glyph glyph-name="F" unicode="F" horiz-adv-x="553" 
d="M-10 0l20 12h50c78 0 80 32 80 114v471c0 65 0 91 -85 91h-65l20 12h410c62 0 117 6 138 17l5 -8c-37 -38 -47 -107 -47 -224l-12 11c0 91 -5 192 -84 192h-135c-70 0 -70 -26 -70 -91v-121c0 -84 5 -102 60 -102h61c75 0 78 28 78 115h12v-267l-12 10
c0 60 -3 130 -78 130h-61c-55 0 -60 -20 -60 -80v-157c0 -81 2 -113 75 -113h86l17 -12h-403z" />
    <glyph glyph-name="G" unicode="G" horiz-adv-x="786" 
d="M450 -20c-243 0 -410 135 -410 371c0 193 157 368 366 368c158 0 231 -54 282 -41l3 -9c-50 -28 -75 -140 -96 -241l-10 12c15 76 25 267 -179 267c-234 0 -278 -201 -278 -299c0 -208 127 -416 322 -416c255 0 278 334 54 334h-304l20 13h498l38 -339h-12
c-10 79 -21 124 -40 124c-24 0 -85 -144 -254 -144z" />
    <glyph glyph-name="Gbreve" unicode="&#x11e;" horiz-adv-x="786" 
d="M407 761c-96 0 -154 71 -154 154h12c0 -68 55 -134 142 -134c89 0 142 66 142 134h12c0 -83 -57 -154 -154 -154zM450 -20c-243 0 -410 135 -410 371c0 193 157 368 366 368c158 0 231 -54 282 -41l3 -9c-50 -28 -75 -140 -96 -241l-10 12c15 76 25 267 -179 267
c-234 0 -278 -201 -278 -299c0 -208 127 -416 322 -416c255 0 278 334 54 334h-304l20 13h498l38 -339h-12c-10 79 -21 124 -40 124c-24 0 -85 -144 -254 -144z" />
    <glyph glyph-name="Gcaron" unicode="&#x1e6;" horiz-adv-x="786" 
d="M193 904h40l173 -111l171 111h40l-211 -125zM450 -20c-243 0 -410 135 -410 371c0 193 157 368 366 368c158 0 231 -54 282 -41l3 -9c-50 -28 -75 -140 -96 -241l-10 12c15 76 25 267 -179 267c-234 0 -278 -201 -278 -299c0 -208 127 -416 322 -416
c255 0 278 334 54 334h-304l20 13h498l38 -339h-12c-10 79 -21 124 -40 124c-24 0 -85 -144 -254 -144z" />
    <glyph glyph-name="Gcircumflex" unicode="&#x11c;" horiz-adv-x="786" 
d="M191 787l213 125l211 -125h-40l-171 111l-173 -111h-40zM450 -20c-243 0 -410 135 -410 371c0 193 157 368 366 368c158 0 231 -54 282 -41l3 -9c-50 -28 -75 -140 -96 -241l-10 12c15 76 25 267 -179 267c-234 0 -278 -201 -278 -299c0 -208 127 -416 322 -416
c255 0 278 334 54 334h-304l20 13h498l38 -339h-12c-10 79 -21 124 -40 124c-24 0 -85 -144 -254 -144z" />
    <glyph glyph-name="uni0122" unicode="&#x122;" horiz-adv-x="786" 
d="M450 -20c-243 0 -410 135 -410 371c0 193 157 368 366 368c158 0 231 -54 282 -41l3 -9c-50 -28 -75 -140 -96 -241l-10 12c15 76 25 267 -179 267c-234 0 -278 -201 -278 -299c0 -208 127 -416 322 -416c255 0 278 334 54 334h-304l20 13h498l38 -339h-12
c-10 79 -21 124 -40 124c-24 0 -85 -144 -254 -144zM355 -271v11c60 21 91 66 91 111c0 31 -20 32 -20 58c0 12 22 37 34 37c13 0 33 -25 33 -37c0 -82 -46 -148 -138 -180z" />
    <glyph glyph-name="Gdotaccent" unicode="&#x120;" horiz-adv-x="786" 
d="M405 767c-34 0 -62 28 -62 62s28 62 62 62s62 -28 62 -62s-28 -62 -62 -62zM450 -20c-243 0 -410 135 -410 371c0 193 157 368 366 368c158 0 231 -54 282 -41l3 -9c-50 -28 -75 -140 -96 -241l-10 12c15 76 25 267 -179 267c-234 0 -278 -201 -278 -299
c0 -208 127 -416 322 -416c255 0 278 334 54 334h-304l20 13h498l38 -339h-12c-10 79 -21 124 -40 124c-24 0 -85 -144 -254 -144z" />
    <glyph glyph-name="H" unicode="H" horiz-adv-x="825" 
d="M-10 0l20 12h50c78 0 80 32 80 114v471c0 65 0 91 -85 91h-65l20 12h336l10 -12h-71c-70 0 -70 -26 -70 -91v-141c0 -84 5 -102 60 -102h255c75 0 80 18 80 105v138c0 65 0 91 -75 91h-66l10 12h336l20 -12h-66c-84 0 -84 -26 -84 -91v-472c0 -81 2 -113 80 -113h50
l20 -12h-366l10 12h61c68 0 70 32 70 114v136c0 60 -5 80 -80 80h-255c-55 0 -60 -20 -60 -80v-137c0 -81 2 -113 75 -113h56l10 -12h-366z" />
    <glyph glyph-name="Hbar" unicode="&#x126;" horiz-adv-x="825" 
d="M765 12h50l20 -12h-366l10 12h61c68 0 70 32 70 114v136c0 60 -5 80 -80 80h-255c-55 0 -60 -20 -60 -80v-137c0 -81 2 -113 75 -113h56l10 -12h-366l20 12h50c78 0 80 32 80 114v450h-96l20 12h76v9c0 65 0 91 -85 91h-65l20 12h336l10 -12h-71c-70 0 -70 -26 -70 -91
v-9h395v9c0 65 0 91 -75 91h-66l10 12h336l20 -12h-66c-84 0 -84 -26 -84 -91v-9h69l20 -12h-89v-451c0 -81 2 -113 80 -113zM530 354c75 0 80 18 80 105v117h-395v-120c0 -84 5 -102 60 -102h255z" />
    <glyph glyph-name="Hcircumflex" unicode="&#x124;" horiz-adv-x="825" 
d="M199 768l213 125l211 -125h-40l-171 111l-173 -111h-40zM-10 0l20 12h50c78 0 80 32 80 114v471c0 65 0 91 -85 91h-65l20 12h336l10 -12h-71c-70 0 -70 -26 -70 -91v-141c0 -84 5 -102 60 -102h255c75 0 80 18 80 105v138c0 65 0 91 -75 91h-66l10 12h336l20 -12h-66
c-84 0 -84 -26 -84 -91v-472c0 -81 2 -113 80 -113h50l20 -12h-366l10 12h61c68 0 70 32 70 114v136c0 60 -5 80 -80 80h-255c-55 0 -60 -20 -60 -80v-137c0 -81 2 -113 75 -113h56l10 -12h-366z" />
    <glyph glyph-name="I" unicode="I" horiz-adv-x="355" 
d="M-10 0l20 12h50c78 0 80 32 80 114v471c0 65 0 91 -85 91h-65l20 12h335l20 -12h-66c-84 0 -84 -26 -84 -91v-472c0 -81 2 -113 80 -113h50l20 -12h-375z" />
    <glyph glyph-name="Iacute" unicode="&#xcd;" horiz-adv-x="355" 
d="M26 774l-11 10l309 44l11 -19zM-10 0l20 12h50c78 0 80 32 80 114v471c0 65 0 91 -85 91h-65l20 12h335l20 -12h-66c-84 0 -84 -26 -84 -91v-472c0 -81 2 -113 80 -113h50l20 -12h-375z" />
    <glyph glyph-name="Icircumflex" unicode="&#xce;" horiz-adv-x="355" 
d="M-5 768l179 125l178 -125h-32l-146 111l-144 -111h-35zM-10 0l20 12h50c78 0 80 32 80 114v471c0 65 0 91 -85 91h-65l20 12h335l20 -12h-66c-84 0 -84 -26 -84 -91v-472c0 -81 2 -113 80 -113h50l20 -12h-375z" />
    <glyph glyph-name="Idieresis" unicode="&#xcf;" horiz-adv-x="355" 
d="M95 770c-16 0 -41 25 -41 39c0 17 25 42 41 42c15 0 40 -25 40 -42c0 -14 -25 -39 -40 -39zM256 770c-16 0 -41 25 -41 39c0 17 25 42 41 42c15 0 40 -25 40 -42c0 -14 -25 -39 -40 -39zM-10 0l20 12h50c78 0 80 32 80 114v471c0 65 0 91 -85 91h-65l20 12h335l20 -12
h-66c-84 0 -84 -26 -84 -91v-472c0 -81 2 -113 80 -113h50l20 -12h-375z" />
    <glyph glyph-name="Idotaccent" unicode="&#x130;" horiz-adv-x="355" 
d="M175 748c-34 0 -62 28 -62 62s28 62 62 62s62 -28 62 -62s-28 -62 -62 -62zM-10 0l20 12h50c78 0 80 32 80 114v471c0 65 0 91 -85 91h-65l20 12h335l20 -12h-66c-84 0 -84 -26 -84 -91v-472c0 -81 2 -113 80 -113h50l20 -12h-375z" />
    <glyph glyph-name="Igrave" unicode="&#xcc;" horiz-adv-x="355" 
d="M326 774l-309 35l11 19l309 -44zM-10 0l20 12h50c78 0 80 32 80 114v471c0 65 0 91 -85 91h-65l20 12h335l20 -12h-66c-84 0 -84 -26 -84 -91v-472c0 -81 2 -113 80 -113h50l20 -12h-375z" />
    <glyph glyph-name="Imacron" unicode="&#x12a;" horiz-adv-x="355" 
d="M-2 798l10 12h335l10 -12h-355zM-10 0l20 12h50c78 0 80 32 80 114v471c0 65 0 91 -85 91h-65l20 12h335l20 -12h-66c-84 0 -84 -26 -84 -91v-472c0 -81 2 -113 80 -113h50l20 -12h-375z" />
    <glyph glyph-name="Iogonek" unicode="&#x12e;" horiz-adv-x="355" 
d="M372 -123h12c0 -46 -35 -85 -92 -85c-56 0 -97 42 -97 93c0 70 70 101 120 115h-325l20 12h50c78 0 80 32 80 114v471c0 65 0 91 -85 91h-65l20 12h335l20 -12h-66c-84 0 -84 -26 -84 -91v-472c0 -81 2 -113 80 -113h50l20 -12h-33c-55 -22 -86 -61 -86 -112
c0 -44 23 -74 64 -75c37 -1 62 30 62 64z" />
    <glyph glyph-name="J" unicode="J" horiz-adv-x="395" 
d="M-55 -217l-5 7c37 38 42 96 42 213l13 -3c0 -92 4 -188 93 -188c68 0 102 101 102 313v472c0 65 0 91 -75 91h-76l20 12h326l20 -12h-70c-70 0 -70 -26 -70 -91v-473c0 -232 -72 -324 -180 -324c-63 0 -119 -6 -140 -17z" />
    <glyph glyph-name="Jcircumflex" unicode="&#x134;" horiz-adv-x="395" 
d="M44 768l179 125l178 -125h-32l-146 111l-144 -111h-35zM-55 -217l-5 7c37 38 42 96 42 213l13 -3c0 -92 4 -188 93 -188c68 0 102 101 102 313v472c0 65 0 91 -75 91h-76l20 12h326l20 -12h-70c-70 0 -70 -26 -70 -91v-473c0 -232 -72 -324 -180 -324
c-63 0 -119 -6 -140 -17z" />
    <glyph glyph-name="K" unicode="K" horiz-adv-x="739" 
d="M-10 0l20 12h50c78 0 80 32 80 114v471c0 65 0 91 -85 91h-65l20 12h326l20 -12h-71c-70 0 -70 -26 -70 -91v-320l181 185c179 182 220 226 66 226h-106l20 12h440l20 -12h-65c-134 0 -138 -2 -382 -250l226 -322c61 -86 78 -104 138 -104h76l10 -12h-405l10 12h85
c39 0 48 18 13 67l-208 302l-119 -121v-135c0 -81 2 -113 75 -113h46l10 -12h-356z" />
    <glyph glyph-name="uni0136" unicode="&#x136;" horiz-adv-x="739" 
d="M-10 0l20 12h50c78 0 80 32 80 114v471c0 65 0 91 -85 91h-65l20 12h326l20 -12h-71c-70 0 -70 -26 -70 -91v-320l181 185c179 182 220 226 66 226h-106l20 12h440l20 -12h-65c-134 0 -138 -2 -382 -250l226 -322c61 -86 78 -104 138 -104h76l10 -12h-405l10 12h85
c39 0 48 18 13 67l-208 302l-119 -121v-135c0 -81 2 -113 75 -113h46l10 -12h-356zM291 -251v11c60 21 91 66 91 111c0 31 -20 32 -20 58c0 12 22 37 34 37c13 0 33 -25 33 -37c0 -82 -46 -148 -138 -180z" />
    <glyph glyph-name="L" unicode="L" horiz-adv-x="545" 
d="M-10 0l20 12h50c78 0 80 32 80 114v471c0 65 0 91 -85 91h-65l20 12h336l19 -12h-66c-84 0 -84 -26 -84 -91v-472c0 -81 2 -113 80 -113c147 0 196 29 259 165l11 -5l-84 -172h-491z" />
    <glyph glyph-name="Lacute" unicode="&#x139;" horiz-adv-x="545" 
d="M-3 774v12l356 53l13 -19zM-10 0l20 12h50c78 0 80 32 80 114v471c0 65 0 91 -85 91h-65l20 12h336l19 -12h-66c-84 0 -84 -26 -84 -91v-472c0 -81 2 -113 80 -113c147 0 196 29 259 165l11 -5l-84 -172h-491z" />
    <glyph glyph-name="Lcaron" unicode="&#x13d;" horiz-adv-x="545" 
d="M-36 885h40l173 -111l171 111h40l-211 -125zM-10 0l20 12h50c78 0 80 32 80 114v471c0 65 0 91 -85 91h-65l20 12h336l19 -12h-66c-84 0 -84 -26 -84 -91v-472c0 -81 2 -113 80 -113c147 0 196 29 259 165l11 -5l-84 -172h-491z" />
    <glyph glyph-name="uni013B" unicode="&#x13b;" horiz-adv-x="545" 
d="M-10 0l20 12h50c78 0 80 32 80 114v471c0 65 0 91 -85 91h-65l20 12h336l19 -12h-66c-84 0 -84 -26 -84 -91v-472c0 -81 2 -113 80 -113c147 0 196 29 259 165l11 -5l-84 -172h-491zM172 -251v11c60 21 91 66 91 111c0 31 -20 32 -20 58c0 12 22 37 34 37
c13 0 33 -25 33 -37c0 -82 -46 -148 -138 -180z" />
    <glyph glyph-name="Ldot" unicode="&#x13f;" horiz-adv-x="545" 
d="M-10 0l20 12h50c78 0 80 32 80 114v471c0 65 0 91 -85 91h-65l20 12h336l19 -12h-66c-84 0 -84 -26 -84 -91v-472c0 -81 2 -113 80 -113c147 0 196 29 259 165l11 -5l-84 -172h-491zM449 291c-17 0 -47 30 -47 45c0 17 30 47 47 47c15 0 45 -30 45 -47
c0 -15 -30 -45 -45 -45z" />
    <glyph glyph-name="Lslash" unicode="&#x141;" horiz-adv-x="545" 
d="M554 177l11 -5l-84 -172h-491l20 12h50c78 0 80 32 80 114v229l-89 -75l-8 9l97 82v226c0 65 0 91 -85 91h-65l20 12h336l19 -12h-66c-84 0 -84 -26 -84 -91v-163l109 92l7 -9l-116 -98v-294c0 -81 2 -113 80 -113c147 0 196 29 259 165z" />
    <glyph glyph-name="M" unicode="M" horiz-adv-x="985" 
d="M466 -20c-267 629 -277 652 -290 652c-10 0 -12 -11 -28 -182l-27 -315c-10 -120 7 -123 110 -123h86l10 -12h-387l20 12h51c87 0 91 42 98 124l41 467c5 65 -6 85 -121 85h-76l20 12h277l126 -297c105 -248 108 -255 122 -255s18 7 160 404l53 148h293l20 -12h-141
c-70 0 -81 -15 -72 -91l56 -471c15 -83 49 -114 122 -114h56l20 -12h-457l10 12h61c68 0 121 21 108 108l-34 285c-25 213 -32 227 -42 227c-6 0 -13 -7 -41 -83c-39 -108 -109 -307 -204 -569z" />
    <glyph glyph-name="N" unicode="N" horiz-adv-x="809" 
d="M699 -20l-295 383c-211 273 -215 278 -227 278c-14 0 -16 -25 -17 -63l-11 -443c-3 -110 30 -123 113 -123h86l10 -12h-397l20 12h61c58 0 92 13 95 124l12 473c1 50 -7 79 -122 79h-67l20 12h270l437 -563v429c0 117 -48 122 -134 122h-41l10 12h297l20 -12h-46
c-59 0 -94 -5 -94 -121v-587z" />
    <glyph glyph-name="Nacute" unicode="&#x143;" horiz-adv-x="809" 
d="M251 774v12l356 53l13 -19zM699 -20l-295 383c-211 273 -215 278 -227 278c-14 0 -16 -25 -17 -63l-11 -443c-3 -110 30 -123 113 -123h86l10 -12h-397l20 12h61c58 0 92 13 95 124l12 473c1 50 -7 79 -122 79h-67l20 12h270l437 -563v429c0 117 -48 122 -134 122h-41
l10 12h297l20 -12h-46c-59 0 -94 -5 -94 -121v-587z" />
    <glyph glyph-name="Ncaron" unicode="&#x147;" horiz-adv-x="809" 
d="M218 885h40l173 -111l171 111h40l-211 -125zM699 -20l-295 383c-211 273 -215 278 -227 278c-14 0 -16 -25 -17 -63l-11 -443c-3 -110 30 -123 113 -123h86l10 -12h-397l20 12h61c58 0 92 13 95 124l12 473c1 50 -7 79 -122 79h-67l20 12h270l437 -563v429
c0 117 -48 122 -134 122h-41l10 12h297l20 -12h-46c-59 0 -94 -5 -94 -121v-587z" />
    <glyph glyph-name="uni0145" unicode="&#x145;" horiz-adv-x="809" 
d="M699 -20l-295 383c-211 273 -215 278 -227 278c-14 0 -16 -25 -17 -63l-11 -443c-3 -110 30 -123 113 -123h86l10 -12h-397l20 12h61c58 0 92 13 95 124l12 473c1 50 -7 79 -122 79h-67l20 12h270l437 -563v429c0 117 -48 122 -134 122h-41l10 12h297l20 -12h-46
c-59 0 -94 -5 -94 -121v-587zM343 -251v11c60 21 91 66 91 111c0 31 -20 32 -20 58c0 12 22 37 34 37c13 0 33 -25 33 -37c0 -82 -46 -148 -138 -180z" />
    <glyph glyph-name="Eng" unicode="&#x14a;" horiz-adv-x="809" 
d="M819 700l20 -12h-46c-59 0 -94 -5 -94 -121v-737h-192l20 12h26c79 0 136 21 136 112v39l-285 370c-211 273 -215 278 -227 278c-14 0 -16 -25 -17 -63l-11 -443c-3 -110 30 -123 113 -123h86l10 -12h-397l20 12h61c58 0 92 13 95 124l12 473c1 50 -7 79 -122 79h-67
l20 12h270l437 -563v429c0 117 -48 122 -134 122h-41l10 12h297z" />
    <glyph glyph-name="Ntilde" unicode="&#xd1;" horiz-adv-x="809" 
d="M278 778l-11 5s27 85 93 85c70 0 95 -80 160 -80c46 0 60 51 60 51l10 -4s-14 -60 -77 -60s-94 73 -158 73c-54 0 -77 -70 -77 -70zM699 -20l-295 383c-211 273 -215 278 -227 278c-14 0 -16 -25 -17 -63l-11 -443c-3 -110 30 -123 113 -123h86l10 -12h-397l20 12h61
c58 0 92 13 95 124l12 473c1 50 -7 79 -122 79h-67l20 12h270l437 -563v429c0 117 -48 122 -134 122h-41l10 12h297l20 -12h-46c-59 0 -94 -5 -94 -121v-587z" />
    <glyph glyph-name="O" unicode="O" horiz-adv-x="814" 
d="M406 -20c-209 0 -366 169 -366 371c0 203 157 369 366 369c208 0 368 -166 368 -369c0 -202 -160 -371 -368 -371zM447 -1c145 0 247 130 247 311c0 243 -183 388 -339 388c-147 0 -237 -128 -237 -291c0 -210 151 -408 329 -408z" />
    <glyph glyph-name="Oacute" unicode="&#xd3;" horiz-adv-x="814" 
d="M230 774v12l356 53l13 -19zM406 -20c-209 0 -366 169 -366 371c0 203 157 369 366 369c208 0 368 -166 368 -369c0 -202 -160 -371 -368 -371zM447 -1c145 0 247 130 247 311c0 243 -183 388 -339 388c-147 0 -237 -128 -237 -291c0 -210 151 -408 329 -408z" />
    <glyph glyph-name="Ocircumflex" unicode="&#xd4;" horiz-adv-x="814" 
d="M195 768l213 125l211 -125h-40l-171 111l-173 -111h-40zM406 -20c-209 0 -366 169 -366 371c0 203 157 369 366 369c208 0 368 -166 368 -369c0 -202 -160 -371 -368 -371zM447 -1c145 0 247 130 247 311c0 243 -183 388 -339 388c-147 0 -237 -128 -237 -291
c0 -210 151 -408 329 -408z" />
    <glyph glyph-name="Odieresis" unicode="&#xd6;" horiz-adv-x="814" 
d="M309 770c-16 0 -41 25 -41 39c0 17 25 42 41 42c15 0 40 -25 40 -42c0 -14 -25 -39 -40 -39zM510 770c-16 0 -41 25 -41 39c0 17 25 42 41 42c15 0 40 -25 40 -42c0 -14 -25 -39 -40 -39zM406 -20c-209 0 -366 169 -366 371c0 203 157 369 366 369
c208 0 368 -166 368 -369c0 -202 -160 -371 -368 -371zM447 -1c145 0 247 130 247 311c0 243 -183 388 -339 388c-147 0 -237 -128 -237 -291c0 -210 151 -408 329 -408z" />
    <glyph glyph-name="Ograve" unicode="&#xd2;" horiz-adv-x="814" 
d="M590 774l-369 46l13 19l356 -53v-12zM406 -20c-209 0 -366 169 -366 371c0 203 157 369 366 369c208 0 368 -166 368 -369c0 -202 -160 -371 -368 -371zM447 -1c145 0 247 130 247 311c0 243 -183 388 -339 388c-147 0 -237 -128 -237 -291c0 -210 151 -408 329 -408z
" />
    <glyph glyph-name="Ohungarumlaut" unicode="&#x150;" horiz-adv-x="814" 
d="M334 770c18 22 49 54 49 82c0 22 -11 35 -11 53c0 16 15 33 27 33c13 0 31 -17 31 -37c0 -35 -54 -98 -80 -131h-16zM434 770c18 22 49 54 49 82c0 22 -11 35 -11 53c0 16 15 33 27 33c13 0 31 -17 31 -37c0 -35 -54 -98 -80 -131h-16zM406 -20c-209 0 -366 169 -366 371
c0 203 157 369 366 369c208 0 368 -166 368 -369c0 -202 -160 -371 -368 -371zM447 -1c145 0 247 130 247 311c0 243 -183 388 -339 388c-147 0 -237 -128 -237 -291c0 -210 151 -408 329 -408z" />
    <glyph glyph-name="Omacron" unicode="&#x14c;" horiz-adv-x="814" 
d="M162 798l10 12h465l10 -12h-485zM406 -20c-209 0 -366 169 -366 371c0 203 157 369 366 369c208 0 368 -166 368 -369c0 -202 -160 -371 -368 -371zM447 -1c145 0 247 130 247 311c0 243 -183 388 -339 388c-147 0 -237 -128 -237 -291c0 -210 151 -408 329 -408z" />
    <glyph glyph-name="Oslash" unicode="&#xd8;" horiz-adv-x="814" 
d="M570 682c122 -60 204 -186 204 -331c0 -202 -160 -371 -368 -371c-48 0 -94 9 -135 25l-27 -60h-14l29 65c-131 58 -219 190 -219 341c0 203 157 369 366 369c55 0 107 -12 153 -33l30 68h13zM118 407c0 -139 66 -273 163 -347l255 576c-56 40 -121 62 -181 62
c-147 0 -237 -128 -237 -291zM447 -1c145 0 247 130 247 311c0 143 -64 253 -148 318l-255 -576c47 -33 100 -53 156 -53z" />
    <glyph glyph-name="Otilde" unicode="&#xd5;" horiz-adv-x="814" 
d="M257 778l-11 5s27 85 93 85c70 0 95 -80 160 -80c46 0 60 51 60 51l10 -4s-14 -60 -77 -60s-94 73 -158 73c-54 0 -77 -70 -77 -70zM406 -20c-209 0 -366 169 -366 371c0 203 157 369 366 369c208 0 368 -166 368 -369c0 -202 -160 -371 -368 -371zM447 -1
c145 0 247 130 247 311c0 243 -183 388 -339 388c-147 0 -237 -128 -237 -291c0 -210 151 -408 329 -408z" />
    <glyph glyph-name="OE" unicode="&#x152;" horiz-adv-x="988" 
d="M406 -20c-209 0 -366 169 -366 371c0 203 157 369 366 369c43 0 96 -7 134 -20h271c62 0 117 6 138 17l5 -8c-37 -38 -47 -107 -47 -224l-12 11c0 91 -5 192 -84 192h-125c-70 0 -70 -26 -70 -91v-121c0 -84 5 -102 60 -102h55c74 0 74 28 74 115h12v-267l-12 10
c0 60 0 130 -74 130h-55c-55 0 -60 -20 -60 -80v-157c0 -81 2 -113 75 -113c142 0 234 47 297 163l10 -3l-86 -172h-371c-39 -14 -90 -20 -135 -20zM453 -2c27 0 88 -4 88 47v524c0 86 -102 127 -174 127c-234 0 -249 -190 -249 -288c0 -181 127 -410 335 -410z" />
    <glyph glyph-name="P" unicode="P" horiz-adv-x="585" 
d="M-9 0l20 12h49c78 0 80 32 80 114v471c0 65 0 91 -85 91h-65l20 12h350c81 0 195 -25 195 -164s-115 -201 -224 -201c-49 0 -76 5 -76 5v12s25 -5 56 -5c77 0 165 36 165 175s-123 166 -168 166c-85 0 -93 -5 -93 -121v-442c0 -81 2 -113 75 -113h56l20 -12h-375z" />
    <glyph glyph-name="Thorn" unicode="&#xde;" horiz-adv-x="553" 
d="M-10 0l20 12h51c68 0 70 32 70 114v471c0 65 0 91 -75 91h-66l20 12h327l10 -12h-71c-70 0 -70 -26 -70 -91v-38h97c121 0 220 -44 220 -163c0 -139 -105 -201 -234 -201c-39 0 -66 5 -66 5v12s35 -5 66 -5c83 0 155 26 155 175c0 89 -40 164 -138 164
c-100 0 -100 -43 -100 -140v-281c0 -81 2 -113 75 -113h56l10 -12h-357z" />
    <glyph glyph-name="Q" unicode="Q" horiz-adv-x="829" 
d="M684 -123c-287 0 -644 177 -644 476c0 196 153 366 366 366c208 0 368 -165 368 -368c0 -184 -133 -339 -314 -365c49 -37 308 -144 607 14h12c-130 -84 -261 -123 -395 -123zM440 1c151 0 254 126 254 306c0 223 -159 396 -322 396c-144 0 -254 -136 -254 -315
c0 -202 140 -387 322 -387z" />
    <glyph glyph-name="R" unicode="R" horiz-adv-x="665" 
d="M733 -70c-293 0 -326 422 -463 439l-9 13c109 -13 215 8 215 140c0 139 -93 166 -168 166c-84 0 -93 -4 -93 -91v-472c0 -81 2 -113 75 -113h56l10 -12h-366l20 12h50c78 0 80 32 80 114v471c0 65 0 91 -85 91h-65l20 12h350c81 0 195 -25 195 -164
c0 -104 -111 -163 -215 -168c188 -51 206 -426 410 -426h25l10 -12h-52z" />
    <glyph glyph-name="Racute" unicode="&#x154;" horiz-adv-x="665" 
d="M127 774v12l356 53l13 -19zM733 -70c-293 0 -326 422 -463 439l-9 13c109 -13 215 8 215 140c0 139 -93 166 -168 166c-84 0 -93 -4 -93 -91v-472c0 -81 2 -113 75 -113h56l10 -12h-366l20 12h50c78 0 80 32 80 114v471c0 65 0 91 -85 91h-65l20 12h350
c81 0 195 -25 195 -164c0 -104 -111 -163 -215 -168c188 -51 206 -426 410 -426h25l10 -12h-52z" />
    <glyph glyph-name="Rcaron" unicode="&#x158;" horiz-adv-x="665" 
d="M94 885h40l173 -111l171 111h40l-211 -125zM733 -70c-293 0 -326 422 -463 439l-9 13c109 -13 215 8 215 140c0 139 -93 166 -168 166c-84 0 -93 -4 -93 -91v-472c0 -81 2 -113 75 -113h56l10 -12h-366l20 12h50c78 0 80 32 80 114v471c0 65 0 91 -85 91h-65l20 12h350
c81 0 195 -25 195 -164c0 -104 -111 -163 -215 -168c188 -51 206 -426 410 -426h25l10 -12h-52z" />
    <glyph glyph-name="uni0156" unicode="&#x156;" horiz-adv-x="665" 
d="M733 -70c-293 0 -326 422 -463 439l-9 13c109 -13 215 8 215 140c0 139 -93 166 -168 166c-84 0 -93 -4 -93 -91v-472c0 -81 2 -113 75 -113h56l10 -12h-366l20 12h50c78 0 80 32 80 114v471c0 65 0 91 -85 91h-65l20 12h350c81 0 195 -25 195 -164
c0 -104 -111 -163 -215 -168c188 -51 206 -426 410 -426h25l10 -12h-52zM251 -251v11c60 21 91 66 91 111c0 31 -20 32 -20 58c0 12 22 37 34 37c13 0 33 -25 33 -37c0 -82 -46 -148 -138 -180z" />
    <glyph glyph-name="S" unicode="S" horiz-adv-x="611" 
d="M313 -20c-117 0 -231 83 -231 91l-12 219l12 10c10 -141 63 -308 233 -308c134 0 178 74 178 138c0 223 -397 211 -397 424c0 133 116 166 215 166c88 0 187 -35 238 -22l3 -9c-50 -28 -72 -97 -96 -210l-9 12c31 145 12 217 -135 217c-83 0 -163 -24 -163 -117
c0 -173 412 -190 412 -409c0 -142 -114 -202 -248 -202z" />
    <glyph glyph-name="Sacute" unicode="&#x15a;" horiz-adv-x="611" 
d="M132 790v12l356 53l13 -19zM313 -20c-117 0 -231 83 -231 91l-12 219l12 10c10 -141 63 -308 233 -308c134 0 178 74 178 138c0 223 -397 211 -397 424c0 133 116 166 215 166c88 0 187 -35 238 -22l3 -9c-50 -28 -72 -97 -96 -210l-9 12c31 145 12 217 -135 217
c-83 0 -163 -24 -163 -117c0 -173 412 -190 412 -409c0 -142 -114 -202 -248 -202z" />
    <glyph glyph-name="Scaron" unicode="&#x160;" horiz-adv-x="611" 
d="M99 901h40l173 -111l171 111h40l-211 -125zM313 -20c-117 0 -231 83 -231 91l-12 219l12 10c10 -141 63 -308 233 -308c134 0 178 74 178 138c0 223 -397 211 -397 424c0 133 116 166 215 166c88 0 187 -35 238 -22l3 -9c-50 -28 -72 -97 -96 -210l-9 12
c31 145 12 217 -135 217c-83 0 -163 -24 -163 -117c0 -173 412 -190 412 -409c0 -142 -114 -202 -248 -202z" />
    <glyph glyph-name="Scedilla" unicode="&#x15e;" horiz-adv-x="611" 
d="M561 182c0 -137 -106 -198 -235 -202l-73 -84c18 20 46 45 88 45c37 0 79 -26 79 -76c0 -58 -58 -91 -104 -91c-61 0 -80 39 -91 64l11 5c11 -28 30 -54 66 -54c40 0 68 42 68 80c0 33 -13 58 -43 58c-36 0 -74 -47 -74 -47l-17 12l75 88c-116 1 -229 83 -229 91l-12 219
l12 10c10 -141 63 -308 233 -308c134 0 178 74 178 138c0 223 -397 211 -397 424c0 133 116 166 215 166c88 0 187 -35 238 -22l3 -9c-50 -28 -72 -97 -96 -210l-9 12c31 145 12 217 -135 217c-83 0 -163 -24 -163 -117c0 -173 412 -190 412 -409z" />
    <glyph glyph-name="uni0218" unicode="&#x218;" horiz-adv-x="611" 
d="M313 -20c-117 0 -231 83 -231 91l-12 219l12 10c10 -141 63 -308 233 -308c134 0 178 74 178 138c0 223 -397 211 -397 424c0 133 116 166 215 166c88 0 187 -35 238 -22l3 -9c-50 -28 -72 -97 -96 -210l-9 12c31 145 12 217 -135 217c-83 0 -163 -24 -163 -117
c0 -173 412 -190 412 -409c0 -142 -114 -202 -248 -202zM220 -269v11c60 21 91 66 91 111c0 31 -20 32 -20 58c0 12 22 37 34 37c13 0 33 -25 33 -37c0 -82 -46 -148 -138 -180z" />
    <glyph glyph-name="uni1E9E" unicode="&#x1e9e;" horiz-adv-x="757" 
d="M502 -20c-103 0 -204 83 -205 91l-14 219l12 10c6 -141 40 -308 209 -308c101 0 138 81 138 137c0 187 -274 183 -274 303s203 145 205 219c1 41 -51 37 -117 37c-78 0 -240 -37 -240 -188v-375c0 -81 2 -113 55 -113h26l20 -12h-327l20 12h61c68 0 70 32 70 114v374
c0 130 114 200 314 200h226c-82 -119 -277 -154 -277 -250c0 -115 318 -107 318 -291c0 -137 -119 -179 -220 -179z" />
    <glyph glyph-name="T" unicode="T" horiz-adv-x="637" 
d="M127 0l20 12h61c68 0 70 32 70 114v471c0 65 0 91 -75 91h-80c-90 0 -90 -136 -90 -194l-12 -4c0 107 -4 181 -41 219l5 8c21 -11 76 -17 138 -17h391c62 0 117 6 138 17l5 -8c-37 -38 -42 -112 -42 -219l-12 4c0 58 -1 194 -89 194h-91c-70 0 -70 -26 -70 -91v-472
c0 -81 2 -113 75 -113h56l20 -12h-377z" />
    <glyph glyph-name="Tbar" unicode="&#x166;" horiz-adv-x="637" 
d="M652 717l5 -8c-37 -38 -42 -112 -42 -219l-12 4s10 194 -89 194h-91c-70 0 -70 -26 -70 -91v-217h124l20 -12h-144v-243c0 -81 2 -113 75 -113h56l10 -12h-357l10 12h61c68 0 70 32 70 114v242h-145l20 12h125v217c0 65 0 91 -75 91h-80c-99 0 -88 -194 -90 -194l-11 -4
c0 107 -5 181 -42 219l5 8c21 -11 76 -17 138 -17h391c62 0 117 6 138 17z" />
    <glyph glyph-name="Tcaron" unicode="&#x164;" horiz-adv-x="637" 
d="M104 885h40l173 -111l171 111h40l-211 -125zM127 0l20 12h61c68 0 70 32 70 114v471c0 65 0 91 -75 91h-80c-90 0 -90 -136 -90 -194l-12 -4c0 107 -4 181 -41 219l5 8c21 -11 76 -17 138 -17h391c62 0 117 6 138 17l5 -8c-37 -38 -42 -112 -42 -219l-12 4
c0 58 -1 194 -89 194h-91c-70 0 -70 -26 -70 -91v-472c0 -81 2 -113 75 -113h56l20 -12h-377z" />
    <glyph glyph-name="uni0162" unicode="&#x162;" horiz-adv-x="637" 
d="M652 717l5 -8c-37 -38 -42 -112 -42 -219l-12 4c0 58 -1 194 -89 194h-91c-70 0 -70 -26 -70 -91v-472c0 -81 2 -113 75 -113h56l20 -12h-190l-75 -86c18 20 46 45 88 45c37 0 79 -26 79 -76c0 -58 -58 -91 -104 -91c-61 0 -80 39 -91 64l11 5c11 -28 30 -54 66 -54
c40 0 68 42 68 80c0 33 -13 58 -43 58c-36 0 -74 -47 -74 -47l-17 12l77 90h-172l20 12h61c68 0 70 32 70 114v471c0 65 0 91 -75 91h-80c-90 0 -90 -136 -90 -194l-12 -4c0 107 -4 181 -41 219l5 8c21 -11 76 -17 138 -17h391c62 0 117 6 138 17z" />
    <glyph glyph-name="uni021A" unicode="&#x21a;" horiz-adv-x="637" 
d="M127 0l20 12h61c68 0 70 32 70 114v471c0 65 0 91 -75 91h-80c-90 0 -90 -136 -90 -194l-12 -4c0 107 -4 181 -41 219l5 8c21 -11 76 -17 138 -17h391c62 0 117 6 138 17l5 -8c-37 -38 -42 -112 -42 -219l-12 4c0 58 -1 194 -89 194h-91c-70 0 -70 -26 -70 -91v-472
c0 -81 2 -113 75 -113h56l20 -12h-377zM206 -251v11c60 21 91 66 91 111c0 31 -20 32 -20 58c0 12 22 37 34 37c13 0 33 -25 33 -37c0 -82 -46 -148 -138 -180z" />
    <glyph glyph-name="U" unicode="U" horiz-adv-x="752" 
d="M389 -20c-161 0 -269 91 -269 266v351c0 65 0 91 -86 91h-64l20 12h366l20 -12h-111c-70 0 -70 -26 -70 -91v-323c0 -138 40 -273 221 -273s224 133 224 266v320c0 98 -10 101 -112 101h-152l20 12h396l20 -12h-64c-89 0 -96 -3 -96 -101v-320c0 -126 -34 -287 -263 -287
z" />
    <glyph glyph-name="Uacute" unicode="&#xda;" horiz-adv-x="752" 
d="M209 774v12l356 53l13 -19zM389 -20c-161 0 -269 91 -269 266v351c0 65 0 91 -86 91h-64l20 12h366l20 -12h-111c-70 0 -70 -26 -70 -91v-323c0 -138 40 -273 221 -273s224 133 224 266v320c0 98 -10 101 -112 101h-152l20 12h396l20 -12h-64c-89 0 -96 -3 -96 -101v-320
c0 -126 -34 -287 -263 -287z" />
    <glyph glyph-name="Ucircumflex" unicode="&#xdb;" horiz-adv-x="752" 
d="M174 768l213 125l211 -125h-40l-171 111l-173 -111h-40zM389 -20c-161 0 -269 91 -269 266v351c0 65 0 91 -86 91h-64l20 12h366l20 -12h-111c-70 0 -70 -26 -70 -91v-323c0 -138 40 -273 221 -273s224 133 224 266v320c0 98 -10 101 -112 101h-152l20 12h396l20 -12h-64
c-89 0 -96 -3 -96 -101v-320c0 -126 -34 -287 -263 -287z" />
    <glyph glyph-name="Udieresis" unicode="&#xdc;" horiz-adv-x="752" 
d="M288 770c-16 0 -41 25 -41 39c0 17 25 42 41 42c15 0 40 -25 40 -42c0 -14 -25 -39 -40 -39zM489 770c-16 0 -41 25 -41 39c0 17 25 42 41 42c15 0 40 -25 40 -42c0 -14 -25 -39 -40 -39zM389 -20c-161 0 -269 91 -269 266v351c0 65 0 91 -86 91h-64l20 12h366l20 -12
h-111c-70 0 -70 -26 -70 -91v-323c0 -138 40 -273 221 -273s224 133 224 266v320c0 98 -10 101 -112 101h-152l20 12h396l20 -12h-64c-89 0 -96 -3 -96 -101v-320c0 -126 -34 -287 -263 -287z" />
    <glyph glyph-name="Ugrave" unicode="&#xd9;" horiz-adv-x="752" 
d="M569 774l-369 46l13 19l356 -53v-12zM389 -20c-161 0 -269 91 -269 266v351c0 65 0 91 -86 91h-64l20 12h366l20 -12h-111c-70 0 -70 -26 -70 -91v-323c0 -138 40 -273 221 -273s224 133 224 266v320c0 98 -10 101 -112 101h-152l20 12h396l20 -12h-64
c-89 0 -96 -3 -96 -101v-320c0 -126 -34 -287 -263 -287z" />
    <glyph glyph-name="Uhungarumlaut" unicode="&#x170;" horiz-adv-x="752" 
d="M313 770c18 22 49 54 49 82c0 22 -11 35 -11 53c0 16 15 33 27 33c13 0 31 -17 31 -37c0 -35 -54 -98 -80 -131h-16zM413 770c18 22 49 54 49 82c0 22 -11 35 -11 53c0 16 15 33 27 33c13 0 31 -17 31 -37c0 -35 -54 -98 -80 -131h-16zM389 -20c-161 0 -269 91 -269 266
v351c0 65 0 91 -86 91h-64l20 12h366l20 -12h-111c-70 0 -70 -26 -70 -91v-323c0 -138 40 -273 221 -273s224 133 224 266v320c0 98 -10 101 -112 101h-152l20 12h396l20 -12h-64c-89 0 -96 -3 -96 -101v-320c0 -126 -34 -287 -263 -287z" />
    <glyph glyph-name="Umacron" unicode="&#x16a;" horiz-adv-x="752" 
d="M141 798l10 12h465l10 -12h-485zM389 -20c-161 0 -269 91 -269 266v351c0 65 0 91 -86 91h-64l20 12h366l20 -12h-111c-70 0 -70 -26 -70 -91v-323c0 -138 40 -273 221 -273s224 133 224 266v320c0 98 -10 101 -112 101h-152l20 12h396l20 -12h-64c-89 0 -96 -3 -96 -101
v-320c0 -126 -34 -287 -263 -287z" />
    <glyph glyph-name="Uogonek" unicode="&#x172;" horiz-adv-x="752" 
d="M792 700l20 -12h-64c-89 0 -96 -3 -96 -101v-320c0 -99 -21 -220 -142 -267h2c-55 -22 -86 -61 -86 -112c0 -44 23 -74 64 -75c37 -1 62 30 62 64h12c0 -46 -35 -85 -92 -85c-56 0 -97 42 -97 93s38 82 77 100c-19 -3 -40 -5 -63 -5c-161 0 -269 91 -269 266v351
c0 65 0 91 -86 91h-64l20 12h366l20 -12h-111c-70 0 -70 -26 -70 -91v-323c0 -138 40 -273 221 -273s224 133 224 266v320c0 98 -10 101 -112 101h-152l20 12h396z" />
    <glyph glyph-name="Uring" unicode="&#x16e;" horiz-adv-x="752" 
d="M386 740c-55 0 -99 43 -99 98s44 98 99 98s99 -43 99 -98s-44 -98 -99 -98zM385 752c49 0 80 38 80 85s-31 87 -80 87s-78 -40 -78 -87s29 -85 78 -85zM389 -20c-161 0 -269 91 -269 266v351c0 65 0 91 -86 91h-64l20 12h366l20 -12h-111c-70 0 -70 -26 -70 -91v-323
c0 -138 40 -273 221 -273s224 133 224 266v320c0 98 -10 101 -112 101h-152l20 12h396l20 -12h-64c-89 0 -96 -3 -96 -101v-320c0 -126 -34 -287 -263 -287z" />
    <glyph glyph-name="Utilde" unicode="&#x168;" horiz-adv-x="752" 
d="M236 778l-11 5s27 85 93 85c70 0 95 -80 160 -80c46 0 60 51 60 51l10 -4s-14 -60 -77 -60s-94 73 -158 73c-54 0 -77 -70 -77 -70zM389 -20c-161 0 -269 91 -269 266v351c0 65 0 91 -86 91h-64l20 12h366l20 -12h-111c-70 0 -70 -26 -70 -91v-323
c0 -138 40 -273 221 -273s224 133 224 266v320c0 98 -10 101 -112 101h-152l20 12h396l20 -12h-64c-89 0 -96 -3 -96 -101v-320c0 -126 -34 -287 -263 -287z" />
    <glyph glyph-name="V" unicode="V" horiz-adv-x="675" 
d="M356 -20l-273 624c-20 47 -42 84 -97 84h-106l10 12h401l20 -12h-101c-60 0 -63 -29 -54 -53l94 -223c111 -262 121 -284 138 -284c10 0 16 7 38 61l174 436c25 63 0 63 -106 63h-182l20 12h453l10 -12h-81c-67 0 -84 -22 -100 -61z" />
    <glyph glyph-name="W" unicode="W" horiz-adv-x="1014" 
d="M359 -20l-276 624c-21 47 -42 84 -97 84h-106l10 12h1234l10 -12h-81c-67 0 -86 -22 -100 -61l-238 -647l-178 447zM393 128c10 0 14 7 36 61l101 253l-69 162c-20 47 -42 84 -97 84h-151c-62 0 -72 -12 -50 -64l90 -212c111 -262 123 -284 140 -284zM575 541l41 103
c13 33 3 44 -42 44c-44 0 -55 -13 -43 -42zM748 128c8 0 11 6 31 61l160 436c23 63 0 63 -106 63h-111c-74 0 -80 -12 -141 -163c149 -386 155 -397 167 -397z" />
    <glyph glyph-name="Wacute" unicode="&#x1e82;" horiz-adv-x="1014" 
d="M371 774v12l356 53l13 -19zM359 -20l-276 624c-21 47 -42 84 -97 84h-106l10 12h1234l10 -12h-81c-67 0 -86 -22 -100 -61l-238 -647l-178 447zM393 128c10 0 14 7 36 61l101 253l-69 162c-20 47 -42 84 -97 84h-151c-62 0 -72 -12 -50 -64l90 -212
c111 -262 123 -284 140 -284zM575 541l41 103c13 33 3 44 -42 44c-44 0 -55 -13 -43 -42zM748 128c8 0 11 6 31 61l160 436c23 63 0 63 -106 63h-111c-74 0 -80 -12 -141 -163c149 -386 155 -397 167 -397z" />
    <glyph glyph-name="Wcircumflex" unicode="&#x174;" horiz-adv-x="1014" 
d="M336 768l213 125l211 -125h-40l-171 111l-173 -111h-40zM359 -20l-276 624c-21 47 -42 84 -97 84h-106l10 12h1234l10 -12h-81c-67 0 -86 -22 -100 -61l-238 -647l-178 447zM393 128c10 0 14 7 36 61l101 253l-69 162c-20 47 -42 84 -97 84h-151c-62 0 -72 -12 -50 -64
l90 -212c111 -262 123 -284 140 -284zM575 541l41 103c13 33 3 44 -42 44c-44 0 -55 -13 -43 -42zM748 128c8 0 11 6 31 61l160 436c23 63 0 63 -106 63h-111c-74 0 -80 -12 -141 -163c149 -386 155 -397 167 -397z" />
    <glyph glyph-name="Wdieresis" unicode="&#x1e84;" horiz-adv-x="1014" 
d="M450 770c-16 0 -41 25 -41 39c0 17 25 42 41 42c15 0 40 -25 40 -42c0 -14 -25 -39 -40 -39zM651 770c-16 0 -41 25 -41 39c0 17 25 42 41 42c15 0 40 -25 40 -42c0 -14 -25 -39 -40 -39zM359 -20l-276 624c-21 47 -42 84 -97 84h-106l10 12h1234l10 -12h-81
c-67 0 -86 -22 -100 -61l-238 -647l-178 447zM393 128c10 0 14 7 36 61l101 253l-69 162c-20 47 -42 84 -97 84h-151c-62 0 -72 -12 -50 -64l90 -212c111 -262 123 -284 140 -284zM575 541l41 103c13 33 3 44 -42 44c-44 0 -55 -13 -43 -42zM748 128c8 0 11 6 31 61l160 436
c23 63 0 63 -106 63h-111c-74 0 -80 -12 -141 -163c149 -386 155 -397 167 -397z" />
    <glyph glyph-name="Wgrave" unicode="&#x1e80;" horiz-adv-x="1014" 
d="M731 774l-369 46l13 19l356 -53v-12zM359 -20l-276 624c-21 47 -42 84 -97 84h-106l10 12h1234l10 -12h-81c-67 0 -86 -22 -100 -61l-238 -647l-178 447zM393 128c10 0 14 7 36 61l101 253l-69 162c-20 47 -42 84 -97 84h-151c-62 0 -72 -12 -50 -64l90 -212
c111 -262 123 -284 140 -284zM575 541l41 103c13 33 3 44 -42 44c-44 0 -55 -13 -43 -42zM748 128c8 0 11 6 31 61l160 436c23 63 0 63 -106 63h-111c-74 0 -80 -12 -141 -163c149 -386 155 -397 167 -397z" />
    <glyph glyph-name="X" unicode="X" horiz-adv-x="676" 
d="M-120 0l20 12h71c58 0 89 18 130 70l206 260l-159 248c-53 82 -72 98 -149 98h-65l20 12h407l20 -12h-121c-54 0 -78 0 -43 -56l127 -201c8 -12 10 -14 13 -14c4 0 5 2 15 15l145 192c38 50 34 64 -85 64h-51l20 12h312l20 -12h-81c-56 0 -80 -15 -124 -72l-163 -213
l189 -292c47 -72 70 -99 116 -99h96l10 -12h-539l20 12h183c54 0 78 0 44 55l-135 216c-22 35 -28 43 -34 43c-5 0 -10 -6 -39 -43l-163 -208c-40 -51 -31 -63 88 -63h15l21 -12h-357z" />
    <glyph glyph-name="Y" unicode="Y" horiz-adv-x="618" 
d="M87 0l20 12h101c68 0 70 32 70 114v189c0 25 -109 206 -164 297c-35 58 -47 76 -118 76h-86l20 12h340l20 -12h-54c-70 0 -79 -7 -3 -138c90 -155 96 -161 105 -161c8 0 12 6 41 50l122 186c39 60 11 63 -95 63h-116l20 12h378l20 -12h-81c-69 0 -84 -20 -113 -65
l-83 -127c-69 -104 -78 -118 -78 -138v-233c0 -81 2 -113 75 -113h116l20 -12h-477z" />
    <glyph glyph-name="Yacute" unicode="&#xdd;" horiz-adv-x="618" 
d="M146 774v12l356 53l13 -19zM87 0l20 12h101c68 0 70 32 70 114v189c0 25 -109 206 -164 297c-35 58 -47 76 -118 76h-86l20 12h340l20 -12h-54c-70 0 -79 -7 -3 -138c90 -155 96 -161 105 -161c8 0 12 6 41 50l122 186c39 60 11 63 -95 63h-116l20 12h378l20 -12h-81
c-69 0 -84 -20 -113 -65l-83 -127c-69 -104 -78 -118 -78 -138v-233c0 -81 2 -113 75 -113h116l20 -12h-477z" />
    <glyph glyph-name="Ycircumflex" unicode="&#x176;" horiz-adv-x="618" 
d="M111 768l213 125l211 -125h-40l-171 111l-173 -111h-40zM87 0l20 12h101c68 0 70 32 70 114v189c0 25 -109 206 -164 297c-35 58 -47 76 -118 76h-86l20 12h340l20 -12h-54c-70 0 -79 -7 -3 -138c90 -155 96 -161 105 -161c8 0 12 6 41 50l122 186c39 60 11 63 -95 63
h-116l20 12h378l20 -12h-81c-69 0 -84 -20 -113 -65l-83 -127c-69 -104 -78 -118 -78 -138v-233c0 -81 2 -113 75 -113h116l20 -12h-477z" />
    <glyph glyph-name="Ydieresis" unicode="&#x178;" horiz-adv-x="618" 
d="M225 770c-16 0 -41 25 -41 39c0 17 25 42 41 42c15 0 40 -25 40 -42c0 -14 -25 -39 -40 -39zM426 770c-16 0 -41 25 -41 39c0 17 25 42 41 42c15 0 40 -25 40 -42c0 -14 -25 -39 -40 -39zM87 0l20 12h101c68 0 70 32 70 114v189c0 25 -109 206 -164 297
c-35 58 -47 76 -118 76h-86l20 12h340l20 -12h-54c-70 0 -79 -7 -3 -138c90 -155 96 -161 105 -161c8 0 12 6 41 50l122 186c39 60 11 63 -95 63h-116l20 12h378l20 -12h-81c-69 0 -84 -20 -113 -65l-83 -127c-69 -104 -78 -118 -78 -138v-233c0 -81 2 -113 75 -113h116
l20 -12h-477z" />
    <glyph glyph-name="Ygrave" unicode="&#x1ef2;" horiz-adv-x="618" 
d="M506 774l-369 46l13 19l356 -53v-12zM87 0l20 12h101c68 0 70 32 70 114v189c0 25 -109 206 -164 297c-35 58 -47 76 -118 76h-86l20 12h340l20 -12h-54c-70 0 -79 -7 -3 -138c90 -155 96 -161 105 -161c8 0 12 6 41 50l122 186c39 60 11 63 -95 63h-116l20 12h378
l20 -12h-81c-69 0 -84 -20 -113 -65l-83 -127c-69 -104 -78 -118 -78 -138v-233c0 -81 2 -113 75 -113h116l20 -12h-477z" />
    <glyph glyph-name="Z" unicode="Z" horiz-adv-x="700" 
d="M20 0l462 589c69 88 47 99 -29 99h-242c-98 0 -98 -138 -98 -197l-12 -11c0 117 -7 191 -40 229l7 8c19 -11 68 -17 123 -17h469l-439 -557c-94 -119 -68 -131 40 -131h146c129 0 180 52 252 233l11 -2l-87 -243h-563z" />
    <glyph glyph-name="Zacute" unicode="&#x179;" horiz-adv-x="700" 
d="M188 774v12l356 53l13 -19zM20 0l462 589c69 88 47 99 -29 99h-242c-98 0 -98 -138 -98 -197l-12 -11c0 117 -7 191 -40 229l7 8c19 -11 68 -17 123 -17h469l-439 -557c-94 -119 -68 -131 40 -131h146c129 0 180 52 252 233l11 -2l-87 -243h-563z" />
    <glyph glyph-name="Zcaron" unicode="&#x17d;" horiz-adv-x="700" 
d="M155 885h40l173 -111l171 111h40l-211 -125zM20 0l462 589c69 88 47 99 -29 99h-242c-98 0 -98 -138 -98 -197l-12 -11c0 117 -7 191 -40 229l7 8c19 -11 68 -17 123 -17h469l-439 -557c-94 -119 -68 -131 40 -131h146c129 0 180 52 252 233l11 -2l-87 -243h-563z" />
    <glyph glyph-name="Zdotaccent" unicode="&#x17b;" horiz-adv-x="700" 
d="M367 748c-34 0 -62 28 -62 62s28 62 62 62s62 -28 62 -62s-28 -62 -62 -62zM20 0l462 589c69 88 47 99 -29 99h-242c-98 0 -98 -138 -98 -197l-12 -11c0 117 -7 191 -40 229l7 8c19 -11 68 -17 123 -17h469l-439 -557c-94 -119 -68 -131 40 -131h146
c129 0 180 52 252 233l11 -2l-87 -243h-563z" />
    <glyph glyph-name="A.ss01" horiz-adv-x="662" 
d="M-120 0l20 12h50c68 0 79 0 112 64c61 118 248 558 248 558s-8 54 -159 54h-136l21 12h514l21 -12h-213l264 -617c18 -43 53 -59 96 -59h54l10 -12h-434l19 12h83c93 0 91 18 34 163c-18 46 -36 43 -91 43h-176c-65 0 -71 0 -103 -65c-61 -123 -50 -141 44 -141h81
l20 -12h-379zM217 230h176c49 0 62 23 41 78l-118 310c-54 -129 -129 -290 -145 -339c-15 -49 9 -49 46 -49z" />
    <glyph glyph-name="G.ss01" horiz-adv-x="767" 
d="M438 -20c-99 0 -202 32 -269 86l-94 -66h-22l106 74c-73 61 -119 161 -119 271c0 199 150 374 374 374c90 0 183 -28 264 -40l3 -10c-50 -28 -77 -112 -96 -201l-10 12c35 144 -22 227 -169 227c-234 0 -278 -201 -278 -304c0 -89 33 -202 94 -285l477 332
s38 -82 38 -171c0 -111 -60 -299 -299 -299zM454 -8c130 0 239 89 239 242c0 196 -177 73 -346 -44l-117 -81c54 -69 129 -117 224 -117z" />
    <glyph glyph-name="O.ss01" horiz-adv-x="814" 
d="M406 -20c-209 0 -366 169 -366 371c0 203 157 369 366 369c208 0 368 -166 368 -369c0 -202 -160 -371 -368 -371zM447 -1c145 0 247 130 247 311c0 243 -183 388 -339 388c-147 0 -237 -128 -237 -291c0 -210 151 -408 329 -408zM413 320c-10 0 -28 17 -28 28
s17 28 28 28c10 0 28 -17 28 -29c0 -9 -18 -27 -28 -27z" />
    <glyph glyph-name="A.ss02" horiz-adv-x="662" 
d="M-120 0l20 12h60c42 0 79 3 106 63l244 559s-8 54 -159 54h-136l21 12h317l269 -629c18 -43 54 -59 96 -59h54l10 -12h-434l19 12h111c42 0 63 0 -3 185c-23 69 -35 81 -80 50c-2 -1 -234 -167 -257 -183c-73 -52 -47 -52 -30 -52h131l20 -12h-379zM132 74
c26 14 23 13 254 183c20 15 53 29 24 115l-94 246c-149 -358 -218 -498 -233 -536c-17 -44 8 -30 49 -8z" />
    <glyph glyph-name="a" unicode="a" horiz-adv-x="486" 
d="M152 -20c-67 0 -112 36 -112 96c0 83 85 115 173 149c60 23 114 55 114 98s-1 167 -91 167c-71 0 -122 -76 -107 -192l-12 -5l-48 141s63 68 181 68c146 0 146 -103 146 -204v-219c0 -53 19 -67 64 -67h41l20 -12h-195v105s-49 -125 -174 -125zM191 13
c92 0 135 110 135 137v136c-15 -33 -63 -54 -109 -73c-56 -23 -104 -39 -104 -111c0 -45 19 -89 78 -89z" />
    <glyph glyph-name="aacute" unicode="&#xe1;" horiz-adv-x="486" 
d="M85 567v12l292 80l17 -17zM152 -20c-67 0 -112 36 -112 96c0 83 85 115 173 149c60 23 114 55 114 98s-1 167 -91 167c-71 0 -122 -76 -107 -192l-12 -5l-48 141s63 68 181 68c146 0 146 -103 146 -204v-219c0 -53 19 -67 64 -67h41l20 -12h-195v105s-49 -125 -174 -125z
M191 13c92 0 135 110 135 137v136c-15 -33 -63 -54 -109 -73c-56 -23 -104 -39 -104 -111c0 -45 19 -89 78 -89z" />
    <glyph glyph-name="abreve" unicode="&#x103;" horiz-adv-x="486" 
d="M240 547c-68 0 -122 48 -122 135h13c0 -74 59 -113 109 -113c53 0 110 39 110 113h12c0 -87 -53 -135 -122 -135zM152 -20c-67 0 -112 36 -112 96c0 83 85 115 173 149c60 23 114 55 114 98s-1 167 -91 167c-71 0 -122 -76 -107 -192l-12 -5l-48 141s63 68 181 68
c146 0 146 -103 146 -204v-219c0 -53 19 -67 64 -67h41l20 -12h-195v105s-49 -125 -174 -125zM191 13c92 0 135 110 135 137v136c-15 -33 -63 -54 -109 -73c-56 -23 -104 -39 -104 -111c0 -45 19 -89 78 -89z" />
    <glyph glyph-name="acircumflex" unicode="&#xe2;" horiz-adv-x="486" 
d="M65 558l175 111l172 -111h-39l-133 94l-134 -94h-41zM152 -20c-67 0 -112 36 -112 96c0 83 85 115 173 149c60 23 114 55 114 98s-1 167 -91 167c-71 0 -122 -76 -107 -192l-12 -5l-48 141s63 68 181 68c146 0 146 -103 146 -204v-219c0 -53 19 -67 64 -67h41l20 -12
h-195v105s-49 -125 -174 -125zM191 13c92 0 135 110 135 137v136c-15 -33 -63 -54 -109 -73c-56 -23 -104 -39 -104 -111c0 -45 19 -89 78 -89z" />
    <glyph glyph-name="adieresis" unicode="&#xe4;" horiz-adv-x="486" 
d="M154 594c-17 0 -44 27 -44 42c0 19 27 46 44 46c16 0 43 -27 43 -46c0 -15 -27 -42 -43 -42zM325 594c-17 0 -44 27 -44 42c0 19 27 46 44 46s43 -27 43 -46c0 -15 -26 -42 -43 -42zM152 -20c-67 0 -112 36 -112 96c0 83 85 115 173 149c60 23 114 55 114 98
s-1 167 -91 167c-71 0 -122 -76 -107 -192l-12 -5l-48 141s63 68 181 68c146 0 146 -103 146 -204v-219c0 -53 19 -67 64 -67h41l20 -12h-195v105s-49 -125 -174 -125zM191 13c92 0 135 110 135 137v136c-15 -33 -63 -54 -109 -73c-56 -23 -104 -39 -104 -111
c0 -45 19 -89 78 -89z" />
    <glyph glyph-name="agrave" unicode="&#xe0;" horiz-adv-x="486" 
d="M404 572l-331 82l18 18l313 -87v-13zM152 -20c-67 0 -112 36 -112 96c0 83 85 115 173 149c60 23 114 55 114 98s-1 167 -91 167c-71 0 -122 -76 -107 -192l-12 -5l-48 141s63 68 181 68c146 0 146 -103 146 -204v-219c0 -53 19 -67 64 -67h41l20 -12h-195v105
s-49 -125 -174 -125zM191 13c92 0 135 110 135 137v136c-15 -33 -63 -54 -109 -73c-56 -23 -104 -39 -104 -111c0 -45 19 -89 78 -89z" />
    <glyph glyph-name="amacron" unicode="&#x101;" horiz-adv-x="486" 
d="M13 630v13h445v-13h-445zM152 -20c-67 0 -112 36 -112 96c0 83 85 115 173 149c60 23 114 55 114 98s-1 167 -91 167c-71 0 -122 -76 -107 -192l-12 -5l-48 141s63 68 181 68c146 0 146 -103 146 -204v-219c0 -53 19 -67 64 -67h41l20 -12h-195v105s-49 -125 -174 -125z
M191 13c92 0 135 110 135 137v136c-15 -33 -63 -54 -109 -73c-56 -23 -104 -39 -104 -111c0 -45 19 -89 78 -89z" />
    <glyph glyph-name="aogonek" unicode="&#x105;" horiz-adv-x="486" 
d="M516 -134h13c0 -50 -38 -92 -99 -92c-60 0 -104 46 -104 101c0 76 75 110 129 125h-129v105s-49 -125 -174 -125c-67 0 -112 36 -112 96c0 83 85 115 173 149c60 23 114 55 114 98s-1 167 -91 167c-71 0 -122 -76 -107 -192l-12 -5l-48 141s63 68 181 68
c146 0 146 -103 146 -204v-219c0 -53 19 -67 64 -67h41l20 -12h-48c-59 -24 -93 -66 -93 -122c0 -47 25 -80 69 -81c40 -1 67 32 67 69zM326 150v136c-15 -33 -63 -54 -109 -73c-56 -23 -104 -39 -104 -111c0 -45 19 -89 78 -89c92 0 135 110 135 137z" />
    <glyph glyph-name="aring" unicode="&#xe5;" horiz-adv-x="486" 
d="M236 545c-59 0 -106 47 -106 107c0 59 47 106 106 106s106 -47 106 -106c0 -60 -47 -107 -106 -107zM235 558c52 0 86 41 86 93c0 51 -34 94 -86 94c-53 0 -84 -43 -84 -94c0 -52 31 -93 84 -93zM152 -20c-67 0 -112 36 -112 96c0 83 85 115 173 149c60 23 114 55 114 98
s-1 167 -91 167c-71 0 -122 -76 -107 -192l-12 -5l-48 141s63 68 181 68c146 0 146 -103 146 -204v-219c0 -53 19 -67 64 -67h41l20 -12h-195v105s-49 -125 -174 -125zM191 13c92 0 135 110 135 137v136c-15 -33 -63 -54 -109 -73c-56 -23 -104 -39 -104 -111
c0 -45 19 -89 78 -89z" />
    <glyph glyph-name="aringacute" unicode="&#x1fb;" horiz-adv-x="486" 
d="M81 752v12l292 80l17 -17zM236 542c-55 0 -99 43 -99 98s44 98 99 98s99 -43 99 -98s-44 -98 -99 -98zM235 554c49 0 80 38 80 85s-31 87 -80 87s-78 -40 -78 -87s29 -85 78 -85zM152 -20c-67 0 -112 36 -112 96c0 83 85 115 173 149c60 23 114 55 114 98s-1 167 -91 167
c-71 0 -122 -76 -107 -192l-12 -5l-48 141s63 68 181 68c146 0 146 -103 146 -204v-219c0 -53 19 -67 64 -67h41l20 -12h-195v105s-49 -125 -174 -125zM191 13c92 0 135 110 135 137v136c-15 -33 -63 -54 -109 -73c-56 -23 -104 -39 -104 -111c0 -45 19 -89 78 -89z" />
    <glyph glyph-name="atilde" unicode="&#xe3;" horiz-adv-x="486" 
d="M86 578l-12 5s24 85 91 85c68 0 89 -77 150 -77c53 0 73 51 73 51l11 -5s-23 -59 -84 -59c-66 0 -95 68 -150 68c-56 0 -79 -68 -79 -68zM152 -20c-67 0 -112 36 -112 96c0 83 85 115 173 149c60 23 114 55 114 98s-1 167 -91 167c-71 0 -122 -76 -107 -192l-12 -5
l-48 141s63 68 181 68c146 0 146 -103 146 -204v-219c0 -53 19 -67 64 -67h41l20 -12h-195v105s-49 -125 -174 -125zM191 13c92 0 135 110 135 137v136c-15 -33 -63 -54 -109 -73c-56 -23 -104 -39 -104 -111c0 -45 19 -89 78 -89z" />
    <glyph glyph-name="ae" unicode="&#xe6;" horiz-adv-x="780" 
d="M564 -20c-81 0 -169 59 -204 150c-1 -2 -80 -148 -209 -148c-64 0 -111 36 -111 99c0 84 97 114 175 143c60 23 114 56 114 99c0 31 11 167 -88 167c-73 0 -127 -67 -112 -192l-12 -5l-48 141s70 68 170 68c98 0 139 -35 154 -92c41 60 98 92 160 92
c90 0 172 -70 197 -179h-344c-12 -152 74 -315 183 -315c90 0 140 82 146 190h11c1 -100 -44 -218 -182 -218zM407 335h268c-31 92 -87 143 -143 143c-96 0 -120 -77 -125 -143zM193 15c91 0 136 91 136 137v137c-10 -30 -60 -56 -109 -76c-54 -20 -107 -39 -107 -107
c0 -48 21 -91 80 -91z" />
    <glyph glyph-name="aeacute" unicode="&#x1fd;" horiz-adv-x="780" 
d="M245 567v12l292 80l17 -17zM564 -20c-81 0 -169 59 -204 150c-1 -2 -80 -148 -209 -148c-64 0 -111 36 -111 99c0 84 97 114 175 143c60 23 114 56 114 99c0 31 11 167 -88 167c-73 0 -127 -67 -112 -192l-12 -5l-48 141s70 68 170 68c98 0 139 -35 154 -92
c41 60 98 92 160 92c90 0 172 -70 197 -179h-344c-12 -152 74 -315 183 -315c90 0 140 82 146 190h11c1 -100 -44 -218 -182 -218zM407 335h268c-31 92 -87 143 -143 143c-96 0 -120 -77 -125 -143zM193 15c91 0 136 91 136 137v137c-10 -30 -60 -56 -109 -76
c-54 -20 -107 -39 -107 -107c0 -48 21 -91 80 -91z" />
    <glyph glyph-name="b" unicode="b" horiz-adv-x="556" 
d="M296 -20c-98 0 -148 63 -165 87l-36 -67h-12v557c0 114 -22 117 -117 87l-6 11l186 65h6v-276c38 34 87 58 144 58c110 0 230 -96 230 -256c0 -163 -120 -266 -230 -266zM313 -6c67 0 138 79 138 223c0 168 -106 257 -189 257c-66 0 -96 -33 -109 -57v-282
c30 -73 82 -141 160 -141z" />
    <glyph glyph-name="c" unicode="c" horiz-adv-x="522" 
d="M288 -20c-134 0 -258 111 -258 264c0 151 124 258 258 258c98 0 177 -58 177 -58l-48 -141l-11 4c9 119 -46 183 -122 183c-149 0 -173 -139 -173 -208c0 -127 85 -274 208 -274c84 0 147 38 182 138l11 -5c-38 -101 -99 -161 -224 -161z" />
    <glyph glyph-name="cacute" unicode="&#x107;" horiz-adv-x="522" 
d="M118 567v13l313 87l18 -18zM288 -20c-134 0 -258 111 -258 264c0 151 124 258 258 258c98 0 177 -58 177 -58l-48 -141l-11 4c9 119 -46 183 -122 183c-149 0 -173 -139 -173 -208c0 -127 85 -274 208 -274c84 0 147 38 182 138l11 -5c-38 -101 -99 -161 -224 -161z" />
    <glyph glyph-name="ccaron" unicode="&#x10d;" horiz-adv-x="522" 
d="M284 551l-175 111h41l134 -95l133 95h39zM288 -20c-134 0 -258 111 -258 264c0 151 124 258 258 258c98 0 177 -58 177 -58l-48 -141l-11 4c9 119 -46 183 -122 183c-149 0 -173 -139 -173 -208c0 -127 85 -274 208 -274c84 0 147 38 182 138l11 -5
c-38 -101 -99 -161 -224 -161z" />
    <glyph glyph-name="ccedilla" unicode="&#xe7;" horiz-adv-x="522" 
d="M288 -20h-1l-83 -96c19 22 49 49 94 49c40 0 85 -29 85 -83c0 -63 -62 -99 -112 -99c-65 0 -85 43 -97 70l12 5c11 -30 32 -58 70 -58c43 0 73 45 73 87c0 35 -14 63 -46 63c-38 0 -79 -52 -79 -52l-18 14l85 101c-127 8 -241 116 -241 263c0 151 124 258 258 258
c98 0 177 -58 177 -58l-48 -141l-11 4c9 119 -46 183 -122 183c-149 0 -173 -139 -173 -208c0 -127 85 -274 208 -274c84 0 147 38 182 138l11 -5c-38 -101 -99 -161 -224 -161z" />
    <glyph glyph-name="ccircumflex" unicode="&#x109;" horiz-adv-x="522" 
d="M121 548l163 102l161 -102h-37l-124 87l-125 -87h-38zM288 -20c-134 0 -258 111 -258 264c0 151 124 258 258 258c98 0 177 -58 177 -58l-48 -141l-11 4c9 119 -46 183 -122 183c-149 0 -173 -139 -173 -208c0 -127 85 -274 208 -274c84 0 147 38 182 138l11 -5
c-38 -101 -99 -161 -224 -161z" />
    <glyph glyph-name="cdotaccent" unicode="&#x10b;" horiz-adv-x="522" 
d="M280 576c-36 0 -66 30 -66 67s30 68 66 68c37 0 67 -31 67 -68s-30 -67 -67 -67zM288 -20c-134 0 -258 111 -258 264c0 151 124 258 258 258c98 0 177 -58 177 -58l-48 -141l-11 4c9 119 -46 183 -122 183c-149 0 -173 -139 -173 -208c0 -127 85 -274 208 -274
c84 0 147 38 182 138l11 -5c-38 -101 -99 -161 -224 -161z" />
    <glyph glyph-name="d" unicode="d" horiz-adv-x="580" 
d="M266 -20c-140 0 -236 111 -236 264c0 151 117 258 229 258c69 0 121 -29 156 -79v134c0 114 -22 118 -122 84l-6 11l192 68h6v-641c0 -53 19 -67 64 -67h41l20 -12h-194v61c-36 -50 -87 -81 -150 -81zM294 -2c49 0 99 40 121 120v197c-29 110 -107 170 -172 170
c-130 0 -140 -132 -140 -203c0 -127 62 -284 191 -284z" />
    <glyph glyph-name="eth" unicode="&#xf0;" horiz-adv-x="554" 
d="M271 -19c-95 0 -241 58 -241 238c0 252 332 346 426 91c0 136 -74 280 -181 363l-202 -104l-6 12l196 101c-57 41 -126 67 -206 65l-2 13c93 3 175 -19 245 -59l208 107l7 -19l-202 -96c114 -72 189 -191 206 -316c31 -224 -92 -396 -248 -396zM269 -8
c133 0 182 130 187 270c-65 272 -341 223 -341 -65c0 -149 90 -205 154 -205z" />
    <glyph glyph-name="dcaron" unicode="&#x10f;" horiz-adv-x="580" 
d="M589 740c13 2 37 -19 39 -31c10 -62 -10 -125 -85 -173l-2 11c46 31 60 71 51 105c-6 23 -26 20 -30 46c-2 12 15 40 27 42zM266 -20c-140 0 -236 111 -236 264c0 151 117 258 229 258c69 0 121 -29 156 -79v134c0 114 -22 118 -122 84l-6 11l192 68h6v-641
c0 -53 19 -67 64 -67h41l20 -12h-194v61c-36 -50 -87 -81 -150 -81zM294 -2c49 0 99 40 121 120v197c-29 110 -107 170 -172 170c-130 0 -140 -132 -140 -203c0 -127 62 -284 191 -284z" />
    <glyph glyph-name="dcroat" unicode="&#x111;" horiz-adv-x="580" 
d="M610 0h-194v61c-36 -50 -87 -81 -150 -81c-140 0 -236 111 -236 264c0 151 117 258 229 258c69 0 121 -29 156 -79v131h-163l11 12h152c-1 105 -25 108 -122 75l-6 11l192 68h6v-154h78l11 -12h-89v-475c0 -53 19 -67 64 -67h41zM415 118v197c-29 110 -107 170 -172 170
c-130 0 -140 -132 -140 -203c0 -127 62 -284 191 -284c49 0 99 40 121 120z" />
    <glyph glyph-name="e" unicode="e" horiz-adv-x="513" 
d="M275 -20c-137 0 -245 112 -245 262c0 154 114 260 236 260c99 0 188 -71 217 -180h-380c-11 -150 72 -314 205 -314c98 0 159 88 159 193h12c2 -129 -79 -221 -204 -221zM104 334h294c-34 92 -98 149 -166 149c-85 0 -121 -83 -128 -149z" />
    <glyph glyph-name="eacute" unicode="&#xe9;" horiz-adv-x="513" 
d="M100 573v13l313 87l18 -18zM275 -20c-137 0 -245 112 -245 262c0 154 114 260 236 260c99 0 188 -71 217 -180h-380c-11 -150 72 -314 205 -314c98 0 159 88 159 193h12c2 -129 -79 -221 -204 -221zM104 334h294c-34 92 -98 149 -166 149c-85 0 -121 -83 -128 -149z" />
    <glyph glyph-name="ecaron" unicode="&#x11b;" horiz-adv-x="513" 
d="M266 557l-175 111h41l134 -95l133 95h39zM275 -20c-137 0 -245 112 -245 262c0 154 114 260 236 260c99 0 188 -71 217 -180h-380c-11 -150 72 -314 205 -314c98 0 159 88 159 193h12c2 -129 -79 -221 -204 -221zM104 334h294c-34 92 -98 149 -166 149
c-85 0 -121 -83 -128 -149z" />
    <glyph glyph-name="ecircumflex" unicode="&#xea;" horiz-adv-x="513" 
d="M91 559l175 111l172 -111h-39l-133 94l-134 -94h-41zM275 -20c-137 0 -245 112 -245 262c0 154 114 260 236 260c99 0 188 -71 217 -180h-380c-11 -150 72 -314 205 -314c98 0 159 88 159 193h12c2 -129 -79 -221 -204 -221zM104 334h294c-34 92 -98 149 -166 149
c-85 0 -121 -83 -128 -149z" />
    <glyph glyph-name="edieresis" unicode="&#xeb;" horiz-adv-x="513" 
d="M180 595c-17 0 -44 27 -44 42c0 19 27 46 44 46c16 0 43 -27 43 -46c0 -15 -27 -42 -43 -42zM351 595c-17 0 -44 27 -44 42c0 19 27 46 44 46s43 -27 43 -46c0 -15 -26 -42 -43 -42zM275 -20c-137 0 -245 112 -245 262c0 154 114 260 236 260c99 0 188 -71 217 -180h-380
c-11 -150 72 -314 205 -314c98 0 159 88 159 193h12c2 -129 -79 -221 -204 -221zM104 334h294c-34 92 -98 149 -166 149c-85 0 -121 -83 -128 -149z" />
    <glyph glyph-name="edotaccent" unicode="&#x117;" horiz-adv-x="513" 
d="M262 582c-36 0 -66 30 -66 67s30 68 66 68c37 0 67 -31 67 -68s-30 -67 -67 -67zM275 -20c-137 0 -245 112 -245 262c0 154 114 260 236 260c99 0 188 -71 217 -180h-380c-11 -150 72 -314 205 -314c98 0 159 88 159 193h12c2 -129 -79 -221 -204 -221zM104 334h294
c-34 92 -98 149 -166 149c-85 0 -121 -83 -128 -149z" />
    <glyph glyph-name="egrave" unicode="&#xe8;" horiz-adv-x="513" 
d="M430 573l-331 82l18 18l313 -87v-13zM275 -20c-137 0 -245 112 -245 262c0 154 114 260 236 260c99 0 188 -71 217 -180h-380c-11 -150 72 -314 205 -314c98 0 159 88 159 193h12c2 -129 -79 -221 -204 -221zM104 334h294c-34 92 -98 149 -166 149
c-85 0 -121 -83 -128 -149z" />
    <glyph glyph-name="emacron" unicode="&#x113;" horiz-adv-x="513" 
d="M39 631v13h445v-13h-445zM275 -20c-137 0 -245 112 -245 262c0 154 114 260 236 260c99 0 188 -71 217 -180h-380c-11 -150 72 -314 205 -314c98 0 159 88 159 193h12c2 -129 -79 -221 -204 -221zM104 334h294c-34 92 -98 149 -166 149c-85 0 -121 -83 -128 -149z" />
    <glyph glyph-name="eogonek" unicode="&#x119;" horiz-adv-x="513" 
d="M467 201h12c2 -105 -52 -186 -140 -212h3c-59 -24 -93 -66 -93 -122c0 -47 25 -80 69 -81c40 -1 67 32 67 69h13c0 -50 -38 -92 -99 -92c-60 0 -104 46 -104 101c0 65 55 99 105 117c-8 -1 -17 -1 -25 -1c-137 0 -245 112 -245 262c0 154 114 260 236 260
c99 0 188 -71 217 -180h-380c-11 -150 72 -314 205 -314c98 0 159 88 159 193zM232 483c-85 0 -121 -83 -128 -149h294c-34 92 -98 149 -166 149z" />
    <glyph glyph-name="f" unicode="f" horiz-adv-x="345" 
d="M-10 0l20 12h37c45 0 63 14 63 67v316h-104l11 12c88 0 92 34 92 85c0 151 108 258 231 258c65 0 105 -33 105 -33l-52 -156l-11 2c17 111 -9 166 -76 166c-111 0 -127 -124 -127 -199v-123h118l22 -12h-139v-316c0 -53 18 -67 64 -67h69l22 -12h-345z" />
    <glyph glyph-name="g" unicode="g" horiz-adv-x="538" 
d="M200 -235c-85 0 -150 37 -150 114c0 64 52 122 111 146c-41 0 -92 22 -92 77c0 45 49 80 68 93c-43 28 -73 75 -73 137c0 103 90 170 189 170c94 0 101 -12 265 -12v-145l-12 -8c0 89 -39 144 -100 144c-25 0 -43 -9 -43 -9c45 -30 74 -79 74 -140
c0 -111 -101 -171 -189 -171c-34 0 -69 10 -100 27c-26 -24 -30 -40 -30 -57c0 -38 36 -52 95 -52h102c91 0 154 -28 154 -104c0 -107 -121 -210 -269 -210zM268 175c64 0 94 64 94 139c0 111 -70 174 -129 174c-79 0 -95 -84 -95 -128c0 -84 46 -185 130 -185zM246 -210
c87 0 175 54 175 138c0 66 -43 97 -129 97h-88c-50 0 -86 -47 -86 -105c0 -69 39 -130 128 -130z" />
    <glyph glyph-name="gbreve" unicode="&#x11f;" horiz-adv-x="538" 
d="M254 547c-68 0 -122 48 -122 135h13c0 -74 59 -113 109 -113c53 0 110 39 110 113h12c0 -87 -53 -135 -122 -135zM200 -235c-85 0 -150 37 -150 114c0 64 52 122 111 146c-41 0 -92 22 -92 77c0 45 49 80 68 93c-43 28 -73 75 -73 137c0 103 90 170 189 170
c94 0 101 -12 265 -12v-145l-12 -8c0 89 -39 144 -100 144c-25 0 -43 -9 -43 -9c45 -30 74 -79 74 -140c0 -111 -101 -171 -189 -171c-34 0 -69 10 -100 27c-26 -24 -30 -40 -30 -57c0 -38 36 -52 95 -52h102c91 0 154 -28 154 -104c0 -107 -121 -210 -269 -210zM268 175
c64 0 94 64 94 139c0 111 -70 174 -129 174c-79 0 -95 -84 -95 -128c0 -84 46 -185 130 -185zM246 -210c87 0 175 54 175 138c0 66 -43 97 -129 97h-88c-50 0 -86 -47 -86 -105c0 -69 39 -130 128 -130z" />
    <glyph glyph-name="gcaron" unicode="&#x1e7;" horiz-adv-x="538" 
d="M254 552l-163 102h38l125 -87l124 87h37zM200 -235c-85 0 -150 37 -150 114c0 64 52 122 111 146c-41 0 -92 22 -92 77c0 45 49 80 68 93c-43 28 -73 75 -73 137c0 103 90 170 189 170c94 0 101 -12 265 -12v-145l-12 -8c0 89 -39 144 -100 144c-25 0 -43 -9 -43 -9
c45 -30 74 -79 74 -140c0 -111 -101 -171 -189 -171c-34 0 -69 10 -100 27c-26 -24 -30 -40 -30 -57c0 -38 36 -52 95 -52h102c91 0 154 -28 154 -104c0 -107 -121 -210 -269 -210zM268 175c64 0 94 64 94 139c0 111 -70 174 -129 174c-79 0 -95 -84 -95 -128
c0 -84 46 -185 130 -185zM246 -210c87 0 175 54 175 138c0 66 -43 97 -129 97h-88c-50 0 -86 -47 -86 -105c0 -69 39 -130 128 -130z" />
    <glyph glyph-name="gcircumflex" unicode="&#x11d;" horiz-adv-x="538" 
d="M91 553l163 102l161 -102h-37l-124 87l-125 -87h-38zM200 -235c-85 0 -150 37 -150 114c0 64 52 122 111 146c-41 0 -92 22 -92 77c0 45 49 80 68 93c-43 28 -73 75 -73 137c0 103 90 170 189 170c94 0 101 -12 265 -12v-145l-12 -8c0 89 -39 144 -100 144
c-25 0 -43 -9 -43 -9c45 -30 74 -79 74 -140c0 -111 -101 -171 -189 -171c-34 0 -69 10 -100 27c-26 -24 -30 -40 -30 -57c0 -38 36 -52 95 -52h102c91 0 154 -28 154 -104c0 -107 -121 -210 -269 -210zM268 175c64 0 94 64 94 139c0 111 -70 174 -129 174
c-79 0 -95 -84 -95 -128c0 -84 46 -185 130 -185zM246 -210c87 0 175 54 175 138c0 66 -43 97 -129 97h-88c-50 0 -86 -47 -86 -105c0 -69 39 -130 128 -130z" />
    <glyph glyph-name="uni0123" unicode="&#x123;" horiz-adv-x="538" 
d="M268 552c-14 -2 -40 21 -42 34c-11 67 11 135 91 188l2 -12c-49 -34 -64 -78 -54 -114c6 -25 27 -22 32 -50c2 -13 -16 -44 -29 -46zM200 -235c-85 0 -150 37 -150 114c0 64 52 122 111 146c-41 0 -92 22 -92 77c0 45 49 80 68 93c-43 28 -73 75 -73 137
c0 103 90 170 189 170c94 0 101 -12 265 -12v-145l-12 -8c0 89 -39 144 -100 144c-25 0 -43 -9 -43 -9c45 -30 74 -79 74 -140c0 -111 -101 -171 -189 -171c-34 0 -69 10 -100 27c-26 -24 -30 -40 -30 -57c0 -38 36 -52 95 -52h102c91 0 154 -28 154 -104
c0 -107 -121 -210 -269 -210zM268 175c64 0 94 64 94 139c0 111 -70 174 -129 174c-79 0 -95 -84 -95 -128c0 -84 46 -185 130 -185zM246 -210c87 0 175 54 175 138c0 66 -43 97 -129 97h-88c-50 0 -86 -47 -86 -105c0 -69 39 -130 128 -130z" />
    <glyph glyph-name="gdotaccent" unicode="&#x121;" horiz-adv-x="538" 
d="M250 581c-36 0 -66 30 -66 67s30 68 66 68c37 0 67 -31 67 -68s-30 -67 -67 -67zM200 -235c-85 0 -150 37 -150 114c0 64 52 122 111 146c-41 0 -92 22 -92 77c0 45 49 80 68 93c-43 28 -73 75 -73 137c0 103 90 170 189 170c94 0 101 -12 265 -12v-145l-12 -8
c0 89 -39 144 -100 144c-25 0 -43 -9 -43 -9c45 -30 74 -79 74 -140c0 -111 -101 -171 -189 -171c-34 0 -69 10 -100 27c-26 -24 -30 -40 -30 -57c0 -38 36 -52 95 -52h102c91 0 154 -28 154 -104c0 -107 -121 -210 -269 -210zM268 175c64 0 94 64 94 139
c0 111 -70 174 -129 174c-79 0 -95 -84 -95 -128c0 -84 46 -185 130 -185zM246 -210c87 0 175 54 175 138c0 66 -43 97 -129 97h-88c-50 0 -86 -47 -86 -105c0 -69 39 -130 128 -130z" />
    <glyph glyph-name="h" unicode="h" horiz-adv-x="599" 
d="M-7 0l20 12h39c45 0 63 14 63 67v478c0 114 -22 117 -121 84l-6 11l190 68h7v-375c5 30 50 157 189 157c120 0 130 -107 130 -185v-260c0 -42 30 -45 65 -45h40l20 -12h-318l20 12h45c34 0 63 3 63 45v257c0 73 -16 156 -104 156c-56 0 -150 -60 -150 -204v-187
c0 -53 19 -67 64 -67h42l20 -12h-318z" />
    <glyph glyph-name="hbar" unicode="&#x127;" horiz-adv-x="591" 
d="M600 12l21 -12h-308l32 12h31c34 0 62 3 62 45v257c0 73 -13 156 -101 156c-56 0 -150 -60 -150 -204v-209c0 -42 40 -45 75 -45h19l32 -12h-309l22 12h28c34 0 63 3 63 45v500v19h-69l22 13h46c-5 82 -32 82 -122 52l-6 11l192 68h7v-131h173l21 -13h-194v-231
c5 30 50 157 189 157c124 0 132 -108 132 -185v-260c0 -42 30 -45 64 -45h28z" />
    <glyph glyph-name="hcircumflex" unicode="&#x125;" horiz-adv-x="599" 
d="M15 711l163 102l161 -102h-37l-124 87l-125 -87h-38zM-7 0l20 12h39c45 0 63 14 63 67v478c0 114 -22 117 -121 84l-6 11l190 68h7v-375c5 30 50 157 189 157c120 0 130 -107 130 -185v-260c0 -42 30 -45 65 -45h40l20 -12h-318l20 12h45c34 0 63 3 63 45v257
c0 73 -16 156 -104 156c-56 0 -150 -60 -150 -204v-187c0 -53 19 -67 64 -67h42l20 -12h-318z" />
    <glyph glyph-name="i" unicode="i" horiz-adv-x="280" 
d="M141 594c-16 0 -41 25 -41 39c0 17 25 42 41 42c15 0 40 -25 40 -42c0 -14 -25 -39 -40 -39zM-5 0l20 12h37c45 0 63 14 63 67v260c0 90 -20 108 -122 73l-5 11l190 69h7v-413c0 -53 19 -67 64 -67h41l20 -12h-315z" />
    <glyph glyph-name="dotlessi" unicode="&#x131;" horiz-adv-x="280" 
d="M-5 0l20 12h37c45 0 63 14 63 67v260c0 90 -20 108 -122 73l-5 11l190 69h7v-413c0 -53 19 -67 64 -67h41l20 -12h-315z" />
    <glyph glyph-name="iacute" unicode="&#xed;" horiz-adv-x="280" 
d="M30 566v13l206 87l18 -18zM-5 0l20 12h37c45 0 63 14 63 67v260c0 90 -20 108 -122 73l-5 11l190 69h7v-413c0 -53 19 -67 64 -67h41l20 -12h-315z" />
    <glyph glyph-name="icircumflex" unicode="&#xee;" horiz-adv-x="280" 
d="M21 552l132 111l130 -111h-29l-101 94l-102 -94h-30zM-5 0l20 12h37c45 0 63 14 63 67v260c0 90 -20 108 -122 73l-5 11l190 69h7v-413c0 -53 19 -67 64 -67h41l20 -12h-315z" />
    <glyph glyph-name="idieresis" unicode="&#xef;" horiz-adv-x="280" 
d="M78 587c-17 0 -44 27 -44 42c0 19 27 46 44 46c16 0 43 -27 43 -46c0 -15 -27 -42 -43 -42zM228 587c-17 0 -44 27 -44 42c0 19 27 46 44 46c16 0 43 -27 43 -46c0 -15 -27 -42 -43 -42zM-5 0l20 12h37c45 0 63 14 63 67v260c0 90 -20 108 -122 73l-5 11l190 69h7v-413
c0 -53 19 -67 64 -67h41l20 -12h-315z" />
    <glyph glyph-name="igrave" unicode="&#xec;" horiz-adv-x="280" 
d="M260 566l-224 82l18 18l206 -87v-13zM-5 0l20 12h37c45 0 63 14 63 67v260c0 90 -20 108 -122 73l-5 11l190 69h7v-413c0 -53 19 -67 64 -67h41l20 -12h-315z" />
    <glyph glyph-name="imacron" unicode="&#x12b;" horiz-adv-x="280" 
d="M8 592l10 13h263l11 -13h-284zM-5 0l20 12h37c45 0 63 14 63 67v260c0 90 -20 108 -122 73l-5 11l190 69h7v-413c0 -53 19 -67 64 -67h41l20 -12h-315z" />
    <glyph glyph-name="iogonek" unicode="&#x12f;" horiz-adv-x="280" 
d="M141 594c-16 0 -41 25 -41 39c0 17 25 42 41 42c15 0 40 -25 40 -42c0 -14 -25 -39 -40 -39zM179 -203c40 -1 67 32 67 69h13c0 -50 -38 -92 -99 -92c-60 0 -104 46 -104 101c0 76 75 110 129 125h-190l20 12h37c45 0 63 14 63 67v260c0 90 -20 108 -122 73l-5 11l190 69
h7v-413c0 -53 19 -67 64 -67h41l20 -12h-107c-59 -24 -93 -66 -93 -122c0 -47 25 -80 69 -81z" />
    <glyph glyph-name="j" unicode="j" horiz-adv-x="286" 
d="M154 594c-16 0 -41 25 -41 39c0 17 25 42 41 42c15 0 40 -25 40 -42c0 -14 -25 -39 -40 -39zM-15 -250l11 12h36c85 0 94 40 94 208v369c0 90 -20 108 -123 73l-5 11l191 69h7v-522c0 -133 -57 -220 -162 -220h-49z" />
    <glyph glyph-name="jcircumflex" unicode="&#x135;" horiz-adv-x="286" 
d="M0 580l123 102l121 -102h-27l-94 87l-95 -87h-28zM-25 -250l11 12h37c84 0 103 40 103 208v369c0 90 -20 108 -123 73l-5 11l191 69h7v-522c0 -133 -67 -220 -171 -220h-50z" />
    <glyph glyph-name="k" unicode="k" horiz-adv-x="576" 
d="M-7 0l20 12h39c45 0 63 14 63 67v478c0 114 -22 117 -122 84l-5 11l191 68h6v-485l184 173c31 32 52 70 -43 70h-18l-21 12h288l-22 -12h-25c-45 0 -84 -16 -129 -58l-97 -92l199 -269c29 -38 61 -47 83 -47h26l21 -12h-301l9 12h37c43 0 57 14 35 47l-163 218l-63 -59
v-161c0 -42 30 -45 64 -45h29l10 -12h-295z" />
    <glyph glyph-name="uni0137" unicode="&#x137;" horiz-adv-x="576" 
d="M-7 0l20 12h39c45 0 63 14 63 67v478c0 114 -22 117 -122 84l-5 11l191 68h6v-485l184 173c31 32 52 70 -43 70h-18l-21 12h288l-22 -12h-25c-45 0 -84 -16 -129 -58l-97 -92l199 -269c29 -38 61 -47 83 -47h26l21 -12h-301l9 12h37c43 0 57 14 35 47l-163 218l-63 -59
v-161c0 -42 30 -45 64 -45h29l10 -12h-295zM202 -273v12c64 23 97 72 97 121c0 34 -21 35 -21 63c0 13 24 40 36 40c14 0 36 -27 36 -40c0 -89 -50 -161 -148 -196z" />
    <glyph glyph-name="l" unicode="l" horiz-adv-x="280" 
d="M-7 0l20 12h39c45 0 63 14 63 67v478c0 114 -22 117 -121 84l-6 11l190 68h7v-641c0 -53 19 -67 64 -67h41l20 -12h-317z" />
    <glyph glyph-name="lacute" unicode="&#x13a;" horiz-adv-x="280" 
d="M11 750v13l206 87l18 -18zM-7 0l20 12h39c45 0 63 14 63 67v478c0 114 -22 117 -121 84l-6 11l190 68h7v-641c0 -53 19 -67 64 -67h41l20 -12h-317z" />
    <glyph glyph-name="lcaron" unicode="&#x13e;" horiz-adv-x="330" 
d="M289 740c13 2 37 -19 39 -31c10 -62 -10 -125 -85 -173l-2 11c46 31 60 71 51 105c-6 23 -26 20 -30 46c-2 12 15 40 27 42zM-7 0l20 12h39c45 0 63 14 63 67v478c0 114 -22 117 -121 84l-6 11l190 68h7v-641c0 -53 19 -67 64 -67h41l20 -12h-317z" />
    <glyph glyph-name="uni013C" unicode="&#x13c;" horiz-adv-x="280" 
d="M-7 0l20 12h39c45 0 63 14 63 67v478c0 114 -22 117 -121 84l-6 11l190 68h7v-641c0 -53 19 -67 64 -67h41l20 -12h-317zM39 -273v12c64 23 97 72 97 121c0 34 -21 35 -21 63c0 13 24 40 36 40c14 0 36 -27 36 -40c0 -89 -50 -161 -148 -196z" />
    <glyph glyph-name="ldot" unicode="&#x140;" horiz-adv-x="356" 
d="M-7 0l20 12h39c45 0 63 14 63 67v478c0 114 -22 117 -121 84l-6 11l190 68h7v-641c0 -53 19 -67 64 -67h41l20 -12h-317zM291 241c-17 0 -47 30 -47 45c0 17 30 47 47 47c15 0 45 -30 45 -47c0 -15 -30 -45 -45 -45z" />
    <glyph glyph-name="lslash" unicode="&#x142;" horiz-adv-x="280" 
d="M52 12c45 0 63 14 63 67v335l-92 -77l-8 9l100 84v127c0 114 -22 117 -121 84l-6 11l190 68h7v-231l99 83l8 -10l-107 -89v-394c0 -53 19 -67 64 -67h41l20 -12h-317l20 12h39z" />
    <glyph glyph-name="m" unicode="m" horiz-adv-x="920" 
d="M309 0h-314l20 12h37c45 0 63 14 63 67v260c0 90 -20 108 -122 73l-5 11l191 69h7v-147c5 30 49 157 188 157c112 0 129 -86 133 -159c4 24 47 159 190 159c119 0 128 -107 128 -184v-261c0 -42 30 -45 64 -45h41l20 -12h-310l20 12h37c34 0 63 3 63 45v257
c0 73 -14 156 -101 156c-57 0 -152 -64 -152 -204v-209c0 -42 30 -45 64 -45h49l20 -12h-331l20 12h45c34 0 63 3 63 45v257c0 73 -14 156 -101 156c-57 0 -151 -59 -151 -204v-209c0 -42 30 -45 64 -45h40z" />
    <glyph glyph-name="n" unicode="n" horiz-adv-x="599" 
d="M-5 0l20 12h37c45 0 63 14 63 67v260c0 90 -20 108 -122 73l-5 11l192 69h6v-147c6 30 51 157 190 157c118 0 128 -107 128 -184v-261c0 -42 30 -45 65 -45h40l20 -12h-320l20 12h47c34 0 63 3 63 45v257c0 73 -14 156 -102 156c-57 0 -152 -60 -152 -204v-209
c0 -42 30 -45 64 -45h40l20 -12h-314z" />
    <glyph glyph-name="nacute" unicode="&#x144;" horiz-adv-x="599" 
d="M158 572v13l313 87l18 -18zM-5 0l20 12h37c45 0 63 14 63 67v260c0 90 -20 108 -122 73l-5 11l192 69h6v-147c6 30 51 157 190 157c118 0 128 -107 128 -184v-261c0 -42 30 -45 65 -45h40l20 -12h-320l20 12h47c34 0 63 3 63 45v257c0 73 -14 156 -102 156
c-57 0 -152 -60 -152 -204v-209c0 -42 30 -45 64 -45h40l20 -12h-314z" />
    <glyph glyph-name="ncaron" unicode="&#x148;" horiz-adv-x="599" 
d="M324 552l-163 102h38l125 -87l124 87h37zM-5 0l20 12h37c45 0 63 14 63 67v260c0 90 -20 108 -122 73l-5 11l192 69h6v-147c6 30 51 157 190 157c118 0 128 -107 128 -184v-261c0 -42 30 -45 65 -45h40l20 -12h-320l20 12h47c34 0 63 3 63 45v257c0 73 -14 156 -102 156
c-57 0 -152 -60 -152 -204v-209c0 -42 30 -45 64 -45h40l20 -12h-314z" />
    <glyph glyph-name="uni0146" unicode="&#x146;" horiz-adv-x="599" 
d="M-5 0l20 12h37c45 0 63 14 63 67v260c0 90 -20 108 -122 73l-5 11l192 69h6v-147c6 30 51 157 190 157c118 0 128 -107 128 -184v-261c0 -42 30 -45 65 -45h40l20 -12h-320l20 12h47c34 0 63 3 63 45v257c0 73 -14 156 -102 156c-57 0 -152 -60 -152 -204v-209
c0 -42 30 -45 64 -45h40l20 -12h-314zM201 -273v12c64 23 97 72 97 121c0 34 -21 35 -21 63c0 13 24 40 36 40c14 0 36 -27 36 -40c0 -89 -50 -161 -148 -196z" />
    <glyph glyph-name="eng" unicode="&#x14b;" horiz-adv-x="598" 
d="M313 -185l32 12c76 0 93 3 93 91v396c0 73 -14 156 -102 156c-57 0 -151 -60 -151 -207v-206c0 -42 30 -45 65 -45h42l20 -12h-317l20 12h37c45 0 63 14 63 67v260c0 90 -20 108 -122 73l-5 11l191 69h7v-147c6 30 50 157 189 157c125 0 133 -107 133 -184v-503h-195z
" />
    <glyph glyph-name="ntilde" unicode="&#xf1;" horiz-adv-x="599" 
d="M170 578l-12 5s24 85 91 85c68 0 89 -77 150 -77c53 0 73 51 73 51l11 -5s-23 -59 -84 -59c-66 0 -95 68 -150 68c-56 0 -79 -68 -79 -68zM-5 0l20 12h37c45 0 63 14 63 67v260c0 90 -20 108 -122 73l-5 11l192 69h6v-147c6 30 51 157 190 157c118 0 128 -107 128 -184
v-261c0 -42 30 -45 65 -45h40l20 -12h-320l20 12h47c34 0 63 3 63 45v257c0 73 -14 156 -102 156c-57 0 -152 -60 -152 -204v-209c0 -42 30 -45 64 -45h40l20 -12h-314z" />
    <glyph glyph-name="o" unicode="o" horiz-adv-x="581" 
d="M290 -20c-134 0 -260 111 -260 263c0 151 126 259 260 259c135 0 261 -108 261 -259c0 -152 -126 -263 -261 -263zM321 -4c75 0 153 74 153 218c0 169 -117 272 -209 272c-128 0 -160 -136 -160 -205c0 -126 83 -285 216 -285z" />
    <glyph glyph-name="oacute" unicode="&#xf3;" horiz-adv-x="581" 
d="M125 566v13l313 87l18 -18zM290 -20c-134 0 -260 111 -260 263c0 151 126 259 260 259c135 0 261 -108 261 -259c0 -152 -126 -263 -261 -263zM321 -4c75 0 153 74 153 218c0 169 -117 272 -209 272c-128 0 -160 -136 -160 -205c0 -126 83 -285 216 -285z" />
    <glyph glyph-name="ocircumflex" unicode="&#xf4;" horiz-adv-x="581" 
d="M116 552l175 111l172 -111h-39l-133 94l-134 -94h-41zM290 -20c-134 0 -260 111 -260 263c0 151 126 259 260 259c135 0 261 -108 261 -259c0 -152 -126 -263 -261 -263zM321 -4c75 0 153 74 153 218c0 169 -117 272 -209 272c-128 0 -160 -136 -160 -205
c0 -126 83 -285 216 -285z" />
    <glyph glyph-name="odieresis" unicode="&#xf6;" horiz-adv-x="581" 
d="M205 588c-17 0 -44 27 -44 42c0 19 27 46 44 46c16 0 43 -27 43 -46c0 -15 -27 -42 -43 -42zM376 588c-17 0 -44 27 -44 42c0 19 27 46 44 46s43 -27 43 -46c0 -15 -26 -42 -43 -42zM290 -20c-134 0 -260 111 -260 263c0 151 126 259 260 259c135 0 261 -108 261 -259
c0 -152 -126 -263 -261 -263zM321 -4c75 0 153 74 153 218c0 169 -117 272 -209 272c-128 0 -160 -136 -160 -205c0 -126 83 -285 216 -285z" />
    <glyph glyph-name="ograve" unicode="&#xf2;" horiz-adv-x="581" 
d="M455 566l-331 82l18 18l313 -87v-13zM290 -20c-134 0 -260 111 -260 263c0 151 126 259 260 259c135 0 261 -108 261 -259c0 -152 -126 -263 -261 -263zM321 -4c75 0 153 74 153 218c0 169 -117 272 -209 272c-128 0 -160 -136 -160 -205c0 -126 83 -285 216 -285z" />
    <glyph glyph-name="ohungarumlaut" unicode="&#x151;" horiz-adv-x="581" 
d="M209 572c19 23 52 58 52 89c0 24 -11 38 -11 57c0 18 16 36 28 36c14 0 34 -18 34 -40c0 -38 -58 -107 -86 -142h-17zM316 572c19 23 53 58 53 89c0 24 -12 38 -12 57c0 18 16 36 29 36c14 0 33 -18 33 -40c0 -38 -58 -107 -86 -142h-17zM290 -20
c-134 0 -260 111 -260 263c0 151 126 259 260 259c135 0 261 -108 261 -259c0 -152 -126 -263 -261 -263zM321 -4c75 0 153 74 153 218c0 169 -117 272 -209 272c-128 0 -160 -136 -160 -205c0 -126 83 -285 216 -285z" />
    <glyph glyph-name="omacron" unicode="&#x14d;" horiz-adv-x="581" 
d="M64 624v13h445v-13h-445zM290 -20c-134 0 -260 111 -260 263c0 151 126 259 260 259c135 0 261 -108 261 -259c0 -152 -126 -263 -261 -263zM321 -4c75 0 153 74 153 218c0 169 -117 272 -209 272c-128 0 -160 -136 -160 -205c0 -126 83 -285 216 -285z" />
    <glyph glyph-name="oslash" unicode="&#xf8;" horiz-adv-x="581" 
d="M406 475c83 -42 145 -126 145 -232c0 -152 -126 -263 -261 -263c-32 0 -63 6 -92 18l-27 -62h-16l30 67c-88 41 -155 129 -155 240c0 151 126 259 260 259c36 0 71 -8 104 -22l32 73h14zM105 281c0 -83 36 -179 98 -236l174 395c-36 30 -76 46 -112 46
c-128 0 -160 -136 -160 -205zM321 -4c75 0 153 74 153 218c0 96 -38 171 -87 217l-173 -396c30 -24 66 -39 107 -39z" />
    <glyph glyph-name="oslashacute" unicode="&#x1ff;" horiz-adv-x="581" 
d="M418 653l17 -17l-309 -75v12zM406 475c83 -42 145 -126 145 -232c0 -152 -126 -263 -261 -263c-32 0 -63 6 -92 18l-27 -62h-16l30 67c-88 41 -155 129 -155 240c0 151 126 259 260 259c36 0 71 -8 104 -22l32 73h14zM105 281c0 -83 36 -179 98 -236l174 395
c-36 30 -76 46 -112 46c-128 0 -160 -136 -160 -205zM321 -4c75 0 153 74 153 218c0 96 -38 171 -87 217l-173 -396c30 -24 66 -39 107 -39z" />
    <glyph glyph-name="otilde" unicode="&#xf5;" horiz-adv-x="581" 
d="M137 572l-12 5s24 85 91 85c68 0 89 -77 150 -77c53 0 73 51 73 51l11 -5s-23 -59 -84 -59c-66 0 -95 68 -150 68c-56 0 -79 -68 -79 -68zM290 -20c-134 0 -260 111 -260 263c0 151 126 259 260 259c135 0 261 -108 261 -259c0 -152 -126 -263 -261 -263zM321 -4
c75 0 153 74 153 218c0 169 -117 272 -209 272c-128 0 -160 -136 -160 -205c0 -126 83 -285 216 -285z" />
    <glyph glyph-name="oe" unicode="&#x153;" horiz-adv-x="806" 
d="M278 -20c-130 0 -248 114 -248 263c0 151 118 259 248 259c59 0 117 -26 161 -67c26 32 78 67 139 67c92 0 173 -70 198 -179h-344c-11 -147 69 -315 183 -315c90 0 140 82 146 190h11c1 -100 -44 -218 -184 -218c-55 0 -107 24 -148 64c-45 -40 -104 -64 -162 -64z
M308 -3c40 0 83 20 111 71c-34 47 -57 109 -57 174c0 57 15 106 40 148c-41 56 -99 92 -159 92c-122 0 -143 -132 -143 -201c0 -123 79 -284 208 -284zM433 335h268c-31 92 -87 143 -143 143c-95 0 -119 -77 -125 -143z" />
    <glyph glyph-name="p" unicode="p" horiz-adv-x="581" 
d="M-6 -250l21 12h37c45 0 63 14 63 67v520c0 90 -20 108 -122 73l-5 11l189 69h7v-50c35 31 79 50 122 50c120 0 240 -93 240 -259c0 -163 -120 -262 -230 -262c-62 0 -100 20 -131 41v-182c0 -64 19 -78 96 -78h49l21 -12h-357zM333 -5c78 0 138 89 138 219
c0 174 -106 269 -189 269c-44 0 -74 -25 -97 -67v-318c27 -58 72 -103 148 -103z" />
    <glyph glyph-name="thorn" unicode="&#xfe;" horiz-adv-x="581" 
d="M-6 -250l21 12h37c45 0 63 14 63 67v719c0 90 -20 108 -122 73l-5 11l189 69h7v-249c35 31 79 50 122 50c120 0 240 -93 240 -259c0 -163 -120 -262 -230 -262c-62 0 -100 20 -131 41v-182c0 -64 19 -78 96 -78h49l21 -12h-357zM333 -5c78 0 138 89 138 219
c0 174 -106 269 -189 269c-44 0 -74 -25 -97 -67v-318c27 -58 72 -103 148 -103z" />
    <glyph glyph-name="q" unicode="q" horiz-adv-x="527" 
d="M214 -250l32 12h49c67 0 97 3 97 89v152c-36 -18 -74 -24 -111 -24c-130 0 -251 111 -251 265c0 151 121 258 251 258c65 0 99 -29 133 -58l33 47h15v-662c0 -53 19 -67 64 -67h42l19 -12h-373zM313 -6c26 0 54 12 79 33v374c-35 47 -79 81 -135 81
c-145 0 -155 -130 -155 -200c0 -128 80 -288 211 -288z" />
    <glyph glyph-name="r" unicode="r" horiz-adv-x="410" 
d="M-5 0l20 12h37c45 0 63 14 63 67v260c0 90 -20 108 -122 73l-5 11l190 69h7v-146c3 32 18 156 124 156c60 0 91 -50 91 -50l-48 -130l-11 3c10 67 3 156 -53 156c-72 0 -98 -116 -103 -235v-166c0 -54 19 -68 64 -68h60l22 -12h-336z" />
    <glyph glyph-name="racute" unicode="&#x155;" horiz-adv-x="410" 
d="M62 572v13l313 87l18 -18zM-5 0l20 12h37c45 0 63 14 63 67v260c0 90 -20 108 -122 73l-5 11l190 69h7v-146c3 32 18 156 124 156c60 0 91 -50 91 -50l-48 -130l-11 3c10 67 3 156 -53 156c-72 0 -98 -116 -103 -235v-166c0 -54 19 -68 64 -68h60l22 -12h-336z" />
    <glyph glyph-name="rcaron" unicode="&#x159;" horiz-adv-x="410" 
d="M228 556l-175 111h41l134 -95l133 95h39zM-5 0l20 12h37c45 0 63 14 63 67v260c0 90 -20 108 -122 73l-5 11l190 69h7v-146c3 32 18 156 124 156c60 0 91 -50 91 -50l-48 -130l-11 3c10 67 3 156 -53 156c-72 0 -98 -116 -103 -235v-166c0 -54 19 -68 64 -68h60l22 -12
h-336z" />
    <glyph glyph-name="uni0157" unicode="&#x157;" horiz-adv-x="410" 
d="M-5 0l20 12h37c45 0 63 14 63 67v260c0 90 -20 108 -122 73l-5 11l190 69h7v-146c3 32 18 156 124 156c60 0 91 -50 91 -50l-48 -130l-11 3c10 67 3 156 -53 156c-72 0 -98 -116 -103 -235v-166c0 -54 19 -68 64 -68h60l22 -12h-336zM46 -273v12c64 23 97 72 97 121
c0 34 -21 35 -21 63c0 13 24 40 36 40c14 0 36 -27 36 -40c0 -89 -50 -161 -148 -196z" />
    <glyph glyph-name="s" unicode="s" horiz-adv-x="435" 
d="M215 -20c-87 0 -158 55 -158 60l-12 123h12c27 -111 82 -171 163 -171c63 0 103 34 103 86c0 139 -265 145 -265 293c0 93 78 131 148 131c106 0 153 -68 153 -70l-44 -112l-10 4c9 114 -27 166 -98 166c-59 0 -90 -39 -90 -83c0 -124 273 -150 273 -282
c0 -86 -76 -145 -175 -145z" />
    <glyph glyph-name="sacute" unicode="&#x15b;" horiz-adv-x="435" 
d="M41 572v13l313 87l18 -18zM215 -20c-87 0 -158 55 -158 60l-12 123h12c27 -111 82 -171 163 -171c63 0 103 34 103 86c0 139 -265 145 -265 293c0 93 78 131 148 131c106 0 153 -68 153 -70l-44 -112l-10 4c9 114 -27 166 -98 166c-59 0 -90 -39 -90 -83
c0 -124 273 -150 273 -282c0 -86 -76 -145 -175 -145z" />
    <glyph glyph-name="scaron" unicode="&#x161;" horiz-adv-x="435" 
d="M207 556l-175 111h41l134 -95l133 95h39zM215 -20c-87 0 -158 55 -158 60l-12 123h12c27 -111 82 -171 163 -171c63 0 103 34 103 86c0 139 -265 145 -265 293c0 93 78 131 148 131c106 0 153 -68 153 -70l-44 -112l-10 4c9 114 -27 166 -98 166c-59 0 -90 -39 -90 -83
c0 -124 273 -150 273 -282c0 -86 -76 -145 -175 -145z" />
    <glyph glyph-name="scedilla" unicode="&#x15f;" horiz-adv-x="435" 
d="M390 125c0 -85 -73 -143 -170 -145l-81 -94c19 22 49 49 94 49c40 0 85 -29 85 -83c0 -63 -62 -99 -112 -99c-65 0 -85 43 -97 70l12 5c11 -30 32 -58 70 -58c43 0 73 45 73 87c0 35 -14 63 -46 63c-38 0 -79 -52 -79 -52l-18 14l83 98c-82 4 -147 55 -147 60l-12 123h12
c27 -111 82 -171 163 -171c63 0 103 34 103 86c0 139 -265 145 -265 293c0 93 78 131 148 131c106 0 153 -68 153 -70l-44 -112l-10 4c9 114 -27 166 -98 166c-59 0 -90 -39 -90 -83c0 -124 273 -150 273 -282z" />
    <glyph glyph-name="uni0219" unicode="&#x219;" horiz-adv-x="435" 
d="M215 -20c-87 0 -158 55 -158 60l-12 123h12c27 -111 82 -171 163 -171c63 0 103 34 103 86c0 139 -265 145 -265 293c0 93 78 131 148 131c106 0 153 -68 153 -70l-44 -112l-10 4c9 114 -27 166 -98 166c-59 0 -90 -39 -90 -83c0 -124 273 -150 273 -282
c0 -86 -76 -145 -175 -145zM104 -294v12c64 23 97 72 97 121c0 34 -21 35 -21 63c0 13 24 40 36 40c14 0 36 -27 36 -40c0 -89 -50 -161 -148 -196z" />
    <glyph glyph-name="germandbls" unicode="&#xdf;" horiz-adv-x="652" 
d="M446 -13c-87 0 -157 60 -157 60l-25 178h12c21 -125 64 -225 170 -225c82 0 110 60 109 114c-3 182 -255 138 -255 311c0 129 174 175 174 246c0 30 -34 36 -105 36c-103 0 -189 -69 -189 -232v-396c0 -56 10 -67 41 -67h8l21 -12h-260l20 12h37c45 0 63 14 63 67v237
h-114l22 13c74 0 92 16 92 60v86c0 140 44 245 258 245h221c-34 -79 -251 -139 -251 -272c0 -131 284 -102 284 -291c0 -89 -66 -170 -176 -170z" />
    <glyph glyph-name="t" unicode="t" horiz-adv-x="400" 
d="M244 -10c-103 0 -149 58 -149 165v323h-90l21 12c66 0 97 33 124 170h12v-170h162l21 -12h-180v-334c0 -86 27 -131 94 -131c71 0 114 73 114 199h12c0 -115 -30 -222 -141 -222z" />
    <glyph glyph-name="tbar" unicode="&#x167;" horiz-adv-x="401" 
d="M374 212h12c0 -115 -30 -222 -141 -222c-103 0 -149 58 -149 165v169h-91l21 13h70v140l-91 1l21 12c67 0 98 33 125 170h12v-170h162l21 -12h-180v-141h165l21 -13h-186v-180c0 -86 27 -131 94 -131c71 0 114 73 114 199z" />
    <glyph glyph-name="tcaron" unicode="&#x165;" horiz-adv-x="400" 
d="M279 740c13 2 37 -19 39 -31c10 -62 -10 -125 -85 -173l-2 11c46 31 60 71 51 105c-6 23 -26 20 -30 46c-2 12 15 40 27 42zM244 -10c-103 0 -149 58 -149 165v323h-90l21 12c66 0 97 33 124 170h12v-170h162l21 -12h-180v-334c0 -86 27 -131 94 -131
c71 0 114 73 114 199h12c0 -115 -30 -222 -141 -222z" />
    <glyph glyph-name="uni0163" unicode="&#x163;" horiz-adv-x="400" 
d="M244 -10c-6 0 -12 0 -18 1l-80 -93c19 22 49 49 94 49c40 0 85 -29 85 -83c0 -63 -62 -99 -112 -99c-65 0 -85 43 -97 70l12 5c11 -30 32 -58 70 -58c43 0 73 45 73 87c0 35 -14 63 -46 63c-38 0 -79 -52 -79 -52l-18 14l83 98c-80 12 -116 68 -116 163v323h-90l21 12
c66 0 97 33 124 170h12v-170h162l21 -12h-180v-334c0 -86 27 -131 94 -131c71 0 114 73 114 199h12c0 -115 -30 -222 -141 -222z" />
    <glyph glyph-name="uni021B" unicode="&#x21b;" horiz-adv-x="400" 
d="M244 -10c-103 0 -149 58 -149 165v323h-90l21 12c66 0 97 33 124 170h12v-170h162l21 -12h-180v-334c0 -86 27 -131 94 -131c71 0 114 73 114 199h12c0 -115 -30 -222 -141 -222zM111 -282v12c64 23 97 72 97 121c0 34 -21 35 -21 63c0 13 24 40 36 40
c14 0 36 -27 36 -40c0 -89 -50 -161 -148 -196z" />
    <glyph glyph-name="u" unicode="u" horiz-adv-x="579" 
d="M237 -20c-133 0 -142 107 -142 183v211c0 101 -5 104 -125 104l20 12h170v-321c0 -74 15 -157 114 -157c83 0 140 100 140 197v179c0 87 -18 90 -181 90l21 12h230v-425c0 -50 30 -53 65 -53h40l20 -12h-194v138c-6 -25 -39 -158 -178 -158z" />
    <glyph glyph-name="uacute" unicode="&#xfa;" horiz-adv-x="579" 
d="M107 566v13l313 87l18 -18zM237 -20c-133 0 -142 107 -142 183v211c0 101 -5 104 -125 104l20 12h170v-321c0 -74 15 -157 114 -157c83 0 140 100 140 197v179c0 87 -18 90 -181 90l21 12h230v-425c0 -50 30 -53 65 -53h40l20 -12h-194v138c-6 -25 -39 -158 -178 -158z
" />
    <glyph glyph-name="ubreve" unicode="&#x16d;" horiz-adv-x="579" 
d="M273 538c-63 0 -114 44 -114 124h12c0 -68 55 -104 102 -104c49 0 102 36 102 104h12c0 -80 -50 -124 -114 -124zM237 -20c-133 0 -142 107 -142 183v211c0 101 -5 104 -125 104l20 12h170v-321c0 -74 15 -157 114 -157c83 0 140 100 140 197v179c0 87 -18 90 -181 90
l21 12h230v-425c0 -50 30 -53 65 -53h40l20 -12h-194v138c-6 -25 -39 -158 -178 -158z" />
    <glyph glyph-name="ucircumflex" unicode="&#xfb;" horiz-adv-x="579" 
d="M98 552l175 111l172 -111h-39l-133 94l-134 -94h-41zM237 -20c-133 0 -142 107 -142 183v211c0 101 -5 104 -125 104l20 12h170v-321c0 -74 15 -157 114 -157c83 0 140 100 140 197v179c0 87 -18 90 -181 90l21 12h230v-425c0 -50 30 -53 65 -53h40l20 -12h-194v138
c-6 -25 -39 -158 -178 -158z" />
    <glyph glyph-name="udieresis" unicode="&#xfc;" horiz-adv-x="579" 
d="M187 588c-17 0 -44 27 -44 42c0 19 27 46 44 46c16 0 43 -27 43 -46c0 -15 -27 -42 -43 -42zM358 588c-17 0 -44 27 -44 42c0 19 27 46 44 46s43 -27 43 -46c0 -15 -26 -42 -43 -42zM237 -20c-133 0 -142 107 -142 183v211c0 101 -5 104 -125 104l20 12h170v-321
c0 -74 15 -157 114 -157c83 0 140 100 140 197v179c0 87 -18 90 -181 90l21 12h230v-425c0 -50 30 -53 65 -53h40l20 -12h-194v138c-6 -25 -39 -158 -178 -158z" />
    <glyph glyph-name="ugrave" unicode="&#xf9;" horiz-adv-x="579" 
d="M437 566l-331 82l18 18l313 -87v-13zM237 -20c-133 0 -142 107 -142 183v211c0 101 -5 104 -125 104l20 12h170v-321c0 -74 15 -157 114 -157c83 0 140 100 140 197v179c0 87 -18 90 -181 90l21 12h230v-425c0 -50 30 -53 65 -53h40l20 -12h-194v138
c-6 -25 -39 -158 -178 -158z" />
    <glyph glyph-name="uhungarumlaut" unicode="&#x171;" horiz-adv-x="579" 
d="M191 572c19 23 52 58 52 89c0 24 -11 38 -11 57c0 18 16 36 28 36c14 0 34 -18 34 -40c0 -38 -58 -107 -86 -142h-17zM298 572c19 23 53 58 53 89c0 24 -12 38 -12 57c0 18 16 36 29 36c14 0 33 -18 33 -40c0 -38 -58 -107 -86 -142h-17zM237 -20
c-133 0 -142 107 -142 183v211c0 101 -5 104 -125 104l20 12h170v-321c0 -74 15 -157 114 -157c83 0 140 100 140 197v179c0 87 -18 90 -181 90l21 12h230v-425c0 -50 30 -53 65 -53h40l20 -12h-194v138c-6 -25 -39 -158 -178 -158z" />
    <glyph glyph-name="umacron" unicode="&#x16b;" horiz-adv-x="579" 
d="M46 624v13h445v-13h-445zM237 -20c-133 0 -142 107 -142 183v211c0 101 -5 104 -125 104l20 12h170v-321c0 -74 15 -157 114 -157c83 0 140 100 140 197v179c0 87 -18 90 -181 90l21 12h230v-425c0 -50 30 -53 65 -53h40l20 -12h-194v138c-6 -25 -39 -158 -178 -158z" />
    <glyph glyph-name="uogonek" unicode="&#x173;" horiz-adv-x="579" 
d="M640 -134h13c0 -50 -38 -92 -99 -92c-60 0 -104 46 -104 101c0 76 75 110 129 125h-164v138c-6 -25 -39 -158 -178 -158c-133 0 -142 107 -142 183v211c0 101 -5 104 -125 104l20 12h170v-321c0 -74 15 -157 114 -157c83 0 140 100 140 197v179c0 87 -18 90 -181 90
l21 12h230v-425c0 -50 30 -53 65 -53h40l20 -12h-12c-59 -24 -93 -66 -93 -122c0 -47 25 -80 69 -81c40 -1 67 32 67 69z" />
    <glyph glyph-name="uring" unicode="&#x16f;" horiz-adv-x="579" 
d="M269 539c-59 0 -106 47 -106 107c0 59 47 106 106 106s106 -47 106 -106c0 -60 -47 -107 -106 -107zM268 552c52 0 86 41 86 93c0 51 -34 94 -86 94c-53 0 -84 -43 -84 -94c0 -52 31 -93 84 -93zM237 -20c-133 0 -142 107 -142 183v211c0 101 -5 104 -125 104l20 12h170
v-321c0 -74 15 -157 114 -157c83 0 140 100 140 197v179c0 87 -18 90 -181 90l21 12h230v-425c0 -50 30 -53 65 -53h40l20 -12h-194v138c-6 -25 -39 -158 -178 -158z" />
    <glyph glyph-name="utilde" unicode="&#x169;" horiz-adv-x="579" 
d="M129 566l-11 5s23 78 85 78c63 0 83 -71 140 -71c49 0 68 47 68 47l10 -4s-21 -55 -78 -55c-62 0 -89 63 -140 63c-52 0 -74 -63 -74 -63zM237 -20c-133 0 -142 107 -142 183v211c0 101 -5 104 -125 104l20 12h170v-321c0 -74 15 -157 114 -157c83 0 140 100 140 197v179
c0 87 -18 90 -181 90l21 12h230v-425c0 -50 30 -53 65 -53h40l20 -12h-194v138c-6 -25 -39 -158 -178 -158z" />
    <glyph glyph-name="v" unicode="v" horiz-adv-x="482" 
d="M244 -23l-191 456c-15 36 -29 45 -63 45h-50l22 12h265l32 -12h-77c-35 0 -70 -3 -53 -45l143 -343l119 332c16 54 -14 56 -66 56h-65l32 12h235l20 -12h-48c-57 0 -74 -4 -95 -56z" />
    <glyph glyph-name="w" unicode="w" horiz-adv-x="758" 
d="M808 490l20 -12h-45c-54 0 -72 -3 -90 -56l-151 -445l-154 402l-137 -402l-197 456c-16 36 -30 45 -74 45h-40l22 12h245l32 -12h-53c-36 0 -74 -4 -56 -45l147 -342l104 306l-14 36c-14 36 -24 45 -70 45h-58l32 12h252l32 -12l31 12h222zM680 422c19 56 -13 56 -53 56
h-133c-48 0 -73 -5 -58 -45l132 -342z" />
    <glyph glyph-name="wacute" unicode="&#x1e83;" horiz-adv-x="758" 
d="M549 660l18 -18l-331 -82v13zM808 490l20 -12h-45c-54 0 -72 -3 -90 -56l-151 -445l-154 402l-137 -402l-197 456c-16 36 -30 45 -74 45h-40l22 12h245l32 -12h-53c-36 0 -74 -4 -56 -45l147 -342l104 306l-14 36c-14 36 -24 45 -70 45h-58l32 12h252l32 -12l31 12h222z
M680 422c19 56 -13 56 -53 56h-133c-48 0 -73 -5 -58 -45l132 -342z" />
    <glyph glyph-name="wcircumflex" unicode="&#x175;" horiz-adv-x="758" 
d="M402 640l-134 -94h-41l175 111l172 -111h-39zM808 490l20 -12h-45c-54 0 -72 -3 -90 -56l-151 -445l-154 402l-137 -402l-197 456c-16 36 -30 45 -74 45h-40l22 12h245l32 -12h-53c-36 0 -74 -4 -56 -45l147 -342l104 306l-14 36c-14 36 -24 45 -70 45h-58l32 12h252
l32 -12l31 12h222zM680 422c19 56 -13 56 -53 56h-133c-48 0 -73 -5 -58 -45l132 -342z" />
    <glyph glyph-name="wdieresis" unicode="&#x1e85;" horiz-adv-x="758" 
d="M316 582c-17 0 -44 27 -44 42c0 19 27 46 44 46c16 0 43 -27 43 -46c0 -15 -27 -42 -43 -42zM487 582c-17 0 -44 27 -44 42c0 19 27 46 44 46s43 -27 43 -46c0 -15 -26 -42 -43 -42zM808 490l20 -12h-45c-54 0 -72 -3 -90 -56l-151 -445l-154 402l-137 -402l-197 456
c-16 36 -30 45 -74 45h-40l22 12h245l32 -12h-53c-36 0 -74 -4 -56 -45l147 -342l104 306l-14 36c-14 36 -24 45 -70 45h-58l32 12h252l32 -12l31 12h222zM680 422c19 56 -13 56 -53 56h-133c-48 0 -73 -5 -58 -45l132 -342z" />
    <glyph glyph-name="wgrave" unicode="&#x1e81;" horiz-adv-x="758" 
d="M566 573v-13l-331 82l18 18zM808 490l20 -12h-45c-54 0 -72 -3 -90 -56l-151 -445l-154 402l-137 -402l-197 456c-16 36 -30 45 -74 45h-40l22 12h245l32 -12h-53c-36 0 -74 -4 -56 -45l147 -342l104 306l-14 36c-14 36 -24 45 -70 45h-58l32 12h252l32 -12l31 12h222z
M680 422c19 56 -13 56 -53 56h-133c-48 0 -73 -5 -58 -45l132 -342z" />
    <glyph glyph-name="x" unicode="x" horiz-adv-x="520" 
d="M-45 0l26 13h26c53 0 70 4 111 56l116 158l-133 205c-23 36 -52 45 -74 45h-46l20 13h252l32 -13h-55c-73 0 -66 -14 -46 -45l94 -143l97 132c40 55 30 56 -42 56h-48l32 13h212l20 -13h-46c-55 0 -74 -3 -113 -56l-105 -143l143 -220c23 -35 51 -45 75 -45h36l21 -13
h-329l31 13h38c71 0 64 13 46 45l-104 159l-111 -153c-35 -49 -5 -51 46 -51h18l36 -13h-276z" />
    <glyph glyph-name="y" unicode="y" horiz-adv-x="480" 
d="M-15 -250l21 12c96 0 163 24 209 150l28 76l-179 444c-14 36 -29 46 -74 46h-45l20 12h265l33 -12h-71c-46 0 -71 -4 -54 -46l140 -346l121 335c18 57 -13 57 -66 57h-70l31 12h241l20 -12h-46c-57 0 -75 -5 -97 -57l-243 -671h-184z" />
    <glyph glyph-name="yacute" unicode="&#xfd;" horiz-adv-x="480" 
d="M91 566v13l313 87l18 -18zM-15 -250l21 12c96 0 163 24 209 150l28 76l-179 444c-14 36 -29 46 -74 46h-45l20 12h265l33 -12h-71c-46 0 -71 -4 -54 -46l140 -346l121 335c18 57 -13 57 -66 57h-70l31 12h241l20 -12h-46c-57 0 -75 -5 -97 -57l-243 -671h-184z" />
    <glyph glyph-name="ycircumflex" unicode="&#x177;" horiz-adv-x="480" 
d="M82 552l175 111l172 -111h-39l-133 94l-134 -94h-41zM-15 -250l21 12c96 0 163 24 209 150l28 76l-179 444c-14 36 -29 46 -74 46h-45l20 12h265l33 -12h-71c-46 0 -71 -4 -54 -46l140 -346l121 335c18 57 -13 57 -66 57h-70l31 12h241l20 -12h-46c-57 0 -75 -5 -97 -57
l-243 -671h-184z" />
    <glyph glyph-name="ydieresis" unicode="&#xff;" horiz-adv-x="480" 
d="M171 588c-17 0 -44 27 -44 42c0 19 27 46 44 46c16 0 43 -27 43 -46c0 -15 -27 -42 -43 -42zM342 588c-17 0 -44 27 -44 42c0 19 27 46 44 46s43 -27 43 -46c0 -15 -26 -42 -43 -42zM-15 -250l21 12c96 0 163 24 209 150l28 76l-179 444c-14 36 -29 46 -74 46h-45l20 12
h265l33 -12h-71c-46 0 -71 -4 -54 -46l140 -346l121 335c18 57 -13 57 -66 57h-70l31 12h241l20 -12h-46c-57 0 -75 -5 -97 -57l-243 -671h-184z" />
    <glyph glyph-name="ygrave" unicode="&#x1ef3;" horiz-adv-x="480" 
d="M421 566l-331 82l18 18l313 -87v-13zM-15 -250l21 12c96 0 163 24 209 150l28 76l-179 444c-14 36 -29 46 -74 46h-45l20 12h265l33 -12h-71c-46 0 -71 -4 -54 -46l140 -346l121 335c18 57 -13 57 -66 57h-70l31 12h241l20 -12h-46c-57 0 -75 -5 -97 -57l-243 -671h-184z
" />
    <glyph glyph-name="uni0233" unicode="&#x233;" horiz-adv-x="480" 
d="M45 614v12h415v-12h-415zM-15 -250l21 12c96 0 163 24 209 150l28 76l-179 444c-14 36 -29 46 -74 46h-45l20 12h265l33 -12h-71c-46 0 -71 -4 -54 -46l140 -346l121 335c18 57 -13 57 -66 57h-70l31 12h241l20 -12h-46c-57 0 -75 -5 -97 -57l-243 -671h-184z" />
    <glyph glyph-name="z" unicode="z" horiz-adv-x="499" 
d="M25 0l309 419c33 44 22 59 -49 59h-87c-95 0 -101 -59 -101 -135l-11 -4c-10 100 -17 151 -17 151h392l-285 -387c-52 -70 -42 -91 15 -91h81c89 0 140 32 190 160l12 -1l-59 -171h-390z" />
    <glyph glyph-name="zacute" unicode="&#x17a;" horiz-adv-x="499" 
d="M100 558v13l313 87l18 -18zM25 0l309 419c33 44 22 59 -49 59h-87c-95 0 -101 -59 -101 -135l-11 -4c-10 100 -17 151 -17 151h392l-285 -387c-52 -70 -42 -91 15 -91h81c89 0 140 32 190 160l12 -1l-59 -171h-390z" />
    <glyph glyph-name="zcaron" unicode="&#x17e;" horiz-adv-x="499" 
d="M266 542l-175 111h41l134 -95l133 95h39zM25 0l309 419c33 44 22 59 -49 59h-87c-95 0 -101 -59 -101 -135l-11 -4c-10 100 -17 151 -17 151h392l-285 -387c-52 -70 -42 -91 15 -91h81c89 0 140 32 190 160l12 -1l-59 -171h-390z" />
    <glyph glyph-name="zdotaccent" unicode="&#x17c;" horiz-adv-x="499" 
d="M262 567c-36 0 -66 30 -66 67s30 68 66 68c37 0 67 -31 67 -68s-30 -67 -67 -67zM25 0l309 419c33 44 22 59 -49 59h-87c-95 0 -101 -59 -101 -135l-11 -4c-10 100 -17 151 -17 151h392l-285 -387c-52 -70 -42 -91 15 -91h81c89 0 140 32 190 160l12 -1l-59 -171h-390z
" />
    <glyph glyph-name="A_A" horiz-adv-x="1207" 
d="M-120 0l20 12h50c42 0 89 3 116 63l244 559s-8 54 -159 54h-136l21 12h857l264 -629c18 -43 53 -59 96 -59h54l20 -12h-439l19 12h83c88 0 82 30 38 154c-19 52 -50 52 -95 52h-176c-63 0 -75 -4 -103 -65c-9 -20 -28 -58 -38 -81c22 -39 53 -60 102 -60h54l10 -12h-434
l19 12h83c88 0 90 18 38 154c-20 52 -50 52 -95 52h-176c-63 0 -76 -4 -103 -65c-55 -123 -51 -141 44 -141h81l20 -12h-379zM610 88l240 546s-8 54 -159 54h-333zM217 230h176c50 0 61 23 41 78l-118 310l-139 -320c-24 -57 -19 -68 40 -68zM757 230h176c50 0 61 23 41 78
l-118 310l-139 -320c-24 -57 -19 -68 40 -68z" />
    <glyph glyph-name="A_D" horiz-adv-x="1015" 
d="M-120 0l10 12h60c60 0 63 5 265 349l155 264c0 49 -42 63 -161 63h-106l11 12h486c236 0 375 -168 375 -329c0 -228 -155 -371 -325 -371h-430l20 12h61c58 0 70 32 70 114c0 74 -1 92 -66 92h-85c-73 0 -84 -18 -117 -75c-47 -81 -75 -131 -33 -131h111l20 -12h-321z
M521 12h128c81 0 246 76 246 285c0 222 -131 391 -349 391h-52c-48 0 -48 -25 -48 -91v-472c0 -81 2 -113 75 -113zM210 230h95c59 0 65 7 65 76v295l-168 -286c-32 -64 -42 -85 8 -85z" />
    <glyph glyph-name="A_U" horiz-adv-x="1002" 
d="M639 -20c-294 0 -160 238 -384 238h-35c-73 0 -84 -18 -117 -75c-58 -101 -75 -131 9 -131h99l20 -12h-351l10 12h60c59 0 69 16 265 349l155 264c0 49 -42 63 -161 63h-106l11 12h492l20 -12h-111c-70 0 -70 -26 -70 -91v-323c0 -138 40 -273 221 -273s224 133 224 266
v320c0 98 -10 101 -112 101h-152l20 12h396l20 -12h-64c-89 0 -96 -3 -96 -101v-320c0 -126 -34 -287 -263 -287zM210 230h105c40 0 55 7 55 56v315l-168 -286c-38 -65 -43 -85 8 -85z" />
    <glyph glyph-name="A_V" horiz-adv-x="891" 
d="M572 -20c-102 228 -135 238 -253 238h-112c-71 0 -81 -9 -138 -146c-17 -41 -3 -60 69 -60h91l20 -12h-369l10 12h70c42 0 74 14 97 63c26 61 106 241 243 559c0 0 -6 54 -159 54h-78l11 12h433l20 -12h-101c-60 0 -63 -29 -54 -53l208 -480c10 -21 17 -27 27 -27
c9 0 14 8 27 40l182 457c25 63 0 63 -106 63h-182l20 12h453l10 -12h-81c-67 0 -84 -22 -100 -61zM207 230h201c43 0 46 17 27 65l-129 323l-136 -315c-20 -53 -19 -73 37 -73z" />
    <glyph glyph-name="C_H" horiz-adv-x="1158" 
d="M473 -20c-277 0 -433 143 -433 371c0 193 161 368 392 368c134 0 230 -48 283 -86l15 -201l-11 -16c-18 202 -137 291 -287 291c-249 0 -309 -181 -309 -299c0 -211 125 -419 341 -416c155 2 246 99 280 274l12 -2l-50 -224c-2 -8 -129 -60 -233 -60zM802 0l10 12h61
c68 0 70 32 70 114v144c0 53 -13 68 -56 68h-356c-46 0 -53 -12 -53 -104c0 -58 2 -73 47 -73h34l7 -12h-252l12 12h39c42 0 43 15 43 73v219c0 41 0 57 -47 57h-47l12 12h233l7 -12h-44c-44 0 -44 -16 -44 -57c0 -94 10 -103 53 -103h356c43 0 56 12 56 85v162
c0 65 0 91 -75 91h-76l20 12h336l20 -12h-66c-84 0 -84 -26 -84 -91v-472c0 -81 2 -113 80 -113h50l20 -12h-366z" />
    <glyph glyph-name="C_O" horiz-adv-x="796" 
d="M473 -20c-252 0 -433 143 -433 344c0 223 161 395 392 395c134 0 230 -48 283 -86l15 -201l-11 -8c-15 156 -157 277 -307 277c-239 0 -289 -175 -289 -293c0 -229 154 -416 350 -416c169 4 244 136 271 274l12 -2l-50 -224c-2 -8 -130 -60 -233 -60zM452 134
c-111 0 -209 91 -209 200s98 198 209 198c112 0 210 -89 210 -198s-98 -200 -210 -200zM478 151c73 0 120 51 120 160c0 131 -90 200 -167 200c-114 0 -124 -94 -124 -147c0 -97 59 -213 171 -213z" />
    <glyph glyph-name="D_E" horiz-adv-x="1131" 
d="M741 700h293c39 0 74 4 87 11l4 -9c-28 -17 -30 -64 -30 -138l-12 7c0 58 0 117 -49 117h-85c-45 0 -45 -12 -45 -53v-76c0 -40 4 -65 38 -65h37c47 0 47 18 47 73h12v-175l-12 7c0 38 0 83 -47 83h-37c-34 0 -38 -13 -38 -51v-95c0 -51 2 -67 48 -67c96 0 149 33 177 94
l12 -4l-56 -102h-354l13 12h51c43 0 44 16 44 68v298c0 41 0 53 -47 53h-61zM-10 0l20 12h50c78 0 80 32 80 114v471c0 65 0 91 -85 91h-65l20 12h359c236 0 375 -168 375 -329c0 -228 -155 -371 -325 -371h-429zM290 12h128c81 0 246 76 246 285c0 222 -131 391 -349 391
c-97 0 -100 -2 -100 -91v-472c0 -81 2 -113 75 -113z" />
    <glyph glyph-name="E_A_U" horiz-adv-x="1401" 
d="M1441 700l20 -12h-64c-89 0 -96 -3 -96 -101v-320c0 -126 -34 -287 -263 -287c-294 0 -160 238 -384 238h-35c-73 0 -84 -18 -117 -75c-58 -101 -75 -131 9 -131h99l20 -12h-640l20 12h50c78 0 80 32 80 114v471c0 65 0 91 -85 91h-65l20 12h410c62 0 117 6 138 17l2 -5
c-4 -4 -7 -8 -10 -12h455l20 -12h-111c-70 0 -70 -26 -70 -91v-323c0 -138 40 -273 221 -273s224 133 224 266v320c0 98 -10 101 -112 101h-152l20 12h396zM614 361l155 264c0 49 -42 63 -161 63h-65c-22 -41 -27 -106 -27 -203l-12 11c0 91 -5 192 -84 192h-135
c-70 0 -70 -26 -70 -91v-121c0 -84 5 -102 60 -102h65c73 0 74 28 74 115h12v-267l-12 10c0 60 -1 130 -74 130h-65c-55 0 -60 -20 -60 -80v-157c0 -81 2 -113 75 -113h59c59 0 69 16 265 349zM769 286v315l-168 -286c-38 -65 -43 -85 8 -85h105c40 0 55 7 55 56z" />
    <glyph glyph-name="E_E" horiz-adv-x="406" 
d="M210 12c95 0 153 17 194 94l12 -2l-42 -104h-384l20 12h50c34 0 36 16 36 55v576c0 31 0 45 -38 45h-68l20 12h313c32 0 59 3 69 9l1 -6c-18 -20 -22 -52 -22 -110l-12 4c0 44 0 91 -79 91h-73c-36 0 -36 -14 -36 -45v-48c0 -41 2 -53 42 -53h36c55 0 65 16 65 58h12
v-138l-12 5c0 29 -10 62 -65 62h-36c-40 0 -42 -7 -42 -38v-79c0 -42 1 -56 39 -56c105 0 153 20 194 98l12 -2l-42 -108h-167c-36 0 -36 -13 -36 -47v-50c0 -41 2 -54 42 -54h36c55 0 65 18 65 60h12v-138l-12 4c0 30 -10 62 -65 62h-36c-40 0 -42 -7 -42 -37v-77
c0 -39 1 -55 39 -55z" />
    <glyph glyph-name="E_N" horiz-adv-x="1232" 
d="M1167 -20l-285 370c-217 281 -225 291 -238 291c-15 0 -15 -27 -15 -33l-12 -474c-3 -117 -20 -122 63 -122h86l10 -12h-786l20 12h50c78 0 80 32 80 114v471c0 65 0 91 -85 91h-65l20 12h708l437 -563v429c0 117 -58 122 -134 122h-36l-20 12h297l-20 -12h-31
c-1 0 -44 -5 -44 -121v-587zM290 12h231c69 0 82 45 84 124l12 483c1 40 -7 69 -122 69h-210c-70 0 -70 -26 -70 -91v-121c0 -84 5 -102 60 -102h65c73 0 74 28 74 115h12v-267l-12 10c0 60 -1 130 -74 130h-65c-55 0 -60 -20 -60 -80v-157c0 -81 2 -113 75 -113z" />
    <glyph glyph-name="E_R" horiz-adv-x="945" 
d="M1013 -70c-297 0 -326 422 -463 439l-9 13c109 -13 215 8 215 140c0 139 -93 166 -168 166h-303c-70 0 -70 -26 -70 -91v-121c0 -84 5 -102 60 -102h65c74 0 74 28 74 115h12v-267l-12 10c0 60 0 130 -74 130h-65c-55 0 -60 -20 -60 -80v-157c0 -81 2 -113 75 -113
c192 0 221 26 256 195l11 -5l-36 -202h-531l20 12h50c78 0 80 32 80 114v471c0 65 0 91 -85 91h-65l20 12h630c81 0 195 -25 195 -164c0 -104 -111 -163 -215 -168c188 -51 206 -426 410 -426h25l10 -12h-52z" />
    <glyph glyph-name="H_A" horiz-adv-x="1446" 
d="M1229 12c88 0 90 18 38 154c-20 52 -50 52 -95 52h-176c-63 0 -76 -4 -103 -65c-55 -123 -51 -141 44 -141h81l20 -12h-569l10 12h61c68 0 70 32 70 114v136c0 60 -5 80 -80 80h-255c-55 0 -60 -20 -60 -80v-137c0 -81 2 -113 75 -113h56l10 -12h-366l20 12h50
c78 0 80 32 80 114v471c0 65 0 91 -85 91h-65l20 12h336l10 -12h-71c-70 0 -70 -26 -70 -91v-141c0 -84 5 -102 60 -102h255c75 0 80 18 80 105v138c0 65 0 91 -75 91h-66l10 12h653l264 -629c18 -43 53 -59 96 -59h54l20 -12h-439l19 12h83zM845 75c43 95 244 559 244 559
s-8 54 -159 54h-175c-70 0 -70 -26 -70 -91v-472c0 -90 0 -113 49 -113c40 0 85 5 111 63zM1172 230c50 0 62 23 41 78l-118 310l-139 -320c-24 -57 -19 -68 40 -68h176z" />
    <glyph glyph-name="H_E" horiz-adv-x="1387" 
d="M-10 0l20 12h50c78 0 80 32 80 114v471c0 65 0 91 -86 91h-64l20 12h336l10 -12h-71c-70 0 -70 -26 -70 -91v-121c0 -84 5 -102 60 -102h335v223c0 65 0 91 -75 91h-66l10 12h731c62 0 117 6 138 17l5 -8c-37 -38 -47 -107 -47 -224l-12 11c0 91 -5 192 -84 192h-135
c-70 0 -70 -26 -70 -91v-223h125c74 0 74 28 74 115h12v-267l-12 10c0 60 0 130 -74 130h-125v-237c0 -81 2 -113 75 -113c152 0 244 47 307 163l10 -3l-86 -172h-842l10 12h61c68 0 70 32 70 114v236h-285c-85 0 -110 -30 -110 -140v-97c0 -81 2 -113 75 -113h56l10 -12
h-366zM685 374h245v223c0 65 0 91 -75 91h-100c-70 0 -70 -26 -70 -91v-223zM760 12h100c68 0 70 32 70 114v236h-245v-237c0 -81 2 -113 75 -113z" />
    <glyph glyph-name="L_A" horiz-adv-x="741" 
d="M-10 0l20 12h50c78 0 80 32 80 114v471c0 65 0 91 -85 91h-65l20 12h514l171 -399c11 -27 28 -33 45 -33h15l6 -12h-245l12 12h52c59 0 53 18 25 93c-11 29 -22 31 -61 31h-111c-40 0 -49 0 -66 -39c-28 -63 -36 -85 28 -85h52l12 -12h-215l13 12h1c27 0 58 1 74 36
c27 60 155 354 155 354s-2 30 -96 30h-106c-70 0 -70 -26 -70 -91v-472c0 -81 2 -113 75 -113c152 0 250 38 333 154l14 -4l-136 -162h-511zM433 404h111c32 0 39 12 26 47l-75 197l-93 -215c-11 -29 5 -29 31 -29z" />
    <glyph glyph-name="L_E" horiz-adv-x="710" 
d="M-10 0l20 12h50c78 0 80 32 80 114v471c0 65 0 91 -85 91h-65l20 12h603c39 0 74 4 87 11l4 -9c-28 -17 -30 -64 -30 -138l-12 7c0 58 0 117 -49 117h-85c-45 0 -45 -12 -45 -53v-76c0 -40 4 -65 38 -65h37c47 0 47 18 47 73h12v-175l-12 7c0 38 0 83 -47 83h-37
c-34 0 -38 -13 -38 -51v-95c0 -51 2 -67 48 -67c96 0 149 33 177 94l12 -4l-56 -102h-354l13 12h51c43 0 44 16 44 68v298c0 41 0 53 -47 53h-86c-70 0 -70 -26 -70 -91v-472c0 -81 2 -113 75 -113c152 0 231 36 314 152l12 -2l-115 -162h-511z" />
    <glyph glyph-name="L_L" horiz-adv-x="727" 
d="M-10 0l20 12h50c78 0 80 32 80 114v471c0 65 0 91 -85 91h-65l20 12h565l16 -12h-57c-46 0 -46 -14 -46 -57v-292c0 -54 1 -71 50 -71c120 0 142 21 197 98l12 -3l-70 -107h-367l13 12h54c45 0 46 17 46 71v292c0 43 0 57 -49 57h-89c-70 0 -70 -26 -70 -91v-472
c0 -81 2 -113 75 -113c152 0 247 38 330 154l14 -4l-133 -162h-511z" />
    <glyph glyph-name="L_O" horiz-adv-x="839" 
d="M570 250c-130 0 -227 105 -227 231s97 229 227 229s229 -103 229 -229s-79 -231 -229 -231zM-10 0l20 12h50c78 0 80 32 80 114v471c0 65 0 91 -85 91h-65l19 12h337l10 -12h-71c-70 0 -70 -26 -70 -91v-472c0 -81 2 -113 75 -113c152 0 247 38 330 154l14 -4l-133 -162
h-511zM600 266c73 0 130 63 130 190c0 150 -95 233 -184 233c-125 0 -135 -112 -135 -173c0 -113 70 -250 189 -250z" />
    <glyph glyph-name="L_U" horiz-adv-x="783" 
d="M-10 0l20 12h50c78 0 80 32 80 114v471c0 65 0 91 -85 91h-65l20 12h555l20 -12h-48c-43 0 -58 -15 -58 -56v-220c0 -67 24 -149 119 -149c108 0 134 82 134 161v208c0 55 -6 56 -64 56h-82l20 12h224l13 -12h-39c-55 0 -60 -1 -60 -63v-201c0 -73 -19 -176 -163 -176
c-99 0 -167 55 -167 164v220c0 41 0 56 -46 56h-83c-70 0 -70 -26 -70 -91v-472c0 -81 2 -113 75 -113c152 0 247 38 330 154l14 -4l-133 -162h-511z" />
    <glyph glyph-name="N_N" horiz-adv-x="1323" 
d="M698 -20l-290 377c-215 279 -219 284 -231 284c-14 0 -16 -25 -17 -63l-11 -443c-3 -110 30 -123 113 -123h85l10 -12h-396l20 12h61c58 0 92 13 95 124l12 472c1 51 -7 80 -122 80h-67l20 12h269l437 -563v429c0 107 -32 122 -150 122h-56l10 12h269l442 -563v429
c0 117 -48 122 -134 122h-41l10 12h297l20 -12h-46c-59 0 -94 -5 -94 -121v-587l-510 658s-5 -21 -5 -72v-586z" />
    <glyph glyph-name="O_C" horiz-adv-x="1143" 
d="M1106 266l12 -2l-50 -224s-112 -60 -237 -60c-89 0 -167 19 -231 55c-56 -35 -122 -55 -194 -55c-209 0 -366 169 -366 371c0 203 157 369 366 369c72 0 139 -20 195 -55c54 34 119 54 189 54c158 0 231 -54 282 -41l3 -9c-50 -28 -75 -140 -96 -241l-10 12
c15 76 25 267 -179 267c-76 0 -132 -21 -172 -53c95 -67 156 -178 156 -303c0 -111 -48 -212 -127 -281c51 -48 115 -78 190 -78c153 0 233 91 269 274zM447 -1c52 0 98 17 136 46c-99 63 -159 168 -159 306c0 106 47 206 124 275c-59 47 -128 72 -193 72
c-147 0 -237 -128 -237 -291c0 -210 151 -408 329 -408zM694 310c0 129 -51 230 -122 296c-48 -64 -60 -146 -60 -198c0 -111 41 -235 116 -318c42 55 66 131 66 220z" />
    <glyph glyph-name="O_I" horiz-adv-x="814" 
d="M406 -20c-209 0 -366 169 -366 371c0 203 157 369 366 369c208 0 368 -166 368 -369c0 -202 -160 -371 -368 -371zM447 -1c145 0 247 130 247 311c0 243 -183 388 -339 388c-147 0 -237 -128 -237 -291c0 -210 151 -408 329 -408zM297 149l9 12h33c36 0 36 18 36 62v242
c0 32 0 46 -39 46h-39l9 12h203l11 -12h-43c-37 0 -37 -14 -37 -46v-243c0 -43 2 -61 40 -61h29l11 -12h-223z" />
    <glyph glyph-name="O_N" horiz-adv-x="1287" 
d="M1297 700l20 -12h-46c-59 0 -94 -5 -94 -121v-587c-127 222 -354 702 -672 727c157 -43 269 -187 269 -356c0 -202 -160 -371 -368 -371c-209 0 -366 169 -366 371c0 200 153 365 358 369h71c362 0 589 -332 696 -584v429c0 118 -48 123 -134 123h-41l10 12h297zM694 310
c0 243 -183 388 -339 388c-147 0 -237 -128 -237 -291c0 -210 151 -408 329 -408c145 0 247 130 247 311z" />
    <glyph glyph-name="O_O" horiz-adv-x="1158" 
d="M800 720c208 0 368 -166 368 -369c0 -202 -160 -371 -368 -371c-74 0 -141 21 -197 57c-56 -36 -124 -57 -197 -57c-209 0 -366 169 -366 371c0 203 157 369 366 369c73 0 141 -21 197 -56c56 35 123 56 197 56zM447 -1c53 0 101 18 140 49c-94 68 -153 179 -153 303
c0 108 44 205 117 273c-59 48 -130 74 -196 74c-147 0 -237 -128 -237 -291c0 -210 151 -408 329 -408zM841 -1c145 0 247 130 247 311c0 243 -183 388 -339 388c-52 0 -96 -16 -132 -43c96 -67 157 -178 157 -304c0 -108 -46 -206 -120 -274c54 -49 118 -78 187 -78z
M633 97c39 55 61 128 61 213c0 129 -52 231 -123 297c-38 -52 -59 -122 -59 -200c0 -118 48 -232 121 -310z" />
    <glyph glyph-name="O_U" horiz-adv-x="814" 
d="M406 -20c-209 0 -366 169 -366 371c0 203 157 369 366 369c208 0 368 -166 368 -369c0 -202 -160 -371 -368 -371zM447 -1c145 0 247 130 247 311c0 243 -183 388 -339 388c-147 0 -237 -128 -237 -291c0 -210 151 -408 329 -408zM635 510h-22c-46 0 -50 -5 -50 -47v-181
c0 -56 -12 -141 -144 -141c-97 0 -159 47 -159 125v202c0 33 0 42 -41 42h-45l21 12h207l22 -12h-59c-38 0 -38 -9 -38 -42v-188c0 -41 0 -125 106 -125c97 0 118 68 118 127v180c0 43 -5 48 -61 48h-66l19 12h183z" />
    <glyph glyph-name="P_H" horiz-adv-x="1394" 
d="M-10 0l20 12h50c78 0 80 32 80 114v471c0 65 0 91 -85 91h-65l20 12h350c81 0 195 -25 195 -164c0 -106 -66 -167 -146 -190h301v251c0 65 0 91 -75 91h-76l20 12h337l10 -12h-71c-70 0 -70 -26 -70 -91v-251h315c75 0 80 18 80 105v146c0 65 0 91 -75 91h-66l10 12h335
l20 -12h-66c-84 0 -84 -26 -84 -91v-472c0 -81 2 -113 80 -113h50l20 -12h-365l10 12h61c68 0 70 32 70 114v118c0 80 -35 90 -110 90h-285v-209c0 -81 2 -113 75 -113h56l10 -12h-367l20 12h61c68 0 70 32 70 114v208h-435c-55 0 -60 -20 -60 -80v-129
c0 -81 2 -113 75 -113h56l10 -12h-366zM266 346h92c62 9 118 55 118 176c0 139 -123 166 -168 166c-84 0 -93 -4 -93 -91v-149c0 -64 0 -102 51 -102z" />
    <glyph glyph-name="Q_J" horiz-adv-x="1224" 
d="M1214 700l20 -12h-70c-70 0 -70 -26 -70 -91v-423c0 -252 -172 -374 -370 -374c-292 0 -684 269 -684 563c0 186 157 356 367 356c206 0 367 -164 367 -368c0 -184 -133 -369 -364 -365c76 -91 188 -173 323 -173c170 0 286 130 286 362v422c0 65 0 91 -75 91h-76l20 12
h326zM118 388c0 -202 140 -387 322 -387c151 0 254 126 254 306c0 223 -159 396 -322 396c-144 0 -254 -136 -254 -315z" />
    <glyph glyph-name="Q_U" horiz-adv-x="1435" 
d="M459 -14c103 -93 634 -275 984 14h20c-392 -319 -1021 -170 -1286 60c-82 71 -137 165 -137 288c0 207 157 371 366 371c208 0 368 -165 368 -368c0 -184 -133 -340 -315 -365zM440 1c151 0 254 126 254 306c0 223 -159 396 -322 396c-144 0 -254 -136 -254 -315
c0 -202 140 -387 322 -387zM1128 76c-143 0 -241 71 -241 203v331c0 57 0 78 -65 78h-57l17 12h319l18 -12h-96c-61 0 -61 -21 -61 -78v-305c0 -67 17 -212 191 -212c155 0 193 117 193 216v301c0 74 -8 78 -97 78h-130l17 12h341l18 -12h-54c-77 0 -83 -1 -83 -86v-294
c0 -92 -30 -232 -230 -232z" />
    <glyph glyph-name="R_A" horiz-adv-x="1191" 
d="M913 -134c-549 0 -509 487 -645 504l-7 12c109 -13 215 8 215 140c0 139 -93 166 -168 166c-85 0 -93 -7 -93 -91v-472c0 -81 2 -113 75 -113h56l10 -12h-366l20 12h50c78 0 80 32 80 114v471c0 65 0 91 -85 91h-65l20 12h350c81 0 195 -25 195 -164
c0 -105 -113 -164 -218 -168c183 -55 154 -489 593 -489c109 0 216 39 308 121h17c-98 -92 -206 -134 -342 -134zM601 73l-10 12h15c27 0 60 0 84 55l218 501s-7 47 -142 47h-122l19 12h284l241 -563c17 -39 47 -52 86 -52h28l9 -12h-369l17 12h75c85 0 74 30 31 142
c-15 41 -42 41 -82 41h-158c-57 0 -68 -3 -92 -58c-39 -90 -53 -125 39 -125h73l18 -12h-262zM825 280h158c44 0 54 20 36 69l-105 278c-55 -131 -100 -228 -130 -304c-16 -40 5 -43 41 -43z" />
    <glyph glyph-name="R_E" horiz-adv-x="907" 
d="M904 177l13 -5l-85 -172h-552l20 12h75c73 0 75 32 75 113v472c0 87 -9 91 -93 91c-75 0 -168 -27 -168 -166c0 -132 106 -153 215 -140l-9 -13c-137 -17 -170 -439 -463 -439h-52l10 12h25c204 0 222 375 410 426c-104 5 -215 64 -215 168c0 139 114 164 195 164h426
c62 0 117 6 138 17l5 -8c-37 -38 -47 -107 -47 -224l-12 11c0 91 -5 192 -84 192h-121c-79 0 -84 -18 -84 -91v-121c0 -84 5 -102 60 -102h65c74 0 74 28 74 115h12v-267l-12 10c0 60 0 130 -74 130h-65c-55 0 -60 -20 -60 -80v-157c0 -82 3 -113 77 -113
c151 1 238 50 301 165z" />
    <glyph glyph-name="R_O" horiz-adv-x="1302" 
d="M949 87c-180 0 -312 145 -312 318c0 172 132 315 312 315c176 0 313 -143 313 -315c0 -173 -137 -318 -313 -318zM989 106c90 0 194 82 194 265c0 172 -125 334 -265 334c-112 0 -203 -108 -203 -268c0 -144 106 -331 274 -331zM913 -134c-549 0 -509 487 -645 504l-7 12
c109 -13 215 8 215 140c0 139 -93 166 -168 166c-85 0 -93 -7 -93 -91v-472c0 -81 2 -113 75 -113h56l10 -12h-366l20 12h50c78 0 80 32 80 114v471c0 65 0 91 -85 91h-65l20 12h350c81 0 195 -25 195 -164c0 -105 -113 -164 -218 -168c183 -55 154 -489 593 -489
c109 0 216 39 308 121h17c-98 -92 -206 -134 -342 -134z" />
    <glyph glyph-name="R_U" horiz-adv-x="1247" 
d="M913 -134c-549 0 -509 487 -645 504l-7 12c109 -13 215 8 215 140c0 139 -93 166 -168 166c-85 0 -93 -7 -93 -91v-472c0 -81 2 -113 75 -113h56l10 -12h-366l20 12h50c78 0 80 32 80 114v471c0 65 0 91 -85 91h-65l20 12h350c81 0 195 -25 195 -164
c0 -105 -113 -164 -218 -168c183 -55 154 -489 593 -489c109 0 216 39 308 121h17c-98 -92 -206 -134 -342 -134zM940 74c-149 0 -242 75 -242 203v333c0 57 0 78 -65 78h-57l17 12h319l18 -12h-96c-61 0 -61 -21 -61 -78v-307c0 -67 17 -212 191 -212
c157 0 193 117 193 216v302c0 78 -8 79 -97 79h-130l17 12h342l18 -12h-55c-77 0 -83 -1 -83 -86v-296c0 -92 -30 -232 -229 -232z" />
    <glyph glyph-name="T_H" horiz-adv-x="1019" 
d="M136 0l10 12h61c68 0 70 32 70 114v471c0 65 0 91 -75 91h-79c-90 0 -90 -136 -90 -194l-12 -4c0 107 -4 181 -41 219l4 8c21 -11 76 -17 138 -17h391c62 0 118 6 139 17l5 -8c-37 -38 -43 -112 -43 -219l-12 4c0 54 -1 194 -89 194h-91c-70 0 -70 -26 -70 -91v-141
c0 -84 5 -102 60 -102h312c75 0 80 18 80 105v138c0 65 0 91 -75 91h-66l10 12h336l20 -12h-66c-84 0 -84 -26 -84 -91v-472c0 -81 2 -113 80 -113h50l20 -12h-366l10 12h61c68 0 70 32 70 114v136c0 60 -5 80 -80 80h-312c-55 0 -60 -20 -60 -80v-137c0 -81 2 -113 75 -113
h56l10 -12h-357z" />
    <glyph glyph-name="T_H_E" horiz-adv-x="1261" 
d="M137 0l10 12h61c68 0 70 32 70 114v471c0 65 0 91 -75 91h-80c-90 0 -91 -160 -91 -190l-10 -8c0 117 -5 181 -42 219l5 8c21 -11 76 -17 138 -17h391c62 0 117 6 138 17l2 -5c-4 -4 -7 -8 -10 -12h439c62 0 117 6 138 17l6 -8c-37 -38 -47 -107 -47 -224l-12 11
c0 91 -5 192 -85 192h-134c-70 0 -70 -26 -70 -91v-164c0 -48 15 -59 59 -59h65c74 0 74 28 74 115h12v-267l-12 10c0 60 0 130 -74 130h-65c-44 0 -59 -13 -59 -48v-189c0 -81 2 -113 75 -113c152 0 244 47 307 163l10 -3l-86 -172h-552l20 12h81c68 0 70 32 70 114v167
c0 50 -4 67 -73 67h-318c-55 0 -60 -20 -60 -80v-155c0 -81 2 -113 75 -113h56l10 -12h-357zM413 372h318c69 0 73 15 73 86v139c0 65 0 91 -75 91h-92c-21 -43 -22 -91 -22 -198l-13 4c0 34 -1 194 -88 194h-91c-70 0 -70 -26 -70 -91v-123c0 -84 5 -102 60 -102z" />
    <glyph glyph-name="T_R" horiz-adv-x="803" 
d="M871 -70c-293 0 -326 422 -463 439l-9 13c109 -13 215 8 215 140c0 139 -87 166 -162 166c-92 0 -99 -5 -99 -91v-472c0 -81 2 -113 75 -113h56l10 -12h-367l20 12h61c68 0 70 32 70 114v471c0 65 0 91 -75 91h-80c-89 0 -89 -142 -89 -190l-12 -8c0 107 -5 181 -42 219
l5 8c21 -11 76 -17 138 -17h381c81 0 189 -25 189 -164c0 -104 -111 -163 -215 -168c188 -51 206 -426 410 -426h25l10 -12h-52z" />
    <glyph glyph-name="T_T" horiz-adv-x="987" 
d="M127 0l20 12h61c68 0 70 32 70 114v471c0 65 0 91 -75 91h-80c-89 0 -89 -175 -89 -191l-12 -7c0 117 -5 181 -42 219l5 8c21 -11 76 -17 138 -17h741c62 0 117 6 138 17l5 -8c-37 -38 -42 -112 -42 -219l-12 4c0 19 0 194 -89 194h-91c-70 0 -70 -26 -70 -91v-472
c0 -81 2 -113 75 -113h56l20 -12h-363l19 12h48c68 0 70 32 70 114v471c0 65 0 91 -75 91h-130c-70 0 -70 -26 -70 -91v-472c0 -81 2 -113 75 -113h43l20 -12h-364z" />
    <glyph glyph-name="T__E" horiz-adv-x="736" 
d="M107 0l20 12h81c68 0 70 32 70 114v471c0 65 0 91 -75 91h-80c-89 0 -89 -172 -89 -191l-12 -7c0 107 -5 181 -42 219l5 8c21 -11 76 -17 138 -17h391c62 0 117 6 138 17l5 -8c-37 -38 -42 -112 -42 -219l-12 4c0 22 -1 194 -89 194h-91c-70 0 -70 -26 -70 -91v-121
c0 -84 5 -102 60 -102h65c74 0 74 28 74 115h12v-267l-12 10c0 60 0 130 -74 130h-65c-55 0 -60 -20 -60 -80v-157c0 -81 2 -113 75 -113c152 0 242 49 305 165l13 -5l-86 -172h-553z" />
    <glyph glyph-name="U_R" horiz-adv-x="1115" 
d="M1183 -70c-293 0 -326 422 -463 439l-9 13c109 -13 215 8 215 140c0 139 -93 166 -168 166c-96 0 -106 -2 -106 -101v-320c0 -126 -34 -287 -263 -287c-161 0 -269 91 -269 266v351c0 65 0 91 -86 91h-64l20 12h366l20 -12h-111c-70 0 -70 -26 -70 -91v-323
c0 -138 40 -273 221 -273s224 133 224 266v320c0 98 -10 101 -112 101h-152l20 12h414c81 0 195 -25 195 -164c0 -104 -111 -163 -215 -168c188 -51 206 -426 410 -426h25l10 -12h-52z" />
    <glyph glyph-name="V_R" horiz-adv-x="1080" 
d="M1148 -70c-293 0 -326 422 -463 439l-9 13c109 -13 215 8 215 140c0 139 -113 166 -168 166c-67 0 -89 -12 -109 -61l-258 -647l-273 624c-20 47 -42 84 -97 84h-106l10 12h401l20 -12h-101c-60 0 -63 -29 -54 -53l94 -223c111 -262 121 -284 137 -284c11 0 17 7 39 61
l174 436c25 63 0 63 -106 63h-182l20 12h413c111 0 225 -25 225 -164c0 -104 -111 -163 -215 -168c188 -51 206 -426 410 -426h25l10 -12h-52z" />
    <glyph glyph-name="c_t" horiz-adv-x="921" 
d="M288 -20c-134 0 -258 110 -258 262c0 153 124 260 265 260c-88 73 -47 275 185 275c118 0 203 -64 203 -170v-117h184l11 -13h-192v-333c0 -86 27 -131 94 -131c71 0 114 73 114 199h12c0 -115 -30 -222 -140 -222c-104 0 -150 58 -150 154v334h-114l22 11
c82 0 134 47 147 118c0 98 -78 158 -185 158c-147 0 -212 -78 -212 -148c0 -105 115 -124 191 -173l-48 -143l-11 4c9 121 -47 184 -122 184c-149 0 -173 -140 -173 -209c0 -126 85 -272 208 -272c84 0 147 38 182 138l11 -5c-38 -101 -99 -161 -224 -161z" />
    <glyph glyph-name="e_t" horiz-adv-x="905" 
d="M266 -20c-122 0 -236 110 -236 264c0 151 113 258 253 258c-116 79 -59 275 162 275c129 0 223 -65 223 -170v-117h195l11 -12h-204v-334c0 -86 27 -131 94 -131c71 0 114 73 114 199h12c0 -115 -31 -222 -140 -222c-102 0 -150 58 -150 165v323h-114l23 11
c81 0 134 47 147 118c0 95 -87 158 -204 158c-148 0 -209 -82 -209 -147c-1 -122 195 -123 240 -296h-380c-12 -151 73 -314 191 -314c119 0 173 96 173 193h12c1 -96 -46 -221 -213 -221zM104 334h294c-34 92 -97 146 -156 146c-105 0 -131 -80 -138 -146z" />
    <glyph glyph-name="f_b" horiz-adv-x="892" 
d="M631 -20c-97 0 -147 63 -164 87l-36 -67h-12v585c0 112 -61 144 -122 144c-124 0 -118 -117 -118 -197v-124h118l22 -13h-139v-316c0 -53 18 -67 64 -67h69l22 -12h-345l20 12h37c45 0 63 14 63 67v316h-104l11 12c88 0 92 34 92 87c0 149 80 256 231 256
c50 0 135 -10 149 -12v-294c38 34 86 58 143 58c110 0 230 -96 230 -256c0 -163 -121 -266 -231 -266zM649 -6c67 0 138 79 138 223c0 168 -106 257 -189 257c-66 0 -96 -33 -109 -57v-282c30 -73 82 -141 160 -141z" />
    <glyph glyph-name="f_f_h" horiz-adv-x="1226" 
d="M-10 0l20 12h37c45 0 63 14 63 67v316h-104l11 12c88 0 92 34 92 85c0 151 103 258 235 258c91 0 149 -44 171 -66c17 22 61 66 138 66c51 0 85 -11 120 -34l33 16h8v-387c5 30 50 157 188 157c119 0 129 -108 129 -185v-260c0 -42 31 -45 65 -45h40l20 -12h-317l20 12
h44c34 0 63 3 63 45v257c0 73 -15 156 -102 156c-56 0 -150 -60 -151 -204v-209c0 -42 40 -45 75 -45h31l20 -12h-318l19 12h40c44 0 63 14 63 67v473c0 100 -30 177 -116 177c-118 0 -123 -125 -123 -199v-122h118l21 -13h-139v-316c0 -53 18 -67 64 -67h33l20 -12h-317
l20 12h47c45 0 63 14 63 67v316h-254v-316c0 -53 18 -67 63 -67h41l20 -12h-314zM179 407c228 0 254 2 254 83c0 60 13 79 13 131c0 62 -56 107 -127 107c-132 0 -140 -103 -140 -198v-123z" />
    <glyph glyph-name="f_h" horiz-adv-x="914" 
d="M924 12l20 -12h-318l20 12h45c34 0 63 3 63 45v257c0 73 -16 156 -104 156c-56 0 -150 -60 -150 -204v-187c0 -53 19 -67 64 -67h42l20 -12h-318l20 12h39c45 0 63 14 63 67v478c0 98 -34 173 -124 173c-114 0 -127 -131 -127 -200v-122h124l22 -13h-145v-316
c0 -53 18 -67 63 -67h18l21 -12h-292l20 12h37c45 0 63 14 63 67v316h-104l11 12c88 0 92 34 92 85c0 151 109 258 228 258c71 0 138 -19 163 -30v-375c5 30 50 157 189 157c120 0 130 -107 130 -185v-260c0 -42 30 -45 65 -45h40z" />
    <glyph glyph-name="f_j" horiz-adv-x="586" 
d="M487 473h9v-503c0 -133 -67 -220 -171 -220h-50l11 12h38c83 0 102 43 102 208v358c0 73 -23 74 -246 68v-317c0 -53 18 -67 64 -67h16l19 -12h-289l20 12h37c45 0 63 14 63 67v316h-104l11 13c88 0 92 33 92 85c0 150 103 257 255 257c23 0 74 -3 103 -9l-11 -170h-11
c-8 106 -65 158 -125 158c-120 0 -140 -110 -140 -221v-99c202 3 289 51 307 64z" />
    <glyph glyph-name="f_k" horiz-adv-x="900" 
d="M-10 0l20 12h37c45 0 63 14 63 67v316h-104l11 12c88 0 92 34 92 85c0 151 98 258 238 258c77 0 162 -11 162 -11v-504l184 173c31 32 52 70 -43 70h-18l-21 12h288l-22 -12h-25c-45 0 -84 -16 -129 -58l-97 -92l199 -269c28 -38 60 -47 83 -47h27l20 -12h-301l9 12h37
c43 0 57 14 35 47l-163 218l-63 -59v-161c0 -42 30 -45 64 -45h29l10 -12h-292l20 12h37c44 0 62 14 62 67v479c0 139 -53 172 -131 172c-117 0 -129 -127 -129 -200v-122h118l22 -13h-139v-316c0 -53 18 -67 116 -67h4l20 -12h-330z" />
    <glyph glyph-name="f_t" horiz-adv-x="718" 
d="M563 -10c-102 0 -150 58 -150 165v260h-233v-335c0 -54 18 -68 64 -68h69l22 -12h-345l20 12h37c45 0 63 14 63 67v316h-104l11 12c88 0 92 34 92 85c0 151 108 258 230 258c75 0 142 -33 142 -33v-289h163l21 -12h-182v-272c0 -86 28 -131 95 -131c71 0 113 73 113 199
h12c0 -115 -30 -222 -140 -222zM180 427h118c125 0 151 31 171 149c-10 80 -59 153 -163 153c-111 0 -126 -124 -126 -199v-103z" />
    <glyph glyph-name="g_i" horiz-adv-x="797" 
d="M200 -235c-85 0 -150 37 -150 114c0 64 52 122 111 146c-41 0 -92 22 -92 77c0 45 49 80 68 93c-43 28 -73 75 -73 137c0 103 90 170 189 170c31 0 73 -10 104 -26c46 106 127 224 230 224c67 0 96 -50 96 -50l-48 -130l-10 3c17 105 -29 136 -71 136
c-64 0 -123 -64 -162 -140c-38 -74 45 -88 45 -187c0 -111 -101 -171 -189 -171c-34 0 -69 10 -100 27c-26 -24 -30 -40 -30 -57c0 -38 36 -52 95 -52h102c91 0 154 -28 154 -104c0 -106 -121 -210 -269 -210zM498 0l22 12h49c45 0 63 14 63 67v260c0 90 -20 108 -122 73
l-5 11l190 69h7v-413c0 -53 19 -67 64 -67h41l20 -12h-329zM268 175c64 0 94 64 94 139c0 111 -70 174 -129 174c-79 0 -95 -84 -95 -128c0 -84 46 -185 130 -185zM246 -210c87 0 175 54 175 138c0 66 -43 97 -129 97h-88c-50 0 -86 -47 -86 -105c0 -69 39 -130 128 -130z
" />
    <glyph glyph-name="g_j" horiz-adv-x="792" 
d="M200 -235c-85 0 -150 37 -150 114c0 64 52 122 111 146c-41 0 -92 22 -92 77c0 45 49 80 68 93c-43 28 -73 75 -73 137c0 103 90 170 189 170c31 0 73 -10 104 -26c46 106 127 224 230 224c67 0 96 -50 96 -50l-48 -130l-10 3c17 105 -29 136 -71 136
c-64 0 -123 -64 -162 -140c-38 -74 45 -88 45 -187c0 -111 -101 -171 -189 -171c-34 0 -69 10 -100 27c-26 -24 -30 -40 -30 -57c0 -38 36 -52 95 -52h102c91 0 154 -28 154 -104c0 -106 -121 -210 -269 -210zM695 492h7v-522c0 -133 -57 -220 -162 -220h-49l11 12h36
c85 0 94 40 94 208v369c0 90 -20 108 -122 73l-5 11zM268 175c64 0 94 64 94 139c0 111 -70 174 -129 174c-79 0 -95 -84 -95 -128c0 -84 46 -185 130 -185zM246 -210c87 0 175 54 175 138c0 66 -43 97 -129 97h-88c-50 0 -86 -47 -86 -105c0 -69 39 -130 128 -130z" />
    <glyph glyph-name="g_t" horiz-adv-x="888" 
d="M861 212h12c0 -115 -30 -222 -141 -222c-103 0 -149 58 -149 165v323h-53c-69 0 -111 -4 -152 -16c28 -22 59 -69 59 -130c0 -111 -101 -171 -189 -171c-34 0 -69 10 -100 27c-26 -24 -30 -40 -30 -57c0 -38 36 -52 95 -52h102c91 0 154 -28 154 -104
c0 -107 -121 -210 -269 -210c-85 0 -150 37 -150 114c0 64 52 122 111 146c-41 0 -92 22 -92 77c0 45 49 80 68 93c-43 28 -73 75 -73 137c0 103 90 170 189 170c57 0 103 -12 199 -12h49c86 0 112 45 137 170h12v-170h162v-12l-1 -105l-12 -8c0 98 -25 109 -146 112v-333
c0 -86 27 -131 94 -131c71 0 114 73 114 199zM268 175c64 0 94 64 94 139c0 111 -70 174 -129 174c-79 0 -95 -84 -95 -128c0 -84 46 -185 130 -185zM292 25h-88c-50 0 -86 -47 -86 -105c0 -69 39 -130 128 -130c87 0 175 54 175 138c0 66 -43 97 -129 97z" />
    <glyph glyph-name="o_t" horiz-adv-x="960" 
d="M290 -20c-134 0 -260 113 -260 265c0 150 139 273 289 254c-113 79 -53 278 180 278c121 0 223 -65 223 -170v-117h195l11 -12h-204v-334c0 -86 28 -133 94 -133c74 0 115 77 115 201h12c0 -115 -26 -222 -142 -222c-101 0 -149 58 -149 165v323h-112l21 12
c81 0 134 46 147 117c0 95 -95 158 -204 158c-147 0 -221 -74 -221 -143c0 -125 266 -146 266 -377c0 -152 -126 -265 -261 -265zM321 -4c75 0 153 76 153 220c0 169 -117 270 -209 270c-128 0 -160 -135 -160 -203c0 -126 83 -287 216 -287z" />
    <glyph glyph-name="r_i" horiz-adv-x="641" 
d="M651 12l20 -12h-676l20 12h37c45 0 63 14 63 67v260c0 90 -20 108 -122 73l-5 11l190 69h7v-166c3 32 59 374 257 374c64 0 105 -50 105 -50l-58 -130l-11 3c20 82 -9 144 -75 144c-130 0 -213 -286 -218 -425v-162c0 -54 19 -68 64 -68h65l19 -11l19 11h61
c45 0 63 14 63 67v260c0 90 -20 108 -122 73l-5 11l190 69h7v-413c0 -53 19 -67 64 -67h41z" />
    <glyph glyph-name="r_j" horiz-adv-x="636" 
d="M-5 0l20 12h37c45 0 63 14 63 67v260c0 90 -20 108 -122 73l-5 11l190 69h7v-166c3 32 56 374 254 374c64 0 105 -50 105 -50l-58 -130l-11 3c20 82 -9 144 -75 144c-130 0 -210 -286 -215 -425v-162c0 -54 19 -68 64 -68h65l20 -12h-339zM325 -250l11 12h37
c84 0 103 40 103 208v369c0 90 -20 108 -123 73l-5 11l191 69h7v-522c0 -133 -67 -220 -171 -220h-50z" />
    <glyph glyph-name="r_v" horiz-adv-x="864" 
d="M908 490l21 -12h-49c-57 0 -74 -4 -95 -56l-160 -445l-191 456c-3 7 -6 13 -9 18l-53 -119l-11 3c10 67 13 150 -37 150c-78 0 -139 -238 -139 -380v-25c0 -53 19 -68 64 -68h65l20 -12h-339l20 12c82 0 100 14 100 68v259c0 90 -20 108 -122 73l-5 11l190 69h7v-286
c3 32 31 306 154 306c28 0 49 -11 64 -22h205l32 -12h-77c-35 0 -70 -3 -53 -45l143 -343l119 332c17 57 -14 56 -66 56h-65l32 12h235z" />
    <glyph glyph-name="s_t" horiz-adv-x="806" 
d="M215 -20c-87 0 -158 55 -158 60l-12 123h12c27 -111 73 -171 158 -171c70 0 108 34 108 93c0 142 -265 138 -265 287c0 92 78 131 161 131c-114 72 -72 274 138 274c113 0 211 -67 211 -170v-117h195l11 -12h-204v-334c0 -86 28 -133 94 -133c74 0 115 77 115 201h12
c0 -115 -26 -222 -142 -222c-101 0 -149 58 -149 165v323h-113l21 12c82 0 135 46 148 117c0 92 -91 158 -193 158c-140 0 -187 -84 -187 -137c0 -101 161 -141 182 -197l-44 -112l-10 4c9 114 -25 166 -97 166c-59 0 -90 -38 -90 -91c0 -115 273 -141 273 -269
c0 -90 -76 -149 -175 -149z" />
    <glyph glyph-name="u_t" horiz-adv-x="964" 
d="M235 -20c-131 0 -140 107 -140 183v210c0 101 -4 105 -125 105l20 12h170v-321c0 -74 15 -157 114 -157c83 0 141 101 141 198v150c0 154 -154 157 -154 277c0 63 59 140 221 140c160 0 244 -65 244 -170v-117h195l11 -12h-204v-334c0 -86 28 -133 94 -133
c74 0 115 77 115 201h12c0 -115 -26 -222 -142 -222c-102 0 -149 58 -149 165v323h-112l22 12c80 0 132 46 146 117c0 95 -78 158 -227 158c-144 0 -207 -61 -207 -118c0 -91 125 -144 205 -155v-400c0 -79 31 -79 65 -79h17l22 -13h-173v138c-6 -25 -39 -158 -181 -158z
" />
    <glyph glyph-name="D_E.ss01" horiz-adv-x="416" 
d="M210 12c95 0 153 17 194 94l12 -2l-42 -104h-384l20 12h50c34 0 36 16 36 55v230c0 31 0 45 -38 45h-68l20 12h51c35 0 35 16 35 57v230c0 34 0 47 -37 47h-69l20 12h217c119 0 199 -74 199 -171c0 -85 -49 -142 -130 -175h27c32 0 59 3 69 9l4 -6
c-21 -20 -25 -52 -25 -110l-12 4c0 44 0 91 -79 91h-73c-36 0 -36 -14 -36 -45v-50c0 -41 2 -54 42 -54h36c55 0 65 18 65 60h12v-138l-12 4c0 30 -10 62 -65 62h-36c-40 0 -42 -7 -42 -37v-77c0 -39 1 -55 39 -55zM170 646v-239c0 -45 9 -53 28 -53h54c41 0 105 36 105 147
c0 108 -47 187 -154 187c-28 0 -33 -1 -33 -42z" />
    <glyph glyph-name="A.smcp" horiz-adv-x="554" 
d="M-60 0l14 12h35c29 0 62 2 81 39c34 65 170 403 170 403s-6 34 -111 34h-95l15 12h254l199 -446c13 -30 37 -42 67 -42h37l8 -12h-331l13 12h59c68 0 59 26 23 111c-13 30 -32 30 -63 30h-135c-43 0 -53 -4 -71 -46c-28 -67 -39 -95 30 -95h58l13 -12h-270zM180 165h135
c34 0 41 19 26 57l-91 221c-43 -102 -75 -178 -97 -237c-12 -32 0 -41 27 -41z" />
    <glyph glyph-name="Aacute.smcp" horiz-adv-x="554" 
d="M95 571v13l316 86l18 -18zM-60 0l14 12h35c29 0 62 2 81 39c34 65 170 403 170 403s-6 34 -111 34h-95l15 12h254l199 -446c13 -30 37 -42 67 -42h37l8 -12h-331l13 12h59c68 0 59 26 23 111c-13 30 -32 30 -63 30h-135c-43 0 -53 -4 -71 -46c-28 -67 -39 -95 30 -95h58
l13 -12h-270zM180 165h135c34 0 41 19 26 57l-91 221c-43 -102 -75 -178 -97 -237c-12 -32 0 -41 27 -41z" />
    <glyph glyph-name="Abreve.smcp" horiz-adv-x="554" 
d="M263 542c-63 0 -114 44 -114 124h12c0 -68 55 -104 102 -104c49 0 102 36 102 104h12c0 -80 -50 -124 -114 -124zM-60 0l14 12h35c29 0 62 2 81 39c34 65 170 403 170 403s-6 34 -111 34h-95l15 12h254l199 -446c13 -30 37 -42 67 -42h37l8 -12h-331l13 12h59
c68 0 59 26 23 111c-13 30 -32 30 -63 30h-135c-43 0 -53 -4 -71 -46c-28 -67 -39 -95 30 -95h58l13 -12h-270zM180 165h135c34 0 41 19 26 57l-91 221c-43 -102 -75 -178 -97 -237c-12 -32 0 -41 27 -41z" />
    <glyph glyph-name="Acircumflex.smcp" horiz-adv-x="554" 
d="M87 555l176 111l175 -111h-40l-135 94l-135 -94h-41zM-60 0l14 12h35c29 0 62 2 81 39c34 65 170 403 170 403s-6 34 -111 34h-95l15 12h254l199 -446c13 -30 37 -42 67 -42h37l8 -12h-331l13 12h59c68 0 59 26 23 111c-13 30 -32 30 -63 30h-135c-43 0 -53 -4 -71 -46
c-28 -67 -39 -95 30 -95h58l13 -12h-270zM180 165h135c34 0 41 19 26 57l-91 221c-43 -102 -75 -178 -97 -237c-12 -32 0 -41 27 -41z" />
    <glyph glyph-name="Adieresis.smcp" horiz-adv-x="554" 
d="M176 592c-17 0 -44 27 -44 42c0 19 27 46 44 46c16 0 44 -27 44 -46c0 -15 -28 -42 -44 -42zM350 592c-18 0 -45 27 -45 42c0 19 27 46 45 46c16 0 43 -27 43 -46c0 -15 -27 -42 -43 -42zM-60 0l14 12h35c29 0 62 2 81 39c34 65 170 403 170 403s-6 34 -111 34h-95l15 12
h254l199 -446c13 -30 37 -42 67 -42h37l8 -12h-331l13 12h59c68 0 59 26 23 111c-13 30 -32 30 -63 30h-135c-43 0 -53 -4 -71 -46c-28 -67 -39 -95 30 -95h58l13 -12h-270zM180 165h135c34 0 41 19 26 57l-91 221c-43 -102 -75 -178 -97 -237c-12 -32 0 -41 27 -41z" />
    <glyph glyph-name="Agrave.smcp" horiz-adv-x="554" 
d="M428 571l-334 81l18 18l316 -86v-13zM-60 0l14 12h35c29 0 62 2 81 39c34 65 170 403 170 403s-6 34 -111 34h-95l15 12h254l199 -446c13 -30 37 -42 67 -42h37l8 -12h-331l13 12h59c68 0 59 26 23 111c-13 30 -32 30 -63 30h-135c-43 0 -53 -4 -71 -46
c-28 -67 -39 -95 30 -95h58l13 -12h-270zM180 165h135c34 0 41 19 26 57l-91 221c-43 -102 -75 -178 -97 -237c-12 -32 0 -41 27 -41z" />
    <glyph glyph-name="Amacron.smcp" horiz-adv-x="554" 
d="M51 618v12h415v-12h-415zM-60 0l14 12h35c29 0 62 2 81 39c34 65 170 403 170 403s-6 34 -111 34h-95l15 12h254l199 -446c13 -30 37 -42 67 -42h37l8 -12h-331l13 12h59c68 0 59 26 23 111c-13 30 -32 30 -63 30h-135c-43 0 -53 -4 -71 -46c-28 -67 -39 -95 30 -95h58
l13 -12h-270zM180 165h135c34 0 41 19 26 57l-91 221c-43 -102 -75 -178 -97 -237c-12 -32 0 -41 27 -41z" />
    <glyph glyph-name="Aogonek.smcp" horiz-adv-x="554" 
d="M616 -123h12c0 -46 -35 -85 -92 -85c-56 0 -97 42 -97 93c0 70 70 101 120 115h-276l13 12h59c68 0 59 26 23 111c-13 30 -32 30 -63 30h-135c-43 0 -53 -4 -71 -46c-28 -67 -39 -95 30 -95h58l13 -12h-270l14 12h35c29 0 62 2 81 39c34 65 170 403 170 403
s-6 34 -111 34h-95l15 12h254l199 -446c13 -30 37 -42 67 -42h37l8 -12h-38c-55 -22 -86 -61 -86 -112c0 -44 23 -74 64 -75c37 -1 62 30 62 64zM315 165c34 0 41 19 26 57l-91 221c-43 -102 -75 -178 -97 -237c-12 -32 0 -41 27 -41h135z" />
    <glyph glyph-name="Aring.smcp" horiz-adv-x="554" 
d="M259 543c-60 0 -107 47 -107 107c0 59 47 106 107 106s107 -47 107 -106c0 -60 -47 -107 -107 -107zM258 556c53 0 87 42 87 93c0 50 -34 94 -87 94s-85 -44 -85 -94c0 -51 32 -93 85 -93zM-60 0l14 12h35c29 0 62 2 81 39c34 65 170 403 170 403s-6 34 -111 34h-95
l15 12h254l199 -446c13 -30 37 -42 67 -42h37l8 -12h-331l13 12h59c68 0 59 26 23 111c-13 30 -32 30 -63 30h-135c-43 0 -53 -4 -71 -46c-28 -67 -39 -95 30 -95h58l13 -12h-270zM180 165h135c34 0 41 19 26 57l-91 221c-43 -102 -75 -178 -97 -237c-12 -32 0 -41 27 -41z
" />
    <glyph glyph-name="Aringacute.smcp" horiz-adv-x="554" 
d="M108 740v12l292 80l17 -17zM259 540c-55 0 -99 43 -99 98s44 98 99 98s99 -43 99 -98s-44 -98 -99 -98zM258 552c49 0 80 38 80 85s-31 87 -80 87s-78 -40 -78 -87s29 -85 78 -85zM-60 0l14 12h35c29 0 62 2 81 39c34 65 170 403 170 403s-6 34 -111 34h-95l15 12h254
l199 -446c13 -30 37 -42 67 -42h37l8 -12h-331l13 12h59c68 0 59 26 23 111c-13 30 -32 30 -63 30h-135c-43 0 -53 -4 -71 -46c-28 -67 -39 -95 30 -95h58l13 -12h-270zM180 165h135c34 0 41 19 26 57l-91 221c-43 -102 -75 -178 -97 -237c-12 -32 0 -41 27 -41z" />
    <glyph glyph-name="Atilde.smcp" horiz-adv-x="554" 
d="M107 576l-12 5s25 85 92 85c68 0 90 -77 152 -77c53 0 73 51 73 51l11 -4s-23 -60 -84 -60c-68 0 -97 68 -152 68c-56 0 -80 -68 -80 -68zM-60 0l14 12h35c29 0 62 2 81 39c34 65 170 403 170 403s-6 34 -111 34h-95l15 12h254l199 -446c13 -30 37 -42 67 -42h37l8 -12
h-331l13 12h59c68 0 59 26 23 111c-13 30 -32 30 -63 30h-135c-43 0 -53 -4 -71 -46c-28 -67 -39 -95 30 -95h58l13 -12h-270zM180 165h135c34 0 41 19 26 57l-91 221c-43 -102 -75 -178 -97 -237c-12 -32 0 -41 27 -41z" />
    <glyph glyph-name="AE.smcp" horiz-adv-x="617" 
d="M-120 0l6 13h50c29 0 46 4 67 39l158 266c99 166 97 170 -17 170h-74l8 12h495l2 -9c-26 -15 -31 -64 -31 -146l-12 8c0 64 -3 136 -69 136h-80c-49 0 -49 -20 -49 -76v-75c0 -59 3 -73 42 -73h46c46 0 46 13 46 81h13v-191l-13 7c0 42 0 91 -46 91h-46
c-39 0 -42 -14 -42 -56v-106c0 -57 1 -79 53 -79c106 0 149 27 208 108l12 -3l-73 -117h-393l11 13h58c47 0 49 22 49 79v21c0 31 -13 40 -50 40h-69c-54 0 -62 -1 -92 -51c-19 -31 -53 -89 10 -89h72l11 -13h-261zM140 165h69c50 0 50 19 50 69v225l-135 -228
c-27 -46 -30 -66 16 -66z" />
    <glyph glyph-name="AEacute.smcp" horiz-adv-x="617" 
d="M160 565v12l292 80l17 -17zM-120 0l6 13h50c29 0 46 4 67 39l158 266c99 166 97 170 -17 170h-74l8 12h495l2 -9c-26 -15 -31 -64 -31 -146l-12 8c0 64 -3 136 -69 136h-80c-49 0 -49 -20 -49 -76v-75c0 -59 3 -73 42 -73h46c46 0 46 13 46 81h13v-191l-13 7
c0 42 0 91 -46 91h-46c-39 0 -42 -14 -42 -56v-106c0 -57 1 -79 53 -79c106 0 149 27 208 108l12 -3l-73 -117h-393l11 13h58c47 0 49 22 49 79v21c0 31 -13 40 -50 40h-69c-54 0 -62 -1 -92 -51c-19 -31 -53 -89 10 -89h72l11 -13h-261zM140 165h69c50 0 50 19 50 69v225
l-135 -228c-27 -46 -30 -66 16 -66z" />
    <glyph glyph-name="B.smcp" horiz-adv-x="533" 
d="M10 0l15 12h45c50 0 50 23 50 81v330c0 47 -19 65 -53 65h-53l10 12h236c86 0 197 -13 197 -110c0 -99 -130 -113 -130 -113l-8 -3s179 -9 179 -138c0 -130 -148 -136 -247 -136h-241zM278 12c94 0 144 32 144 124c0 134 -151 134 -198 134l11 12c116 4 146 17 146 108
c0 39 -32 98 -113 98c-73 0 -73 -13 -73 -101v-144c0 -208 0 -231 83 -231z" />
    <glyph glyph-name="C.smcp" horiz-adv-x="561" 
d="M330 -14c-173 0 -290 98 -290 259c0 140 110 263 261 263c110 0 161 -38 197 -30l2 -11c-34 -19 -52 -93 -67 -163l-10 9c11 53 15 183 -122 183c-146 0 -182 -138 -182 -206c0 -133 89 -292 215 -292c101 0 160 60 185 188l12 -2l-35 -156s-79 -42 -166 -42z" />
    <glyph glyph-name="Cacute.smcp" horiz-adv-x="561" 
d="M147 573v12l292 80l17 -17zM330 -14c-173 0 -290 98 -290 259c0 140 110 263 261 263c110 0 161 -38 197 -30l2 -11c-34 -19 -52 -93 -67 -163l-10 9c11 53 15 183 -122 183c-146 0 -182 -138 -182 -206c0 -133 89 -292 215 -292c101 0 160 60 185 188l12 -2l-35 -156
s-79 -42 -166 -42z" />
    <glyph glyph-name="Ccaron.smcp" horiz-adv-x="561" 
d="M302 558l-163 102h38l125 -87l124 87h37zM330 -14c-173 0 -290 98 -290 259c0 140 110 263 261 263c110 0 161 -38 197 -30l2 -11c-34 -19 -52 -93 -67 -163l-10 9c11 53 15 183 -122 183c-146 0 -182 -138 -182 -206c0 -133 89 -292 215 -292c101 0 160 60 185 188
l12 -2l-35 -156s-79 -42 -166 -42z" />
    <glyph glyph-name="Ccedilla.smcp" horiz-adv-x="561" 
d="M330 -14h-20l-82 -93c20 22 50 49 95 49c41 0 86 -28 86 -82c0 -63 -63 -99 -113 -99c-66 0 -86 42 -98 69l12 6c12 -31 32 -59 71 -59c44 0 74 46 74 87c0 36 -14 63 -47 63c-39 0 -80 -51 -80 -51l-18 13l85 98c-154 13 -255 108 -255 258c0 140 110 263 261 263
c110 0 161 -38 197 -30l2 -11c-34 -19 -52 -93 -67 -163l-10 9c11 53 15 183 -122 183c-146 0 -182 -138 -182 -206c0 -133 89 -292 215 -292c101 0 160 60 185 188l12 -2l-35 -156s-79 -42 -166 -42z" />
    <glyph glyph-name="Ccircumflex.smcp" horiz-adv-x="561" 
d="M139 559l163 102l161 -102h-37l-124 87l-125 -87h-38zM330 -14c-173 0 -290 98 -290 259c0 140 110 263 261 263c110 0 161 -38 197 -30l2 -11c-34 -19 -52 -93 -67 -163l-10 9c11 53 15 183 -122 183c-146 0 -182 -138 -182 -206c0 -133 89 -292 215 -292
c101 0 160 60 185 188l12 -2l-35 -156s-79 -42 -166 -42z" />
    <glyph glyph-name="Cdotaccent.smcp" horiz-adv-x="561" 
d="M298 581c-34 0 -62 28 -62 62s28 62 62 62s62 -28 62 -62s-28 -62 -62 -62zM330 -14c-173 0 -290 98 -290 259c0 140 110 263 261 263c110 0 161 -38 197 -30l2 -11c-34 -19 -52 -93 -67 -163l-10 9c11 53 15 183 -122 183c-146 0 -182 -138 -182 -206
c0 -133 89 -292 215 -292c101 0 160 60 185 188l12 -2l-35 -156s-79 -42 -166 -42z" />
    <glyph glyph-name="D.smcp" horiz-adv-x="620" 
d="M10 0l15 12h45c49 0 50 23 50 81v330c0 47 0 65 -52 65h-53l10 12h277c165 0 278 -118 278 -241c0 -159 -124 -259 -243 -259h-327zM247 12h90c56 0 164 55 164 196c0 166 -84 280 -236 280c-68 0 -70 -1 -70 -59v-342c0 -53 1 -75 52 -75z" />
    <glyph glyph-name="Eth.smcp" horiz-adv-x="620" 
d="M302 500c165 0 278 -118 278 -241c0 -159 -124 -259 -243 -259h-327l15 12h45c49 0 50 23 50 81v193h-101l20 12h81v125c0 47 0 65 -52 65h-53l10 12h277zM337 12c56 0 164 55 164 196c0 166 -84 280 -236 280c-68 0 -70 -1 -70 -59v-131h89l20 -12h-109v-199
c0 -53 1 -75 52 -75h90z" />
    <glyph glyph-name="Dcaron.smcp" horiz-adv-x="620" 
d="M266 550l-163 102h38l125 -87l124 87h37zM10 0l15 12h45c49 0 50 23 50 81v330c0 47 0 65 -52 65h-53l10 12h277c165 0 278 -118 278 -241c0 -159 -124 -259 -243 -259h-327zM247 12h90c56 0 164 55 164 196c0 166 -84 280 -236 280c-68 0 -70 -1 -70 -59v-342
c0 -53 1 -75 52 -75z" />
    <glyph glyph-name="Dcroat.smcp" horiz-adv-x="620" 
d="M302 500c165 0 278 -118 278 -241c0 -159 -124 -259 -243 -259h-327l15 12h45c49 0 50 23 50 81v193h-101l20 12h81v125c0 47 0 65 -52 65h-53l10 12h277zM337 12c56 0 164 55 164 196c0 166 -84 280 -236 280c-68 0 -70 -1 -70 -59v-131h89l20 -12h-109v-199
c0 -53 1 -75 52 -75h90z" />
    <glyph glyph-name="E.smcp" horiz-adv-x="479" 
d="M10 0l15 12h45c49 0 50 23 50 81v331c0 46 0 64 -53 64h-53l11 12h313c43 0 82 4 96 12l2 -8c-26 -26 -31 -73 -31 -154l-13 7c0 64 0 131 -54 131h-95c-48 0 -48 -18 -48 -64v-75c0 -59 3 -76 42 -76h45c47 0 47 24 47 84h13v-191l-13 7c0 41 0 87 -47 87h-45
c-39 0 -42 -10 -42 -52v-117c0 -57 1 -79 53 -79c106 0 163 29 208 110l13 -2l-60 -120h-399z" />
    <glyph glyph-name="Eacute.smcp" horiz-adv-x="479" 
d="M79 571v13l316 86l18 -18zM10 0l15 12h45c49 0 50 23 50 81v331c0 46 0 64 -53 64h-53l11 12h313c43 0 82 4 96 12l2 -8c-26 -26 -31 -73 -31 -154l-13 7c0 64 0 131 -54 131h-95c-48 0 -48 -18 -48 -64v-75c0 -59 3 -76 42 -76h45c47 0 47 24 47 84h13v-191l-13 7
c0 41 0 87 -47 87h-45c-39 0 -42 -10 -42 -52v-117c0 -57 1 -79 53 -79c106 0 163 29 208 110l13 -2l-60 -120h-399z" />
    <glyph glyph-name="Ecaron.smcp" horiz-adv-x="479" 
d="M247 550l-163 102h38l125 -87l124 87h37zM10 0l15 12h45c49 0 50 23 50 81v331c0 46 0 64 -53 64h-53l11 12h313c43 0 82 4 96 12l2 -8c-26 -26 -31 -73 -31 -154l-13 7c0 64 0 131 -54 131h-95c-48 0 -48 -18 -48 -64v-75c0 -59 3 -76 42 -76h45c47 0 47 24 47 84h13
v-191l-13 7c0 41 0 87 -47 87h-45c-39 0 -42 -10 -42 -52v-117c0 -57 1 -79 53 -79c106 0 163 29 208 110l13 -2l-60 -120h-399z" />
    <glyph glyph-name="Ecircumflex.smcp" horiz-adv-x="479" 
d="M71 555l176 111l175 -111h-40l-135 94l-135 -94h-41zM10 0l15 12h45c49 0 50 23 50 81v331c0 46 0 64 -53 64h-53l11 12h313c43 0 82 4 96 12l2 -8c-26 -26 -31 -73 -31 -154l-13 7c0 64 0 131 -54 131h-95c-48 0 -48 -18 -48 -64v-75c0 -59 3 -76 42 -76h45
c47 0 47 24 47 84h13v-191l-13 7c0 41 0 87 -47 87h-45c-39 0 -42 -10 -42 -52v-117c0 -57 1 -79 53 -79c106 0 163 29 208 110l13 -2l-60 -120h-399z" />
    <glyph glyph-name="Edieresis.smcp" horiz-adv-x="479" 
d="M160 592c-17 0 -44 27 -44 42c0 19 27 46 44 46c16 0 44 -27 44 -46c0 -15 -28 -42 -44 -42zM334 592c-18 0 -45 27 -45 42c0 19 27 46 45 46c16 0 43 -27 43 -46c0 -15 -27 -42 -43 -42zM10 0l15 12h45c49 0 50 23 50 81v331c0 46 0 64 -53 64h-53l11 12h313
c43 0 82 4 96 12l2 -8c-26 -26 -31 -73 -31 -154l-13 7c0 64 0 131 -54 131h-95c-48 0 -48 -18 -48 -64v-75c0 -59 3 -76 42 -76h45c47 0 47 24 47 84h13v-191l-13 7c0 41 0 87 -47 87h-45c-39 0 -42 -10 -42 -52v-117c0 -57 1 -79 53 -79c106 0 163 29 208 110l13 -2
l-60 -120h-399z" />
    <glyph glyph-name="Edotaccent.smcp" horiz-adv-x="479" 
d="M243 573c-34 0 -62 28 -62 62s28 62 62 62s62 -28 62 -62s-28 -62 -62 -62zM10 0l15 12h45c49 0 50 23 50 81v331c0 46 0 64 -53 64h-53l11 12h313c43 0 82 4 96 12l2 -8c-26 -26 -31 -73 -31 -154l-13 7c0 64 0 131 -54 131h-95c-48 0 -48 -18 -48 -64v-75
c0 -59 3 -76 42 -76h45c47 0 47 24 47 84h13v-191l-13 7c0 41 0 87 -47 87h-45c-39 0 -42 -10 -42 -52v-117c0 -57 1 -79 53 -79c106 0 163 29 208 110l13 -2l-60 -120h-399z" />
    <glyph glyph-name="Egrave.smcp" horiz-adv-x="479" 
d="M412 571l-334 81l18 18l316 -86v-13zM10 0l15 12h45c49 0 50 23 50 81v331c0 46 0 64 -53 64h-53l11 12h313c43 0 82 4 96 12l2 -8c-26 -26 -31 -73 -31 -154l-13 7c0 64 0 131 -54 131h-95c-48 0 -48 -18 -48 -64v-75c0 -59 3 -76 42 -76h45c47 0 47 24 47 84h13v-191
l-13 7c0 41 0 87 -47 87h-45c-39 0 -42 -10 -42 -52v-117c0 -57 1 -79 53 -79c106 0 163 29 208 110l13 -2l-60 -120h-399z" />
    <glyph glyph-name="Emacron.smcp" horiz-adv-x="479" 
d="M35 618v12h415v-12h-415zM10 0l15 12h45c49 0 50 23 50 81v331c0 46 0 64 -53 64h-53l11 12h313c43 0 82 4 96 12l2 -8c-26 -26 -31 -73 -31 -154l-13 7c0 64 0 131 -54 131h-95c-48 0 -48 -18 -48 -64v-75c0 -59 3 -76 42 -76h45c47 0 47 24 47 84h13v-191l-13 7
c0 41 0 87 -47 87h-45c-39 0 -42 -10 -42 -52v-117c0 -57 1 -79 53 -79c106 0 163 29 208 110l13 -2l-60 -120h-399z" />
    <glyph glyph-name="Eogonek.smcp" horiz-adv-x="479" 
d="M387 -187c37 -1 62 30 62 64h12c0 -46 -35 -85 -92 -85c-56 0 -97 42 -97 93c0 70 70 101 120 115h-382l15 12h45c49 0 50 23 50 81v331c0 46 0 64 -53 64h-53l11 12h313c43 0 82 4 96 12l2 -8c-26 -26 -31 -73 -31 -154l-13 7c0 64 0 131 -54 131h-95
c-48 0 -48 -18 -48 -64v-75c0 -59 3 -76 42 -76h45c47 0 47 24 47 84h13v-191l-13 7c0 41 0 87 -47 87h-45c-39 0 -42 -10 -42 -52v-117c0 -57 1 -79 53 -79c106 0 163 29 208 110l13 -2l-60 -120c-55 -22 -86 -61 -86 -112c0 -44 23 -74 64 -75z" />
    <glyph glyph-name="F.smcp" horiz-adv-x="446" 
d="M10 0l10 12h51c47 0 49 22 49 79v333c0 46 0 64 -53 64h-53l10 12h314c43 0 82 4 96 12l2 -8c-26 -26 -31 -73 -31 -154l-13 7c0 64 0 131 -54 131h-95c-48 0 -48 -18 -48 -64v-75c0 -59 3 -76 42 -76h45c47 0 47 24 47 84h13v-191l-13 7c0 41 0 87 -47 87h-45
c-39 0 -42 -10 -42 -52v-117c0 -57 1 -79 53 -79h63l10 -12h-311z" />
    <glyph glyph-name="G.smcp" horiz-adv-x="587" 
d="M341 -14c-178 0 -301 106 -301 261c0 137 117 261 263 261c112 0 163 -39 199 -30l3 -10c-36 -20 -54 -95 -69 -166l-11 9c11 53 22 185 -122 185c-166 0 -184 -140 -184 -208c0 -128 78 -290 222 -290c167 0 200 234 -35 234h-148l14 12h354l26 -244h-12
c-6 56 -13 88 -26 88c-17 0 -40 -102 -173 -102z" />
    <glyph glyph-name="Gbreve.smcp" horiz-adv-x="587" 
d="M304 550c-63 0 -114 44 -114 124h12c0 -68 55 -104 102 -104c49 0 102 36 102 104h12c0 -80 -50 -124 -114 -124zM341 -14c-178 0 -301 106 -301 261c0 137 117 261 263 261c112 0 163 -39 199 -30l3 -10c-36 -20 -54 -95 -69 -166l-11 9c11 53 22 185 -122 185
c-166 0 -184 -140 -184 -208c0 -128 78 -290 222 -290c167 0 200 234 -35 234h-148l14 12h354l26 -244h-12c-6 56 -13 88 -26 88c-17 0 -40 -102 -173 -102z" />
    <glyph glyph-name="Gcaron.smcp" horiz-adv-x="587" 
d="M304 558l-163 102h38l125 -87l124 87h37zM341 -14c-178 0 -301 106 -301 261c0 137 117 261 263 261c112 0 163 -39 199 -30l3 -10c-36 -20 -54 -95 -69 -166l-11 9c11 53 22 185 -122 185c-166 0 -184 -140 -184 -208c0 -128 78 -290 222 -290c167 0 200 234 -35 234
h-148l14 12h354l26 -244h-12c-6 56 -13 88 -26 88c-17 0 -40 -102 -173 -102z" />
    <glyph glyph-name="Gcircumflex.smcp" horiz-adv-x="587" 
d="M141 559l163 102l161 -102h-37l-124 87l-125 -87h-38zM341 -14c-178 0 -301 106 -301 261c0 137 117 261 263 261c112 0 163 -39 199 -30l3 -10c-36 -20 -54 -95 -69 -166l-11 9c11 53 22 185 -122 185c-166 0 -184 -140 -184 -208c0 -128 78 -290 222 -290
c167 0 200 234 -35 234h-148l14 12h354l26 -244h-12c-6 56 -13 88 -26 88c-17 0 -40 -102 -173 -102z" />
    <glyph glyph-name="uni0122.smcp" horiz-adv-x="587" 
d="M341 -14c-178 0 -301 106 -301 261c0 137 117 261 263 261c112 0 163 -39 199 -30l3 -10c-36 -20 -54 -95 -69 -166l-11 9c11 53 22 185 -122 185c-166 0 -184 -140 -184 -208c0 -128 78 -290 222 -290c167 0 200 234 -35 234h-148l14 12h354l26 -244h-12
c-6 56 -13 88 -26 88c-17 0 -40 -102 -173 -102zM236 -265v11c60 21 91 66 91 111c0 31 -20 32 -20 58c0 12 22 37 34 37c13 0 33 -25 33 -37c0 -82 -46 -148 -138 -180z" />
    <glyph glyph-name="Gdotaccent.smcp" horiz-adv-x="587" 
d="M300 581c-34 0 -62 28 -62 62s28 62 62 62s62 -28 62 -62s-28 -62 -62 -62zM341 -14c-178 0 -301 106 -301 261c0 137 117 261 263 261c112 0 163 -39 199 -30l3 -10c-36 -20 -54 -95 -69 -166l-11 9c11 53 22 185 -122 185c-166 0 -184 -140 -184 -208
c0 -128 78 -290 222 -290c167 0 200 234 -35 234h-148l14 12h354l26 -244h-12c-6 56 -13 88 -26 88c-17 0 -40 -102 -173 -102z" />
    <glyph glyph-name="H.smcp" horiz-adv-x="640" 
d="M10 0l10 12h50c49 0 50 23 50 81v330c0 47 0 65 -53 65h-53l10 12h265l8 -12h-52c-50 0 -50 -18 -50 -65v-92c0 -60 3 -73 43 -73h150c54 0 57 13 57 76v89c0 47 0 65 -53 65h-48l8 12h264l10 -12h-56c-50 0 -50 -18 -50 -65v-330c0 -58 1 -81 54 -81h46l10 -12h-286
l8 12h43c49 0 50 23 50 81v94c0 44 -3 58 -57 58h-150c-40 0 -43 -14 -43 -58v-94c0 -58 1 -81 54 -81h40l8 -12h-287z" />
    <glyph glyph-name="Hbar.smcp" horiz-adv-x="640" 
d="M395 12c49 0 50 23 50 81v94c0 44 -3 58 -57 58h-150c-40 0 -43 -14 -43 -58v-94c0 -58 1 -81 54 -81h40l8 -12h-287l10 12h50c49 0 50 23 50 81v303h-76l20 12h56v15c0 47 0 65 -53 65h-53l10 12h265l8 -12h-52c-50 0 -50 -18 -50 -65v-15h250v15c0 47 0 65 -53 65h-48
l8 12h264l10 -12h-56c-50 0 -50 -18 -50 -65v-15h54l20 -12h-74v-303c0 -58 1 -81 54 -81h46l10 -12h-286l8 12h43zM388 258c54 0 57 13 57 76v62h-250v-65c0 -60 3 -73 43 -73h150z" />
    <glyph glyph-name="Hcircumflex.smcp" horiz-adv-x="640" 
d="M155 551l163 102l161 -102h-37l-124 87l-125 -87h-38zM10 0l10 12h50c49 0 50 23 50 81v330c0 47 0 65 -53 65h-53l10 12h265l8 -12h-52c-50 0 -50 -18 -50 -65v-92c0 -60 3 -73 43 -73h150c54 0 57 13 57 76v89c0 47 0 65 -53 65h-48l8 12h264l10 -12h-56
c-50 0 -50 -18 -50 -65v-330c0 -58 1 -81 54 -81h46l10 -12h-286l8 12h43c49 0 50 23 50 81v94c0 44 -3 58 -57 58h-150c-40 0 -43 -14 -43 -58v-94c0 -58 1 -81 54 -81h40l8 -12h-287z" />
    <glyph glyph-name="I.smcp" horiz-adv-x="315" 
d="M10 0l10 12h50c49 0 50 23 50 78v333c0 46 0 65 -53 65h-52l10 12h265l10 -12h-52c-53 0 -53 -18 -53 -64v-333c0 -57 2 -79 50 -79h50l10 -12h-295z" />
    <glyph glyph-name="Iacute.smcp" horiz-adv-x="315" 
d="M34 571v13l208 86l18 -18zM10 0l10 12h50c49 0 50 23 50 78v333c0 46 0 65 -53 65h-52l10 12h265l10 -12h-52c-53 0 -53 -18 -53 -64v-333c0 -57 2 -79 50 -79h50l10 -12h-295z" />
    <glyph glyph-name="Icircumflex.smcp" horiz-adv-x="315" 
d="M25 555l133 111l131 -111h-29l-102 94l-103 -94h-30zM10 0l10 12h50c49 0 50 23 50 78v333c0 46 0 65 -53 65h-52l10 12h265l10 -12h-52c-53 0 -53 -18 -53 -64v-333c0 -57 2 -79 50 -79h50l10 -12h-295z" />
    <glyph glyph-name="Idieresis.smcp" horiz-adv-x="315" 
d="M82 591c-17 0 -44 27 -44 42c0 19 27 46 44 46c16 0 44 -27 44 -46c0 -15 -28 -42 -44 -42zM234 591c-17 0 -45 27 -45 42c0 19 28 46 45 46c16 0 43 -27 43 -46c0 -15 -27 -42 -43 -42zM10 0l10 12h50c49 0 50 23 50 78v333c0 46 0 65 -53 65h-52l10 12h265l10 -12h-52
c-53 0 -53 -18 -53 -64v-333c0 -57 2 -79 50 -79h50l10 -12h-295z" />
    <glyph glyph-name="Idotaccent.smcp" horiz-adv-x="315" 
d="M154 573c-34 0 -62 28 -62 62s28 62 62 62s62 -28 62 -62s-28 -62 -62 -62zM10 0l10 12h50c49 0 50 23 50 78v333c0 46 0 65 -53 65h-52l10 12h265l10 -12h-52c-53 0 -53 -18 -53 -64v-333c0 -57 2 -79 50 -79h50l10 -12h-295z" />
    <glyph glyph-name="Igrave.smcp" horiz-adv-x="315" 
d="M266 571l-226 81l18 18l208 -86v-13zM10 0l10 12h50c49 0 50 23 50 78v333c0 46 0 65 -53 65h-52l10 12h265l10 -12h-52c-53 0 -53 -18 -53 -64v-333c0 -57 2 -79 50 -79h50l10 -12h-295z" />
    <glyph glyph-name="Imacron.smcp" horiz-adv-x="315" 
d="M23 588l10 12h245l10 -12h-265zM10 0l10 12h50c49 0 50 23 50 78v333c0 46 0 65 -53 65h-52l10 12h265l10 -12h-52c-53 0 -53 -18 -53 -64v-333c0 -57 2 -79 50 -79h50l10 -12h-295z" />
    <glyph glyph-name="Iogonek.smcp" horiz-adv-x="315" 
d="M343 -123h12c0 -46 -35 -85 -92 -85c-56 0 -97 42 -97 93c0 70 70 101 120 115h-276l10 12h50c49 0 50 23 50 78v333c0 46 0 65 -53 65h-52l10 12h265l10 -12h-52c-53 0 -53 -18 -53 -64v-333c0 -57 2 -79 50 -79h50l10 -12h-2c-55 -22 -86 -61 -86 -112
c0 -44 23 -74 64 -75c37 -1 62 30 62 64z" />
    <glyph glyph-name="J.smcp" horiz-adv-x="338" 
d="M-18 -145l-2 6c26 27 28 70 28 152l14 -2c-1 -80 4 -132 58 -132c50 0 73 71 73 220v325c0 46 0 64 -52 64h-53l14 12h252l14 -12h-52c-48 0 -48 -18 -48 -64v-327c0 -162 -45 -230 -148 -230c-44 0 -83 -5 -98 -12z" />
    <glyph glyph-name="Jcircumflex.smcp" horiz-adv-x="338" 
d="M67 552l123 102l121 -102h-27l-94 87l-95 -87h-28zM-18 -145l-2 6c26 27 28 70 28 152l14 -2c-1 -80 4 -132 58 -132c50 0 73 71 73 220v325c0 46 0 64 -52 64h-53l14 12h252l14 -12h-52c-48 0 -48 -18 -48 -64v-327c0 -162 -45 -230 -148 -230c-44 0 -83 -5 -98 -12z
" />
    <glyph glyph-name="K.smcp" horiz-adv-x="604" 
d="M10 0l14 12h46c49 0 50 23 50 75v337c0 46 0 64 -53 64h-53l10 12h255l15 -12h-50c-49 0 -49 -18 -49 -64v-223l197 188c76 73 96 99 8 99h-106l14 12h307l13 -12h-44c-73 0 -125 -50 -237 -159l159 -255c18 -29 45 -62 113 -62h15l10 -12h-312l15 12h47
c39 0 56 10 29 53l-133 210l-95 -92v-96c0 -53 1 -75 52 -75h32l15 -12h-284z" />
    <glyph glyph-name="uni0136.smcp" horiz-adv-x="604" 
d="M10 0l14 12h46c49 0 50 23 50 75v337c0 46 0 64 -53 64h-53l10 12h255l15 -12h-50c-49 0 -49 -18 -49 -64v-223l197 188c76 73 96 99 8 99h-106l14 12h307l13 -12h-44c-73 0 -125 -50 -237 -159l159 -255c18 -29 45 -62 113 -62h15l10 -12h-312l15 12h47
c39 0 56 10 29 53l-133 210l-95 -92v-96c0 -53 1 -75 52 -75h32l15 -12h-284zM211 -251v11c60 21 91 66 91 111c0 31 -20 32 -20 58c0 12 22 37 34 37c13 0 33 -25 33 -37c0 -82 -46 -148 -138 -180z" />
    <glyph glyph-name="L.smcp" horiz-adv-x="429" 
d="M10 0l15 12h45c49 0 50 23 50 79v333c0 46 0 64 -53 64h-53l11 12h262l6 -12h-50c-48 0 -48 -18 -48 -64v-333c0 -56 1 -79 54 -79c108 0 134 19 178 115l12 -3l-55 -124h-374z" />
    <glyph glyph-name="Lacute.smcp" horiz-adv-x="429" 
d="M0 565v12l292 80l17 -17zM10 0l15 12h45c49 0 50 23 50 79v333c0 46 0 64 -53 64h-53l11 12h262l6 -12h-50c-48 0 -48 -18 -48 -64v-333c0 -56 1 -79 54 -79c108 0 134 19 178 115l12 -3l-55 -124h-374z" />
    <glyph glyph-name="Lcaron.smcp" horiz-adv-x="429" 
d="M155 550l-163 102h38l125 -87l124 87h37zM10 0l15 12h45c49 0 50 23 50 79v333c0 46 0 64 -53 64h-53l11 12h262l6 -12h-50c-48 0 -48 -18 -48 -64v-333c0 -56 1 -79 54 -79c108 0 134 19 178 115l12 -3l-55 -124h-374z" />
    <glyph glyph-name="uni013B.smcp" horiz-adv-x="429" 
d="M10 0l15 12h45c49 0 50 23 50 79v333c0 46 0 64 -53 64h-53l11 12h262l6 -12h-50c-48 0 -48 -18 -48 -64v-333c0 -56 1 -79 54 -79c108 0 134 19 178 115l12 -3l-55 -124h-374zM129 -251v11c60 21 91 66 91 111c0 31 -20 32 -20 58c0 12 22 37 34 37c13 0 33 -25 33 -37
c0 -82 -46 -148 -138 -180z" />
    <glyph glyph-name="Ldot.smcp" horiz-adv-x="429" 
d="M10 0l15 12h45c49 0 50 23 50 79v333c0 46 0 64 -53 64h-53l11 12h262l6 -12h-50c-48 0 -48 -18 -48 -64v-333c0 -56 1 -79 54 -79c108 0 134 19 178 115l12 -3l-55 -124h-374zM379 221c-17 0 -47 30 -47 45c0 17 30 47 47 47c15 0 45 -30 45 -47c0 -15 -30 -45 -45 -45z
" />
    <glyph glyph-name="Lslash.smcp" horiz-adv-x="429" 
d="M427 127l12 -3l-55 -124h-374l15 12h45c49 0 50 23 50 79v125l-83 -76l-8 9l91 83v192c0 46 0 64 -53 64h-53l11 12h262l6 -12h-50c-48 0 -48 -18 -48 -64v-124l95 86l7 -9l-102 -93v-193c0 -56 1 -79 54 -79c108 0 134 19 178 115z" />
    <glyph glyph-name="M.smcp" horiz-adv-x="806" 
d="M361 -14c-199 441 -202 445 -213 445c-8 0 -11 -8 -19 -106l-18 -232c-6 -75 4 -81 76 -81h52l8 -12h-267l14 12h35c61 0 64 25 69 82l29 349c3 42 -16 45 -86 45h-53l14 12h209l91 -207c54 -120 73 -159 87 -159s22 19 75 158l84 208h224l14 -12h-98
c-49 0 -56 -11 -50 -60l39 -337c7 -58 35 -79 86 -79h39l14 -12h-339l6 12h43c47 0 82 14 75 75l-24 206c-13 115 -20 138 -30 138c-16 0 -26 -19 -186 -445z" />
    <glyph glyph-name="N.smcp" horiz-adv-x="597" 
d="M504 -14l-343 434c-11 13 -17 20 -25 20c-11 0 -12 -17 -12 -24l-9 -318c-2 -84 21 -86 80 -86h59l8 -12h-282l10 12h46c40 0 64 8 66 87l10 344c1 28 -5 45 -85 45h-46l14 12h206l290 -369v276c0 78 -33 81 -93 81h-29l11 12h212l10 -12h-33c-41 0 -65 -3 -65 -80v-422z
" />
    <glyph glyph-name="Nacute.smcp" horiz-adv-x="597" 
d="M159 565v12l292 80l17 -17zM504 -14l-343 434c-11 13 -17 20 -25 20c-11 0 -12 -17 -12 -24l-9 -318c-2 -84 21 -86 80 -86h59l8 -12h-282l10 12h46c40 0 64 8 66 87l10 344c1 28 -5 45 -85 45h-46l14 12h206l290 -369v276c0 78 -33 81 -93 81h-29l11 12h212l10 -12h-33
c-41 0 -65 -3 -65 -80v-422z" />
    <glyph glyph-name="Ncaron.smcp" horiz-adv-x="597" 
d="M314 550l-163 102h38l125 -87l124 87h37zM504 -14l-343 434c-11 13 -17 20 -25 20c-11 0 -12 -17 -12 -24l-9 -318c-2 -84 21 -86 80 -86h59l8 -12h-282l10 12h46c40 0 64 8 66 87l10 344c1 28 -5 45 -85 45h-46l14 12h206l290 -369v276c0 78 -33 81 -93 81h-29l11 12
h212l10 -12h-33c-41 0 -65 -3 -65 -80v-422z" />
    <glyph glyph-name="uni0145.smcp" horiz-adv-x="597" 
d="M504 -14l-343 434c-11 13 -17 20 -25 20c-11 0 -12 -17 -12 -24l-9 -318c-2 -84 21 -86 80 -86h59l8 -12h-282l10 12h46c40 0 64 8 66 87l10 344c1 28 -5 45 -85 45h-46l14 12h206l290 -369v276c0 78 -33 81 -93 81h-29l11 12h212l10 -12h-33c-41 0 -65 -3 -65 -80v-422z
M219 -253v11c60 21 91 66 91 111c0 31 -20 32 -20 58c0 12 22 37 34 37c13 0 33 -25 33 -37c0 -82 -46 -148 -138 -180z" />
    <glyph glyph-name="Eng.smcp" horiz-adv-x="597" 
d="M592 500l10 -12h-33c-41 0 -65 -3 -65 -80v-578h-192l20 12h26c79 0 136 21 136 112v45l-333 421c-11 13 -17 20 -25 20c-11 0 -12 -17 -12 -24l-9 -318c-2 -84 21 -86 80 -86h59l8 -12h-282l10 12h46c40 0 64 8 66 87l10 344c1 28 -5 45 -85 45h-46l14 12h206l290 -369
v276c0 78 -33 81 -93 81h-29l11 12h212z" />
    <glyph glyph-name="Ntilde.smcp" horiz-adv-x="597" 
d="M158 576l-12 5s25 85 92 85c68 0 90 -77 152 -77c53 0 73 51 73 51l11 -4s-23 -60 -84 -60c-68 0 -97 68 -152 68c-56 0 -80 -68 -80 -68zM504 -14l-343 434c-11 13 -17 20 -25 20c-11 0 -12 -17 -12 -24l-9 -318c-2 -84 21 -86 80 -86h59l8 -12h-282l10 12h46
c40 0 64 8 66 87l10 344c1 28 -5 45 -85 45h-46l14 12h206l290 -369v276c0 78 -33 81 -93 81h-29l11 12h212l10 -12h-33c-41 0 -65 -3 -65 -80v-422z" />
    <glyph glyph-name="O.smcp" horiz-adv-x="598" 
d="M298 -14c-148 0 -258 119 -258 262s100 260 258 260c147 0 260 -117 260 -260s-102 -262 -260 -262zM331 1c62 0 149 54 149 218c0 171 -120 275 -203 275c-120 0 -161 -127 -161 -216c0 -138 90 -277 215 -277z" />
    <glyph glyph-name="Oacute.smcp" horiz-adv-x="598" 
d="M133 579v13l316 86l18 -18zM298 -14c-148 0 -258 119 -258 262s100 260 258 260c147 0 260 -117 260 -260s-102 -262 -260 -262zM331 1c62 0 149 54 149 218c0 171 -120 275 -203 275c-120 0 -161 -127 -161 -216c0 -138 90 -277 215 -277z" />
    <glyph glyph-name="Ocircumflex.smcp" horiz-adv-x="598" 
d="M125 563l176 111l175 -111h-40l-135 94l-135 -94h-41zM298 -14c-148 0 -258 119 -258 262s100 260 258 260c147 0 260 -117 260 -260s-102 -262 -260 -262zM331 1c62 0 149 54 149 218c0 171 -120 275 -203 275c-120 0 -161 -127 -161 -216c0 -138 90 -277 215 -277z" />
    <glyph glyph-name="Odieresis.smcp" horiz-adv-x="598" 
d="M221 593c-16 0 -41 25 -41 39c0 17 25 42 41 42c15 0 40 -25 40 -42c0 -14 -25 -39 -40 -39zM381 593c-16 0 -41 25 -41 39c0 17 25 42 41 42c15 0 40 -25 40 -42c0 -14 -25 -39 -40 -39zM298 -14c-148 0 -258 119 -258 262s100 260 258 260c147 0 260 -117 260 -260
s-102 -262 -260 -262zM331 1c62 0 149 54 149 218c0 171 -120 275 -203 275c-120 0 -161 -127 -161 -216c0 -138 90 -277 215 -277z" />
    <glyph glyph-name="Ograve.smcp" horiz-adv-x="598" 
d="M466 579l-334 81l18 18l316 -86v-13zM298 -14c-148 0 -258 119 -258 262s100 260 258 260c147 0 260 -117 260 -260s-102 -262 -260 -262zM331 1c62 0 149 54 149 218c0 171 -120 275 -203 275c-120 0 -161 -127 -161 -216c0 -138 90 -277 215 -277z" />
    <glyph glyph-name="Ohungarumlaut.smcp" horiz-adv-x="598" 
d="M224 578c18 22 49 54 49 82c0 22 -11 35 -11 53c0 16 15 33 27 33c13 0 31 -17 31 -37c0 -35 -54 -98 -80 -131h-16zM324 578c18 22 49 54 49 82c0 22 -11 35 -11 53c0 16 15 33 27 33c13 0 31 -17 31 -37c0 -35 -54 -98 -80 -131h-16zM298 -14c-148 0 -258 119 -258 262
s100 260 258 260c147 0 260 -117 260 -260s-102 -262 -260 -262zM331 1c62 0 149 54 149 218c0 171 -120 275 -203 275c-120 0 -161 -127 -161 -216c0 -138 90 -277 215 -277z" />
    <glyph glyph-name="Omacron.smcp" horiz-adv-x="598" 
d="M89 626v12h415v-12h-415zM298 -14c-148 0 -258 119 -258 262s100 260 258 260c147 0 260 -117 260 -260s-102 -262 -260 -262zM331 1c62 0 149 54 149 218c0 171 -120 275 -203 275c-120 0 -161 -127 -161 -216c0 -138 90 -277 215 -277z" />
    <glyph glyph-name="Oslash.smcp" horiz-adv-x="598" 
d="M455 456c63 -47 103 -123 103 -208c0 -143 -102 -262 -260 -262c-45 0 -86 11 -122 30l-48 -76h-15l52 82c-76 46 -125 131 -125 226c0 143 100 260 258 260c55 0 105 -16 146 -44l53 83h15zM116 278c0 -79 29 -158 77 -211l221 349c-41 50 -94 78 -137 78
c-120 0 -161 -127 -161 -216zM331 1c62 0 149 54 149 218c0 76 -24 140 -58 186l-220 -347c36 -35 80 -57 129 -57z" />
    <glyph glyph-name="Oslashacute.smcp" horiz-adv-x="598" 
d="M438 665l17 -17l-309 -75v12zM455 456c63 -47 103 -123 103 -208c0 -143 -102 -262 -260 -262c-45 0 -86 11 -122 30l-48 -76h-15l52 82c-76 46 -125 131 -125 226c0 143 100 260 258 260c55 0 105 -16 146 -44l53 83h15zM116 278c0 -79 29 -158 77 -211l221 349
c-41 50 -94 78 -137 78c-120 0 -161 -127 -161 -216zM331 1c62 0 149 54 149 218c0 76 -24 140 -58 186l-220 -347c36 -35 80 -57 129 -57z" />
    <glyph glyph-name="Otilde.smcp" horiz-adv-x="598" 
d="M157 578l-11 5s23 78 85 78c63 0 83 -71 140 -71c49 0 68 47 68 47l10 -4s-21 -55 -78 -55c-62 0 -89 63 -140 63c-52 0 -74 -63 -74 -63zM298 -14c-148 0 -258 119 -258 262s100 260 258 260c147 0 260 -117 260 -260s-102 -262 -260 -262zM331 1c62 0 149 54 149 218
c0 171 -120 275 -203 275c-120 0 -161 -127 -161 -216c0 -138 90 -277 215 -277z" />
    <glyph glyph-name="OE.smcp" horiz-adv-x="760" 
d="M306 -14c-145 0 -266 118 -266 259c0 142 121 259 266 259c31 0 67 -6 95 -14h218c44 0 83 3 97 11l1 -10c-25 -26 -31 -71 -31 -152l-11 8c0 63 0 130 -56 130h-94c-49 0 -49 -19 -49 -64v-81c0 -58 4 -71 43 -71h45c48 0 48 13 48 74l12 6v-192l-12 8c0 41 0 91 -48 91
h-45c-39 0 -43 -14 -43 -56v-101c0 -57 1 -79 52 -79c106 0 153 4 209 110l13 -2l-60 -120h-289c-28 -10 -63 -14 -95 -14zM340 3c18 0 61 -3 61 33v361c0 61 -71 87 -122 87c-152 0 -162 -131 -162 -199c0 -127 78 -282 223 -282z" />
    <glyph glyph-name="P.smcp" horiz-adv-x="476" 
d="M10 0l15 12h45c49 0 50 23 50 81v331c0 46 0 64 -53 64h-53l11 12h272c57 0 149 -22 149 -114c0 -99 -93 -142 -169 -142c-34 0 -53 3 -53 3v11s14 -2 43 -2c49 0 104 28 104 120s-68 112 -110 112c-59 0 -65 -4 -65 -65v-332c0 -57 1 -79 52 -79h39l8 -12h-285z" />
    <glyph glyph-name="Thorn.smcp" horiz-adv-x="476" 
d="M267 156c49 0 104 28 104 120s-68 112 -110 112c-59 0 -65 -4 -65 -65v-232c0 -57 1 -79 52 -79h39l8 -12h-285l15 12h45c49 0 50 23 50 81v311c0 66 0 84 -53 84h-53l11 12h267l11 -12h-53c-53 0 -54 -22 -54 -88h81c77 0 169 -22 169 -114c0 -99 -93 -142 -169 -142
c-34 0 -53 3 -53 3v11s14 -2 43 -2z" />
    <glyph glyph-name="Q.smcp" horiz-adv-x="615" 
d="M336 -10c35 -26 226 -133 436 10h13c-229 -192 -503 -77 -648 39c-60 48 -97 124 -97 207c0 146 113 262 258 262c157 0 271 -115 271 -262c0 -128 -106 -237 -233 -256zM332 5c82 0 159 72 159 209c0 174 -109 278 -220 278c-130 0 -155 -134 -155 -208
c0 -127 71 -279 216 -279z" />
    <glyph glyph-name="R.smcp" horiz-adv-x="525" 
d="M544 -49c-205 0 -215 308 -311 320l-6 10c86 0 141 11 141 95c0 92 -45 112 -108 112c-58 0 -65 -4 -65 -65v-331c0 -57 1 -79 52 -79h39l8 -13h-284l15 12h45c49 0 50 23 50 81v330c0 47 0 65 -52 65h-54l10 12h272c57 0 148 -22 148 -114c0 -73 -73 -113 -159 -114
c144 -38 152 -309 295 -309h17l8 -12h-61z" />
    <glyph glyph-name="Racute.smcp" horiz-adv-x="525" 
d="M93 565v12l292 80l17 -17zM544 -49c-205 0 -215 308 -311 320l-6 10c86 0 141 11 141 95c0 92 -45 112 -108 112c-58 0 -65 -4 -65 -65v-331c0 -57 1 -79 52 -79h39l8 -13h-284l15 12h45c49 0 50 23 50 81v330c0 47 0 65 -52 65h-54l10 12h272c57 0 148 -22 148 -114
c0 -73 -73 -113 -159 -114c144 -38 152 -309 295 -309h17l8 -12h-61z" />
    <glyph glyph-name="Rcaron.smcp" horiz-adv-x="525" 
d="M248 550l-163 102h38l125 -87l124 87h37zM544 -49c-205 0 -215 308 -311 320l-6 10c86 0 141 11 141 95c0 92 -45 112 -108 112c-58 0 -65 -4 -65 -65v-331c0 -57 1 -79 52 -79h39l8 -13h-284l15 12h45c49 0 50 23 50 81v330c0 47 0 65 -52 65h-54l10 12h272
c57 0 148 -22 148 -114c0 -73 -73 -113 -159 -114c144 -38 152 -309 295 -309h17l8 -12h-61z" />
    <glyph glyph-name="uni0156.smcp" horiz-adv-x="525" 
d="M544 -49c-205 0 -215 308 -311 320l-6 10c86 0 141 11 141 95c0 92 -45 112 -108 112c-58 0 -65 -4 -65 -65v-331c0 -57 1 -79 52 -79h39l8 -13h-284l15 12h45c49 0 50 23 50 81v330c0 47 0 65 -52 65h-54l10 12h272c57 0 148 -22 148 -114c0 -73 -73 -113 -159 -114
c144 -38 152 -309 295 -309h17l8 -12h-61zM198 -251v11c60 21 91 66 91 111c0 31 -20 32 -20 58c0 12 22 37 34 37c13 0 33 -25 33 -37c0 -82 -46 -148 -138 -180z" />
    <glyph glyph-name="S.smcp" horiz-adv-x="451" 
d="M233 -20c-86 0 -180 59 -180 64l-8 153l12 8c3 -99 65 -213 177 -213c95 0 109 66 109 100c0 141 -285 137 -285 291c0 93 88 117 157 117c79 0 141 -25 177 -17l3 -9c-35 -21 -51 -64 -68 -143l-11 8c22 101 -13 149 -101 149c-57 0 -91 -29 -91 -79
c0 -131 282 -126 282 -278c0 -106 -79 -151 -173 -151z" />
    <glyph glyph-name="Sacute.smcp" horiz-adv-x="451" 
d="M71 565v12l292 80l17 -17zM233 -20c-86 0 -180 59 -180 64l-8 153l12 8c3 -99 65 -213 177 -213c95 0 109 66 109 100c0 141 -285 137 -285 291c0 93 88 117 157 117c79 0 141 -25 177 -17l3 -9c-35 -21 -51 -64 -68 -143l-11 8c22 101 -13 149 -101 149
c-57 0 -91 -29 -91 -79c0 -131 282 -126 282 -278c0 -106 -79 -151 -173 -151z" />
    <glyph glyph-name="Scaron.smcp" horiz-adv-x="451" 
d="M226 550l-163 102h38l125 -87l124 87h37zM233 -20c-86 0 -180 59 -180 64l-8 153l12 8c3 -99 65 -213 177 -213c95 0 109 66 109 100c0 141 -285 137 -285 291c0 93 88 117 157 117c79 0 141 -25 177 -17l3 -9c-35 -21 -51 -64 -68 -143l-11 8c22 101 -13 149 -101 149
c-57 0 -91 -29 -91 -79c0 -131 282 -126 282 -278c0 -106 -79 -151 -173 -151z" />
    <glyph glyph-name="Scedilla.smcp" horiz-adv-x="451" 
d="M406 131c0 -106 -78 -151 -172 -151l-74 -85c18 20 46 45 88 45c37 0 79 -26 79 -76c0 -58 -58 -91 -104 -91c-61 0 -80 39 -91 64l11 5c11 -28 30 -54 66 -54c40 0 68 42 68 80c0 33 -13 58 -43 58c-36 0 -74 -47 -74 -47l-17 12l77 89c-82 6 -167 59 -167 64l-8 153
l12 8c3 -99 65 -213 177 -213c95 0 109 66 109 100c0 141 -285 137 -285 291c0 93 88 117 157 117c79 0 141 -25 177 -17l3 -9c-35 -21 -51 -64 -68 -143l-11 8c22 101 -13 149 -101 149c-57 0 -91 -29 -91 -79c0 -131 282 -126 282 -278z" />
    <glyph glyph-name="uni0218.smcp" horiz-adv-x="451" 
d="M233 -20c-86 0 -180 59 -180 64l-8 153l12 8c3 -99 65 -213 177 -213c95 0 109 66 109 100c0 141 -285 137 -285 291c0 93 88 117 157 117c79 0 141 -25 177 -17l3 -9c-35 -21 -51 -64 -68 -143l-11 8c22 101 -13 149 -101 149c-57 0 -91 -29 -91 -79
c0 -131 282 -126 282 -278c0 -106 -79 -151 -173 -151zM127 -270v11c60 21 91 66 91 111c0 31 -20 32 -20 58c0 12 22 37 34 37c13 0 33 -25 33 -37c0 -82 -46 -148 -138 -180z" />
    <glyph glyph-name="uni1E9E.smcp" horiz-adv-x="596" 
d="M397 -14c-73 0 -143 58 -143 64l-11 153l13 7c4 -98 24 -212 142 -212c70 0 96 53 96 92c0 131 -192 139 -192 223c0 83 144 96 144 148c0 29 -35 27 -82 27c-54 0 -168 -27 -168 -164v-232c0 -57 2 -79 39 -79h19l13 -13h-257l14 13h48c47 0 48 22 48 79v232
c0 122 103 176 243 176h169c-57 -83 -193 -108 -193 -175c0 -80 222 -86 222 -213c0 -97 -94 -126 -164 -126z" />
    <glyph glyph-name="T.smcp" horiz-adv-x="492" 
d="M108 0l10 12h40c47 0 49 22 49 79v332c0 46 0 64 -53 64h-55c-70 0 -57 -135 -58 -135l-13 -10c0 81 -2 133 -28 159l2 10c14 -8 53 -12 97 -12h295c44 0 83 4 97 12l1 -10c-26 -26 -27 -78 -27 -159l-14 10c0 39 -1 135 -57 135h-63c-49 0 -49 -18 -49 -64v-332
c0 -57 1 -79 53 -79h35l10 -12h-272z" />
    <glyph glyph-name="Tbar.smcp" horiz-adv-x="492" 
d="M491 511l1 -10c-26 -26 -27 -78 -27 -159l-14 10c0 39 -1 135 -57 135h-63c-49 0 -49 -18 -49 -64v-183h85l20 -12h-105v-137c0 -57 1 -79 53 -79h35l10 -12h-272l10 12h40c47 0 49 22 49 79v137h-104l20 12h84v183c0 46 0 64 -53 64h-55c-70 0 -57 -135 -58 -135
l-13 -10c0 81 -2 133 -28 159l2 10c14 -8 53 -12 97 -12h295c44 0 83 4 97 12z" />
    <glyph glyph-name="Tcaron.smcp" horiz-adv-x="492" 
d="M247 549l-163 102h38l125 -87l124 87h37zM108 0l10 12h40c47 0 49 22 49 79v332c0 46 0 64 -53 64h-55c-70 0 -57 -135 -58 -135l-13 -10c0 81 -2 133 -28 159l2 10c14 -8 53 -12 97 -12h295c44 0 83 4 97 12l1 -10c-26 -26 -27 -78 -27 -159l-14 10c0 39 -1 135 -57 135
h-63c-49 0 -49 -18 -49 -64v-332c0 -57 1 -79 53 -79h35l10 -12h-272z" />
    <glyph glyph-name="uni0162.smcp" horiz-adv-x="492" 
d="M491 511l1 -10c-26 -26 -27 -78 -27 -159l-14 10c0 39 -1 135 -57 135h-63c-49 0 -49 -18 -49 -64v-332c0 -57 1 -79 53 -79h35l10 -12h-130l-75 -86c18 20 46 45 88 45c37 0 79 -26 79 -76c0 -58 -58 -91 -104 -91c-61 0 -80 39 -91 64l11 5c11 -28 30 -54 66 -54
c40 0 68 42 68 80c0 33 -13 58 -43 58c-36 0 -74 -47 -74 -47l-17 12l77 90h-127l10 12h40c47 0 49 22 49 79v332c0 46 0 64 -53 64h-55c-70 0 -57 -135 -58 -135l-13 -10c0 81 -2 133 -28 159l2 10c14 -8 53 -12 97 -12h295c44 0 83 4 97 12z" />
    <glyph glyph-name="uni021A.smcp" horiz-adv-x="492" 
d="M108 0l10 12h40c47 0 49 22 49 79v332c0 46 0 64 -53 64h-55c-70 0 -57 -135 -58 -135l-13 -10c0 81 -2 133 -28 159l2 10c14 -8 53 -12 97 -12h295c44 0 83 4 97 12l1 -10c-26 -26 -27 -78 -27 -159l-14 10c0 39 -1 135 -57 135h-63c-49 0 -49 -18 -49 -64v-332
c0 -57 1 -79 53 -79h35l10 -12h-272zM142 -251v11c60 21 91 66 91 111c0 31 -20 32 -20 58c0 12 22 37 34 37c13 0 33 -25 33 -37c0 -82 -46 -148 -138 -180z" />
    <glyph glyph-name="U.smcp" horiz-adv-x="549" 
d="M290 -22c-135 0 -210 64 -210 187v259c0 46 0 64 -52 64h-58l10 12h287l14 -12h-78c-48 0 -48 -18 -48 -64v-256c0 -75 28 -170 153 -170s158 93 158 180c0 33 2 203 1 246c-1 62 -8 64 -79 64h-107l13 12h285l10 -12h-42c-63 0 -68 -2 -68 -70v-246
c0 -81 -23 -194 -189 -194z" />
    <glyph glyph-name="Uacute.smcp" horiz-adv-x="549" 
d="M124 571v13l316 86l18 -18zM290 -22c-135 0 -210 64 -210 187v259c0 46 0 64 -52 64h-58l10 12h287l14 -12h-78c-48 0 -48 -18 -48 -64v-256c0 -75 28 -170 153 -170s158 93 158 180c0 33 2 203 1 246c-1 62 -8 64 -79 64h-107l13 12h285l10 -12h-42
c-63 0 -68 -2 -68 -70v-246c0 -81 -23 -194 -189 -194z" />
    <glyph glyph-name="Ucircumflex.smcp" horiz-adv-x="549" 
d="M116 555l176 111l175 -111h-40l-135 94l-135 -94h-41zM290 -22c-135 0 -210 64 -210 187v259c0 46 0 64 -52 64h-58l10 12h287l14 -12h-78c-48 0 -48 -18 -48 -64v-256c0 -75 28 -170 153 -170s158 93 158 180c0 33 2 203 1 246c-1 62 -8 64 -79 64h-107l13 12h285
l10 -12h-42c-63 0 -68 -2 -68 -70v-246c0 -81 -23 -194 -189 -194z" />
    <glyph glyph-name="Udieresis.smcp" horiz-adv-x="549" 
d="M205 592c-17 0 -44 27 -44 42c0 19 27 46 44 46c16 0 44 -27 44 -46c0 -15 -28 -42 -44 -42zM379 592c-18 0 -45 27 -45 42c0 19 27 46 45 46c16 0 43 -27 43 -46c0 -15 -27 -42 -43 -42zM290 -22c-135 0 -210 64 -210 187v259c0 46 0 64 -52 64h-58l10 12h287l14 -12
h-78c-48 0 -48 -18 -48 -64v-256c0 -75 28 -170 153 -170s158 93 158 180c0 33 2 203 1 246c-1 62 -8 64 -79 64h-107l13 12h285l10 -12h-42c-63 0 -68 -2 -68 -70v-246c0 -81 -23 -194 -189 -194z" />
    <glyph glyph-name="Ugrave.smcp" horiz-adv-x="549" 
d="M457 571l-334 81l18 18l316 -86v-13zM290 -22c-135 0 -210 64 -210 187v259c0 46 0 64 -52 64h-58l10 12h287l14 -12h-78c-48 0 -48 -18 -48 -64v-256c0 -75 28 -170 153 -170s158 93 158 180c0 33 2 203 1 246c-1 62 -8 64 -79 64h-107l13 12h285l10 -12h-42
c-63 0 -68 -2 -68 -70v-246c0 -81 -23 -194 -189 -194z" />
    <glyph glyph-name="Uhungarumlaut.smcp" horiz-adv-x="549" 
d="M215 570c18 22 49 54 49 82c0 22 -11 35 -11 53c0 16 15 33 27 33c13 0 31 -17 31 -37c0 -35 -54 -98 -80 -131h-16zM315 570c18 22 49 54 49 82c0 22 -11 35 -11 53c0 16 15 33 27 33c13 0 31 -17 31 -37c0 -35 -54 -98 -80 -131h-16zM290 -22c-135 0 -210 64 -210 187
v259c0 46 0 64 -52 64h-58l10 12h287l14 -12h-78c-48 0 -48 -18 -48 -64v-256c0 -75 28 -170 153 -170s158 93 158 180c0 33 2 203 1 246c-1 62 -8 64 -79 64h-107l13 12h285l10 -12h-42c-63 0 -68 -2 -68 -70v-246c0 -81 -23 -194 -189 -194z" />
    <glyph glyph-name="Umacron.smcp" horiz-adv-x="549" 
d="M80 618v12h415v-12h-415zM290 -22c-135 0 -210 64 -210 187v259c0 46 0 64 -52 64h-58l10 12h287l14 -12h-78c-48 0 -48 -18 -48 -64v-256c0 -75 28 -170 153 -170s158 93 158 180c0 33 2 203 1 246c-1 62 -8 64 -79 64h-107l13 12h285l10 -12h-42c-63 0 -68 -2 -68 -70
v-246c0 -81 -23 -194 -189 -194z" />
    <glyph glyph-name="Uogonek.smcp" horiz-adv-x="549" 
d="M579 500l10 -12h-42c-63 0 -68 -2 -68 -70v-246c0 -65 -15 -150 -105 -181c-54 -22 -85 -61 -85 -112c0 -44 23 -74 64 -75c37 -1 62 30 62 64h12c0 -46 -35 -85 -92 -85c-56 0 -97 42 -97 93c0 55 44 86 87 104c-11 -1 -23 -2 -35 -2c-135 0 -210 64 -210 187v259
c0 46 0 64 -52 64h-58l10 12h287l14 -12h-78c-48 0 -48 -18 -48 -64v-256c0 -75 28 -170 153 -170s158 93 158 180c0 33 2 203 1 246c-1 62 -8 64 -79 64h-107l13 12h285z" />
    <glyph glyph-name="Uring.smcp" horiz-adv-x="549" 
d="M288 540c-55 0 -99 43 -99 98s44 98 99 98s99 -43 99 -98s-44 -98 -99 -98zM287 552c49 0 80 38 80 85s-31 87 -80 87s-78 -40 -78 -87s29 -85 78 -85zM290 -22c-135 0 -210 64 -210 187v259c0 46 0 64 -52 64h-58l10 12h287l14 -12h-78c-48 0 -48 -18 -48 -64v-256
c0 -75 28 -170 153 -170s158 93 158 180c0 33 2 203 1 246c-1 62 -8 64 -79 64h-107l13 12h285l10 -12h-42c-63 0 -68 -2 -68 -70v-246c0 -81 -23 -194 -189 -194z" />
    <glyph glyph-name="Utilde.smcp" horiz-adv-x="549" 
d="M148 570l-11 5s23 78 85 78c63 0 83 -71 140 -71c49 0 68 47 68 47l10 -4s-21 -55 -78 -55c-62 0 -89 63 -140 63c-52 0 -74 -63 -74 -63zM290 -22c-135 0 -210 64 -210 187v259c0 46 0 64 -52 64h-58l10 12h287l14 -12h-78c-48 0 -48 -18 -48 -64v-256
c0 -75 28 -170 153 -170s158 93 158 180c0 33 2 203 1 246c-1 62 -8 64 -79 64h-107l13 12h285l10 -12h-42c-63 0 -68 -2 -68 -70v-246c0 -81 -23 -194 -189 -194z" />
    <glyph glyph-name="V.smcp" horiz-adv-x="495" 
d="M256 -22l-194 452c-13 31 -29 58 -79 58h-63l7 12h293l11 -12h-63c-42 0 -45 -20 -33 -48l66 -160c56 -136 70 -149 86 -149c11 0 20 13 49 89l74 193c22 57 15 75 -59 75h-120l11 12h316l7 -12h-46c-46 0 -75 -20 -95 -73z" />
    <glyph glyph-name="W.smcp" horiz-adv-x="754" 
d="M262 -22l-201 452c-14 31 -28 58 -78 58h-63l10 12h884l10 -12h-46c-46 0 -75 -19 -98 -78l-169 -432l-126 296zM292 131c14 0 25 9 57 88l29 71l-60 140c-13 31 -28 58 -78 58h-78c-42 0 -40 -21 -28 -48l112 -256c19 -44 30 -53 46 -53zM415 382l13 30
c20 47 31 76 -15 76c-31 0 -36 -12 -25 -39zM543 131c12 0 18 7 50 89l75 193c22 57 16 75 -47 75h-82c-47 0 -78 -25 -97 -73l-20 -49c90 -214 99 -235 121 -235z" />
    <glyph glyph-name="Wacute.smcp" horiz-adv-x="754" 
d="M245 565v12l292 80l17 -17zM262 -22l-201 452c-14 31 -28 58 -78 58h-63l10 12h884l10 -12h-46c-46 0 -75 -19 -98 -78l-169 -432l-126 296zM292 131c14 0 25 9 57 88l29 71l-60 140c-13 31 -28 58 -78 58h-78c-42 0 -40 -21 -28 -48l112 -256c19 -44 30 -53 46 -53z
M415 382l13 30c20 47 31 76 -15 76c-31 0 -36 -12 -25 -39zM543 131c12 0 18 7 50 89l75 193c22 57 16 75 -47 75h-82c-47 0 -78 -25 -97 -73l-20 -49c90 -214 99 -235 121 -235z" />
    <glyph glyph-name="Wcircumflex.smcp" horiz-adv-x="754" 
d="M237 551l163 102l161 -102h-37l-124 87l-125 -87h-38zM262 -22l-201 452c-14 31 -28 58 -78 58h-63l10 12h884l10 -12h-46c-46 0 -75 -19 -98 -78l-169 -432l-126 296zM292 131c14 0 25 9 57 88l29 71l-60 140c-13 31 -28 58 -78 58h-78c-42 0 -40 -21 -28 -48l112 -256
c19 -44 30 -53 46 -53zM415 382l13 30c20 47 31 76 -15 76c-31 0 -36 -12 -25 -39zM543 131c12 0 18 7 50 89l75 193c22 57 16 75 -47 75h-82c-47 0 -78 -25 -97 -73l-20 -49c90 -214 99 -235 121 -235z" />
    <glyph glyph-name="Wdieresis.smcp" horiz-adv-x="754" 
d="M320 585c-16 0 -41 25 -41 39c0 17 25 42 41 42c15 0 40 -25 40 -42c0 -14 -25 -39 -40 -39zM480 585c-16 0 -41 25 -41 39c0 17 25 42 41 42c15 0 40 -25 40 -42c0 -14 -25 -39 -40 -39zM262 -22l-201 452c-14 31 -28 58 -78 58h-63l10 12h884l10 -12h-46
c-46 0 -75 -19 -98 -78l-169 -432l-126 296zM292 131c14 0 25 9 57 88l29 71l-60 140c-13 31 -28 58 -78 58h-78c-42 0 -40 -21 -28 -48l112 -256c19 -44 30 -53 46 -53zM415 382l13 30c20 47 31 76 -15 76c-31 0 -36 -12 -25 -39zM543 131c12 0 18 7 50 89l75 193
c22 57 16 75 -47 75h-82c-47 0 -78 -25 -97 -73l-20 -49c90 -214 99 -235 121 -235z" />
    <glyph glyph-name="Wgrave.smcp" horiz-adv-x="754" 
d="M553 565l-309 75l17 17l292 -80v-12zM262 -22l-201 452c-14 31 -28 58 -78 58h-63l10 12h884l10 -12h-46c-46 0 -75 -19 -98 -78l-169 -432l-126 296zM292 131c14 0 25 9 57 88l29 71l-60 140c-13 31 -28 58 -78 58h-78c-42 0 -40 -21 -28 -48l112 -256
c19 -44 30 -53 46 -53zM415 382l13 30c20 47 31 76 -15 76c-31 0 -36 -12 -25 -39zM543 131c12 0 18 7 50 89l75 193c22 57 16 75 -47 75h-82c-47 0 -78 -25 -97 -73l-20 -49c90 -214 99 -235 121 -235z" />
    <glyph glyph-name="X.smcp" horiz-adv-x="532" 
d="M-50 0l10 12h47c41 0 60 13 90 47l136 179l-117 182c-25 39 -47 68 -89 68h-67l10 12h314l15 -12h-85c-42 0 -50 -6 -27 -39l86 -126c6 -8 11 -15 18 -15c6 0 11 6 18 16l88 118c29 39 11 46 -63 46h-35l14 12h230l10 -12h-59c-42 0 -57 -13 -85 -51l-108 -145l136 -212
c38 -49 55 -68 98 -68h52l10 -12h-399l14 12h117c53 0 60 8 40 38l-99 148c-14 20 -20 24 -25 24c-7 0 -12 -5 -27 -24l-109 -143c-29 -39 -10 -43 64 -43h11l14 -12h-248z" />
    <glyph glyph-name="Y.smcp" horiz-adv-x="480" 
d="M73 0l14 12h71c47 0 49 22 49 79v134c0 19 -75 152 -114 215c-10 16 -30 48 -65 48h-82l10 12h268l14 -12h-34c-48 0 -43 -19 -5 -93c43 -83 60 -110 71 -110s24 18 55 70l56 93c22 37 6 40 -62 40h-81l14 12h271l10 -12h-59c-49 0 -60 -9 -79 -41l-59 -97
c-50 -82 -54 -90 -54 -115v-144c0 -57 1 -79 52 -79h82l14 -12h-357z" />
    <glyph glyph-name="Yacute.smcp" horiz-adv-x="480" 
d="M86 571v13l316 86l18 -18zM73 0l14 12h71c47 0 49 22 49 79v134c0 19 -75 152 -114 215c-10 16 -30 48 -65 48h-82l10 12h268l14 -12h-34c-48 0 -43 -19 -5 -93c43 -83 60 -110 71 -110s24 18 55 70l56 93c22 37 6 40 -62 40h-81l14 12h271l10 -12h-59
c-49 0 -60 -9 -79 -41l-59 -97c-50 -82 -54 -90 -54 -115v-144c0 -57 1 -79 52 -79h82l14 -12h-357z" />
    <glyph glyph-name="Ycircumflex.smcp" horiz-adv-x="480" 
d="M91 551l163 102l161 -102h-37l-124 87l-125 -87h-38zM73 0l14 12h71c47 0 49 22 49 79v134c0 19 -75 152 -114 215c-10 16 -30 48 -65 48h-82l10 12h268l14 -12h-34c-48 0 -43 -19 -5 -93c43 -83 60 -110 71 -110s24 18 55 70l56 93c22 37 6 40 -62 40h-81l14 12h271
l10 -12h-59c-49 0 -60 -9 -79 -41l-59 -97c-50 -82 -54 -90 -54 -115v-144c0 -57 1 -79 52 -79h82l14 -12h-357z" />
    <glyph glyph-name="Ydieresis.smcp" horiz-adv-x="480" 
d="M167 592c-17 0 -44 27 -44 42c0 19 27 46 44 46c16 0 44 -27 44 -46c0 -15 -28 -42 -44 -42zM341 592c-18 0 -45 27 -45 42c0 19 27 46 45 46c16 0 43 -27 43 -46c0 -15 -27 -42 -43 -42zM73 0l14 12h71c47 0 49 22 49 79v134c0 19 -75 152 -114 215
c-10 16 -30 48 -65 48h-82l10 12h268l14 -12h-34c-48 0 -43 -19 -5 -93c43 -83 60 -110 71 -110s24 18 55 70l56 93c22 37 6 40 -62 40h-81l14 12h271l10 -12h-59c-49 0 -60 -9 -79 -41l-59 -97c-50 -82 -54 -90 -54 -115v-144c0 -57 1 -79 52 -79h82l14 -12h-357z" />
    <glyph glyph-name="Ygrave.smcp" horiz-adv-x="480" 
d="M407 565l-309 75l17 17l292 -80v-12zM73 0l14 12h71c47 0 49 22 49 79v134c0 19 -75 152 -114 215c-10 16 -30 48 -65 48h-82l10 12h268l14 -12h-34c-48 0 -43 -19 -5 -93c43 -83 60 -110 71 -110s24 18 55 70l56 93c22 37 6 40 -62 40h-81l14 12h271l10 -12h-59
c-49 0 -60 -9 -79 -41l-59 -97c-50 -82 -54 -90 -54 -115v-144c0 -57 1 -79 52 -79h82l14 -12h-357z" />
    <glyph glyph-name="uni0232.smcp" horiz-adv-x="480" 
d="M42 618v12h415v-12h-415zM73 0l14 12h71c47 0 49 22 49 79v134c0 19 -75 152 -114 215c-10 16 -30 48 -65 48h-82l10 12h268l14 -12h-34c-48 0 -43 -19 -5 -93c43 -83 60 -110 71 -110s24 18 55 70l56 93c22 37 6 40 -62 40h-81l14 12h271l10 -12h-59
c-49 0 -60 -9 -79 -41l-59 -97c-50 -82 -54 -90 -54 -115v-144c0 -57 1 -79 52 -79h82l14 -12h-357z" />
    <glyph glyph-name="Z.smcp" horiz-adv-x="540" 
d="M30 0l322 429c28 37 26 59 -67 59h-113c-59 0 -79 -59 -79 -130l-14 -10c0 81 -3 130 -27 152l4 9c13 -5 48 -9 86 -9h350l-322 -432c-42 -56 10 -56 52 -56h104c91 0 121 32 171 159l13 -1l-60 -170h-420z" />
    <glyph glyph-name="Zacute.smcp" horiz-adv-x="540" 
d="M127 565v12l292 80l17 -17zM30 0l322 429c28 37 26 59 -67 59h-113c-59 0 -79 -59 -79 -130l-14 -10c0 81 -3 130 -27 152l4 9c13 -5 48 -9 86 -9h350l-322 -432c-42 -56 10 -56 52 -56h104c91 0 121 32 171 159l13 -1l-60 -170h-420z" />
    <glyph glyph-name="Zcaron.smcp" horiz-adv-x="540" 
d="M282 550l-163 102h38l125 -87l124 87h37zM30 0l322 429c28 37 26 59 -67 59h-113c-59 0 -79 -59 -79 -130l-14 -10c0 81 -3 130 -27 152l4 9c13 -5 48 -9 86 -9h350l-322 -432c-42 -56 10 -56 52 -56h104c91 0 121 32 171 159l13 -1l-60 -170h-420z" />
    <glyph glyph-name="Zdotaccent.smcp" horiz-adv-x="540" 
d="M278 573c-34 0 -62 28 -62 62s28 62 62 62s62 -28 62 -62s-28 -62 -62 -62zM30 0l322 429c28 37 26 59 -67 59h-113c-59 0 -79 -59 -79 -130l-14 -10c0 81 -3 130 -27 152l4 9c13 -5 48 -9 86 -9h350l-322 -432c-42 -56 10 -56 52 -56h104c91 0 121 32 171 159l13 -1
l-60 -170h-420z" />
    <glyph glyph-name="Alpha" unicode="&#x391;" horiz-adv-x="667" 
d="M-120 0l20 12h50c42 0 89 3 116 63c42 95 244 559 244 559s-8 54 -159 54h-135l20 12h317l264 -629c18 -43 53 -59 96 -59h54l20 -12h-439l19 12h83c88 0 90 18 38 154c-20 52 -50 52 -95 52h-176c-63 0 -76 -4 -103 -65c-55 -123 -51 -141 44 -141h81l20 -12h-379z
M217 230h176c50 0 61 23 41 78l-118 310l-139 -320c-24 -57 -19 -68 40 -68z" />
    <glyph glyph-name="Beta" unicode="&#x392;" horiz-adv-x="661" 
d="M-9 0l20 12h49c78 0 80 32 80 114v471c0 65 0 91 -85 91h-65l20 12h298c125 0 259 -18 259 -158s-169 -158 -169 -158l-10 -4s238 -1 238 -191c0 -179 -188 -189 -330 -189h-305zM334 13c136 0 207 45 207 176c0 182 -188 184 -284 184l16 12c170 0 209 65 209 158
c0 72 -45 145 -162 145c-105 0 -105 -26 -105 -91v-472c0 -81 29 -112 119 -112z" />
    <glyph glyph-name="Gamma" unicode="&#x393;" horiz-adv-x="546" 
d="M-10 0l19 12h51c78 0 80 32 80 114v471c0 65 0 91 -85 91h-64l19 12h416c62 0 117 6 138 17l2 -5c-37 -38 -39 -115 -39 -232l-12 17c0 66 -1 191 -99 191h-131c-70 0 -70 -26 -70 -91v-472c0 -81 2 -113 75 -113h56l10 -12h-366z" />
    <glyph glyph-name="uni0394" unicode="&#x394;" horiz-adv-x="757" 
d="M40 0l341 720l336 -720h-677zM161 12h351c66 0 89 24 60 91c-60 139 -226 514 -226 514s-167 -349 -238 -501c-39 -83 -7 -104 53 -104z" />
    <glyph glyph-name="Epsilon" unicode="&#x395;" horiz-adv-x="597" 
d="M-10 0l20 12h50c78 0 80 32 80 114v471c0 65 0 91 -85 91h-65l20 12h410c62 0 117 6 138 17l5 -8c-37 -38 -47 -107 -47 -224l-12 11c0 91 -5 192 -84 192h-135c-70 0 -70 -26 -70 -91v-121c0 -84 5 -102 60 -102h65c74 0 74 28 74 115h12v-267l-12 10
c0 60 0 130 -74 130h-65c-55 0 -60 -20 -60 -80v-157c0 -81 2 -113 75 -113c152 0 244 47 307 163l10 -3l-86 -172h-531z" />
    <glyph glyph-name="Zeta" unicode="&#x396;" horiz-adv-x="700" 
d="M20 0l462 589c69 88 47 99 -29 99h-242c-98 0 -98 -138 -98 -197l-12 -11c0 117 -7 191 -40 229l7 8c19 -11 68 -17 123 -17h469l-439 -557c-94 -119 -68 -131 40 -131h146c129 0 180 52 252 233l11 -2l-87 -243h-563z" />
    <glyph glyph-name="Eta" unicode="&#x397;" horiz-adv-x="825" 
d="M-10 0l20 12h50c78 0 80 32 80 114v471c0 65 0 91 -85 91h-65l20 12h336l10 -12h-71c-70 0 -70 -26 -70 -91v-141c0 -84 5 -102 60 -102h255c75 0 80 18 80 105v138c0 65 0 91 -75 91h-66l10 12h336l20 -12h-66c-84 0 -84 -26 -84 -91v-472c0 -81 2 -113 80 -113h50
l20 -12h-366l10 12h61c68 0 70 32 70 114v136c0 60 -5 80 -80 80h-255c-55 0 -60 -20 -60 -80v-137c0 -81 2 -113 75 -113h56l10 -12h-366z" />
    <glyph glyph-name="Theta" unicode="&#x398;" horiz-adv-x="814" 
d="M406 -20c-209 0 -366 169 -366 371c0 203 157 369 366 369c208 0 368 -166 368 -369c0 -202 -160 -371 -368 -371zM447 -1c145 0 247 130 247 311c0 243 -183 388 -339 388c-147 0 -237 -128 -237 -291c0 -210 151 -408 329 -408zM209 244v190h12c0 -67 9 -85 84 -85h199
c75 0 84 18 84 85h12v-190l-12 10c0 50 -9 80 -84 80h-199c-75 0 -84 -30 -84 -80z" />
    <glyph glyph-name="Iota" unicode="&#x399;" horiz-adv-x="355" 
d="M-10 0l20 12h50c78 0 80 32 80 114v471c0 65 0 91 -85 91h-65l20 12h335l20 -12h-66c-84 0 -84 -26 -84 -91v-472c0 -81 2 -113 80 -113h50l20 -12h-375z" />
    <glyph glyph-name="Kappa" unicode="&#x39a;" horiz-adv-x="739" 
d="M-10 0l20 12h50c78 0 80 32 80 114v471c0 65 0 91 -85 91h-65l20 12h326l20 -12h-71c-70 0 -70 -26 -70 -91v-320l181 185c179 182 220 226 66 226h-106l20 12h440l20 -12h-65c-134 0 -138 -2 -382 -250l226 -322c61 -86 78 -104 138 -104h76l10 -12h-405l10 12h85
c39 0 48 18 13 67l-208 302l-119 -121v-135c0 -81 2 -113 75 -113h46l10 -12h-356z" />
    <glyph glyph-name="Lambda" unicode="&#x39b;" horiz-adv-x="662" 
d="M450 12c97 0 90 19 -33 342l-101 264c-129 -299 -158 -365 -202 -465c-50 -113 -62 -141 44 -141h81l20 -12h-379l20 12h50c42 0 89 3 116 63c32 71 243 556 244 559c0 0 -11 54 -158 54h-139l21 12h322l266 -629c18 -43 46 -59 96 -59h54l10 -12h-444l19 12h93z" />
    <glyph glyph-name="Mu" unicode="&#x39c;" horiz-adv-x="985" 
d="M466 -20c-267 629 -277 652 -290 652c-10 0 -12 -11 -28 -182l-27 -315c-10 -120 7 -123 110 -123h86l10 -12h-387l20 12h51c87 0 91 42 98 124l41 467c5 65 -6 85 -121 85h-76l20 12h277l126 -297c105 -248 108 -255 122 -255s18 7 160 404l53 148h293l20 -12h-141
c-70 0 -81 -15 -72 -91l56 -471c15 -83 49 -114 122 -114h56l20 -12h-457l10 12h61c68 0 121 21 108 108l-34 285c-25 213 -32 227 -42 227c-6 0 -13 -7 -41 -83c-39 -108 -109 -307 -204 -569z" />
    <glyph glyph-name="Nu" unicode="&#x39d;" horiz-adv-x="809" 
d="M699 -20l-295 383c-211 273 -215 278 -227 278c-14 0 -16 -25 -17 -63l-11 -443c-3 -110 30 -123 113 -123h86l10 -12h-397l20 12h61c58 0 92 13 95 124l12 473c1 50 -7 79 -122 79h-67l20 12h270l437 -563v429c0 117 -48 122 -134 122h-41l10 12h297l20 -12h-46
c-59 0 -94 -5 -94 -121v-587z" />
    <glyph glyph-name="Xi" unicode="&#x39e;" horiz-adv-x="600" 
d="M51 541v159h501v-159l-12 10c0 71 -9 89 -84 89h-309c-75 0 -84 -16 -84 -89zM85 256v190l12 -10c0 -67 7 -75 82 -75h239c75 0 87 8 87 75l11 10v-190l-12 10c0 50 -9 80 -84 80h-239c-75 0 -84 -30 -84 -80zM52 0v159l12 -10c0 -73 8 -89 83 -89h309c75 0 84 18 84 89
l12 10v-159h-500z" />
    <glyph glyph-name="Omicron" unicode="&#x39f;" horiz-adv-x="814" 
d="M406 -20c-209 0 -366 169 -366 371c0 203 157 369 366 369c208 0 368 -166 368 -369c0 -202 -160 -371 -368 -371zM447 -1c145 0 247 130 247 311c0 243 -183 388 -339 388c-147 0 -237 -128 -237 -291c0 -210 151 -408 329 -408z" />
    <glyph glyph-name="Pi" unicode="&#x3a0;" horiz-adv-x="827" 
d="M-10 0l20 12h61c68 0 70 32 70 114v471c0 65 0 91 -75 91h-76l20 12h807l20 -12h-81c-70 0 -70 -26 -70 -91v-472c0 -81 2 -113 75 -113h56l20 -12h-367l10 12h61c68 0 70 32 70 114v471c0 65 0 91 -75 91h-250c-70 0 -70 -26 -70 -91v-472c0 -81 2 -113 75 -113h56
l10 -12h-367z" />
    <glyph glyph-name="Rho" unicode="&#x3a1;" horiz-adv-x="585" 
d="M-9 0l20 12h49c78 0 80 32 80 114v471c0 65 0 91 -85 91h-65l20 12h350c81 0 195 -25 195 -164s-115 -201 -224 -201c-49 0 -76 5 -76 5v12s25 -5 56 -5c77 0 165 36 165 175s-123 166 -168 166c-85 0 -93 -5 -93 -121v-442c0 -81 2 -113 75 -113h56l20 -12h-375z" />
    <glyph glyph-name="Sigma" unicode="&#x3a3;" horiz-adv-x="613" 
d="M-10 0l329 361l-309 339h457c55 0 104 6 123 17l2 -5c-33 -38 -35 -115 -35 -232l-12 14c0 78 0 194 -98 194h-183c-105 0 -150 -2 -87 -70l199 -213l-230 -251c-50 -56 0 -81 88 -81h125c135 0 184 0 252 172l12 -2l-87 -243h-546z" />
    <glyph glyph-name="Tau" unicode="&#x3a4;" horiz-adv-x="637" 
d="M127 0l20 12h61c68 0 70 32 70 114v471c0 65 0 91 -75 91h-80c-90 0 -90 -136 -90 -194l-12 -4c0 107 -4 181 -41 219l5 8c21 -11 76 -17 138 -17h391c62 0 117 6 138 17l5 -8c-37 -38 -42 -112 -42 -219l-12 4c0 58 -1 194 -89 194h-91c-70 0 -70 -26 -70 -91v-472
c0 -81 2 -113 75 -113h56l20 -12h-377z" />
    <glyph glyph-name="Upsilon" unicode="&#x3a5;" horiz-adv-x="709" 
d="M126 0l20 12h101c68 0 70 32 70 114c0 366 -40 559 -165 559c-120 0 -140 -145 -140 -145h-12c0 42 53 177 165 177c111 0 159 -115 191 -250c34 135 83 250 188 250c112 0 165 -135 165 -177h-12s-20 145 -140 145c-126 0 -165 -195 -165 -560c0 -81 2 -113 75 -113h116
l20 -12h-477z" />
    <glyph glyph-name="Phi" unicode="&#x3a6;" horiz-adv-x="761" 
d="M189 0l20 12h61c59 0 68 24 70 84c-178 14 -300 126 -300 258c0 133 122 242 300 256c0 56 -5 78 -75 78h-76l20 12h337l20 -12h-81c-65 0 -70 -22 -70 -77c180 -13 306 -124 306 -257s-126 -245 -306 -259c2 -59 12 -83 75 -83h56l20 -12h-377zM340 121v464
c-214 5 -228 -114 -231 -182c-4 -109 79 -244 231 -282zM415 112c114 -4 229 61 234 204s-114 233 -234 260v-464z" />
    <glyph glyph-name="Chi" unicode="&#x3a7;" horiz-adv-x="676" 
d="M-120 0l20 12h71c58 0 89 18 130 70l206 260l-159 248c-53 82 -72 98 -149 98h-65l20 12h407l20 -12h-121c-54 0 -78 0 -43 -56l127 -201c8 -12 10 -14 13 -14c4 0 5 2 15 15l145 192c38 50 34 64 -85 64h-51l20 12h312l20 -12h-81c-56 0 -80 -15 -124 -72l-163 -213
l189 -292c47 -72 70 -99 116 -99h96l10 -12h-539l20 12h183c54 0 78 0 44 55l-135 216c-22 35 -28 43 -34 43c-5 0 -10 -6 -39 -43l-163 -208c-40 -51 -31 -63 88 -63h15l21 -12h-357z" />
    <glyph glyph-name="Psi" unicode="&#x3a8;" horiz-adv-x="650" 
d="M139 0l20 12h61c68 0 70 32 70 114v144c0 30 -6 45 -80 45c-131 0 -149 117 -149 203c0 87 -1 170 -90 170h-46l20 12h27c159 0 164 -91 164 -185c0 -83 0 -188 85 -188c63 0 69 1 69 54v216c0 65 0 91 -75 91h-76l20 12h337l20 -12h-81c-70 0 -70 -26 -70 -91v-216
c0 -53 6 -54 69 -54c85 0 85 105 85 188c0 94 0 185 159 185h27l20 -12h-46c-89 0 -90 -83 -90 -170c0 -86 -13 -203 -144 -203c-74 0 -80 -15 -80 -45v-145c0 -81 2 -113 75 -113h56l20 -12h-377z" />
    <glyph glyph-name="uni03A9" unicode="&#x3a9;" horiz-adv-x="832" 
d="M97 0l-87 243l11 2c62 -156 90 -171 184 -172c96 0 106 3 106 58c0 0 -231 92 -231 278c0 182 153 311 323 311c178 0 324 -127 324 -311c0 -175 -196 -278 -196 -278c0 -58 31 -58 103 -58c87 0 115 16 177 172l11 -2l-87 -243h-215v131s124 151 124 309
c0 108 -86 268 -241 268c-153 0 -242 -160 -242 -268c0 -168 161 -309 161 -309v-131h-225z" />
    <glyph glyph-name="Iotadieresis" unicode="&#x3aa;" horiz-adv-x="355" 
d="M75 770c-16 0 -41 25 -41 39c0 17 25 42 41 42c15 0 40 -25 40 -42c0 -14 -25 -39 -40 -39zM276 770c-16 0 -41 25 -41 39c0 17 25 42 41 42c15 0 40 -25 40 -42c0 -14 -25 -39 -40 -39zM-10 0l20 12h50c78 0 80 32 80 114v471c0 65 0 91 -85 91h-65l20 12h335l20 -12
h-66c-84 0 -84 -26 -84 -91v-472c0 -81 2 -113 80 -113h50l20 -12h-375z" />
    <glyph glyph-name="Upsilondieresis" unicode="&#x3ab;" horiz-adv-x="709" 
d="M256 770c-16 0 -41 25 -41 39c0 17 25 42 41 42c15 0 40 -25 40 -42c0 -14 -25 -39 -40 -39zM457 770c-16 0 -41 25 -41 39c0 17 25 42 41 42c15 0 40 -25 40 -42c0 -14 -25 -39 -40 -39zM126 0l20 12h101c68 0 70 32 70 114c0 366 -40 559 -165 559
c-120 0 -140 -145 -140 -145h-12c0 42 53 177 165 177c111 0 159 -115 191 -250c34 135 83 250 188 250c112 0 165 -135 165 -177h-12s-20 145 -140 145c-126 0 -165 -195 -165 -560c0 -81 2 -113 75 -113h116l20 -12h-477z" />
    <glyph glyph-name="uni03CF" unicode="&#x3cf;" horiz-adv-x="727" 
d="M314 -180l20 12c112 0 254 57 254 168l-263 381l-119 -121v-135c0 -81 2 -113 75 -113h46l20 -12h-357l20 12h51c68 0 70 32 70 114v471c0 65 0 91 -75 91h-66l20 12h317l20 -12h-71c-70 0 -70 -26 -70 -91v-320l181 185c179 182 208 226 66 226h-106l20 12h440l20 -12
h-65c-132 0 -141 -5 -382 -250l306 -438l-212 -180h-160z" />
    <glyph glyph-name="uni03BC" unicode="&#x3bc;" horiz-adv-x="579" 
d="M609 0h-194v138c-6 -25 -39 -158 -178 -158c-35 0 -61 7 -81 20v-76c0 -69 7 -82 59 -82h28l20 -12h-167v297c-1 12 -1 25 -1 36v211c0 101 -5 104 -125 104l20 12h170v-321c0 -74 15 -157 114 -157c83 0 140 100 140 197v179c0 87 -18 90 -181 90l21 12h230v-425
c0 -50 30 -53 65 -53h40z" />
    <glyph glyph-name="zero" unicode="0" horiz-adv-x="629" 
d="M312 -20c-149 0 -272 169 -272 371c0 203 123 369 272 369s277 -166 277 -369c0 -202 -128 -371 -277 -371zM346 1c75 0 162 97 162 311c0 242 -121 384 -223 384c-158 0 -168 -198 -168 -286c0 -181 80 -409 229 -409z" />
    <glyph glyph-name="one" unicode="1" horiz-adv-x="466" 
d="M59 0l20 12h61c68 0 70 32 70 114v447c0 72 -31 58 -160 -6v14l235 119h102l20 -12c-119 0 -122 -5 -122 -85v-478c0 -81 2 -113 75 -113h56l20 -12h-377z" />
    <glyph glyph-name="two" unicode="2" horiz-adv-x="608" 
d="M0 0c240 286 401 431 401 584c0 80 -23 123 -130 123s-114 -84 -102 -232l-12 -13c-5 116 -46 225 -96 252l2 6c51 -11 111 -1 209 -1c119 0 192 -59 192 -154c0 -154 -173 -326 -307 -481c-48 -55 -31 -73 49 -73h109c139 0 197 159 262 340l11 -2l-113 -349h-475z" />
    <glyph glyph-name="three" unicode="3" horiz-adv-x="569" 
d="M259 -20c-133 0 -195 103 -195 103l-14 265l12 8c20 -231 96 -363 211 -363c122 0 176 135 176 228c0 149 -153 207 -257 129v15c112 75 197 108 197 226c0 86 -62 116 -124 116c-137 0 -137 -76 -126 -229l-12 -13c-3 119 -25 221 -75 249l2 6c51 -11 133 -1 211 -1
c140 0 199 -42 199 -129c0 -107 -84 -130 -199 -195c106 24 264 -20 264 -178s-129 -237 -270 -237z" />
    <glyph glyph-name="four" unicode="4" horiz-adv-x="568" 
d="M143 0l20 12h61c68 0 70 32 70 114v74h-294v11l353 509h16v-509c119 0 128 65 145 195l14 11l-31 -218h-128v-74c0 -81 2 -113 75 -113h56l20 -12h-377zM123 212h172v404l-217 -314c-48 -73 -30 -90 45 -90z" />
    <glyph glyph-name="five" unicode="5" horiz-adv-x="550" 
d="M269 -20c-113 0 -214 83 -215 91l-14 219l12 10c6 -141 63 -308 219 -308c101 0 148 91 148 207c0 222 -241 324 -319 157l35 344h120c98 0 193 -6 243 2l2 -6c-47 -22 -65 -98 -81 -212l-10 12c22 192 16 192 -125 192c-85 0 -85 0 -110 -245c120 43 325 -23 325 -221
c0 -167 -129 -242 -230 -242z" />
    <glyph glyph-name="six" unicode="6" horiz-adv-x="602" 
d="M322 -20c-140 0 -282 139 -282 371c0 181 119 368 312 368c78 0 154 -36 205 -23l5 -9c-50 -29 -71 -99 -95 -215l-9 13c28 134 2 222 -105 222c-198 0 -264 -195 -245 -428c59 277 447 212 447 -49c0 -204 -148 -250 -233 -250zM330 -8c69 0 147 64 147 193
c0 311 -342 339 -363 47c21 -136 112 -240 216 -240z" />
    <glyph glyph-name="seven" unicode="7" horiz-adv-x="564" 
d="M30 0l20 12h31c64 0 82 36 124 121l199 464c32 90 1 91 -69 91h-171c-108 0 -108 -199 -108 -211l-13 -14c0 117 -6 208 -43 246l6 8c21 -11 76 -17 138 -17h460l20 -13c-84 0 -114 -3 -138 -62l-209 -504c-36 -86 -43 -109 120 -109h46l20 -12h-433z" />
    <glyph glyph-name="eight" unicode="8" horiz-adv-x="545" 
d="M265 -20c-123 0 -225 80 -225 182c0 116 92 174 181 210c-77 37 -147 80 -147 179c0 68 53 169 191 169c95 0 178 -73 178 -157c0 -94 -69 -139 -138 -161c97 -45 200 -96 200 -223c0 -109 -106 -199 -240 -199zM293 408c59 25 108 80 108 155c0 76 -54 145 -136 145
c-79 0 -128 -66 -128 -125c0 -102 74 -138 156 -175zM265 -8c116 0 165 89 165 167c0 126 -101 164 -194 206c-73 -26 -140 -78 -140 -192c0 -68 45 -181 169 -181z" />
    <glyph glyph-name="nine" unicode="9" horiz-adv-x="589" 
d="M277 -20c-124 0 -218 92 -218 92l-16 181l12 8c17 -118 89 -269 221 -269c152 0 215 166 204 429c-63 -274 -440 -214 -440 57c0 180 146 242 231 242c170 0 278 -138 278 -372c0 -180 -99 -368 -272 -368zM476 479c-13 128 -102 228 -205 228c-80 0 -159 -36 -159 -185
c0 -313 344 -347 364 -43z" />
    <glyph glyph-name="zero.osf" horiz-adv-x="504" 
d="M252 -20c-117 0 -212 110 -212 241c0 132 92 240 212 240c116 0 212 -108 212 -240c0 -121 -90 -241 -212 -241zM274 -5c74 0 121 77 121 200c0 157 -75 252 -161 252c-102 0 -125 -125 -125 -189c0 -117 48 -263 165 -263z" />
    <glyph glyph-name="one.osf" horiz-adv-x="329" 
d="M30 0l13 12h39c44 0 45 20 45 73v295c0 42 0 58 -48 58h-49l13 12h233l13 -12h-52c-45 0 -45 -16 -45 -58v-296c0 -52 1 -72 48 -72h36l13 -12h-259z" />
    </font>
</defs>
</svg>
